<svg version="1.1" id="Layer_1" xmlns="http://www.w3.org/2000/svg" xmlns:xlink="http://www.w3.org/1999/xlink" x="0px" y="0px"
	 width="1024" height="1024" viewBox="0 0 1024 1024" enable-background="new 0 0 1024 1024" xml:space="preserve">
<path fill="#000000" opacity="1.000000" stroke="none" 
	d="
M358.275330,472.332336 
	C372.030792,443.812561 385.168793,415.423462 397.840454,386.573151 
	C394.204895,384.396362 390.397034,385.216156 386.922455,384.595947 
	C380.426270,383.436401 374.468262,381.064575 368.530365,378.386688 
	C365.589996,377.060577 364.774811,375.415833 365.530548,372.159851 
	C369.216980,356.276642 372.877991,340.380646 376.112305,324.400970 
	C382.085388,294.890503 387.555725,265.287079 395.724365,236.252090 
	C401.530945,215.612808 403.755157,194.309006 405.675018,173.030762 
	C407.932800,148.007935 409.561188,122.928253 411.829651,97.906517 
	C412.684479,88.477928 414.166351,79.046623 419.036621,70.578903 
	C423.087250,63.536274 428.644928,58.390423 436.407806,55.576378 
	C444.390350,52.682690 452.288391,49.543182 460.143799,46.317345 
	C463.470398,44.951271 466.246002,45.057079 469.572815,46.764385 
	C501.509216,63.154034 533.559326,62.484047 565.474243,46.691002 
	C568.598511,45.144978 571.130005,44.819397 574.390076,46.076935 
	C582.620300,49.251709 590.955200,52.171368 599.323914,54.966610 
	C609.455139,58.350578 615.598816,65.721321 619.525818,75.120163 
	C624.997314,88.215408 625.753418,102.288261 627.261902,116.160172 
	C629.418762,135.994553 630.742432,155.895721 633.430237,175.704468 
	C635.214539,188.855240 636.546570,202.123688 638.467651,215.274628 
	C639.949219,225.417526 643.504028,235.138855 646.087524,245.060135 
	C650.647949,262.572601 654.414185,280.269653 658.017944,298.006775 
	C663.015686,322.604492 668.190186,347.172272 674.639404,371.439850 
	C675.611877,375.098969 674.823730,377.093414 671.431030,378.481018 
	C663.242798,381.830048 655.050049,384.996490 646.016602,385.305267 
	C642.629150,385.421021 640.819641,384.287842 639.813416,381.012360 
	C628.126404,342.970093 616.164856,305.011047 604.696960,266.903229 
	C599.794922,250.613571 598.696655,233.526535 595.686157,216.834686 
	C593.690613,205.769745 591.924133,194.652557 588.764954,182.499191 
	C585.364746,195.112534 583.394409,206.705307 581.399963,218.284348 
	C579.606445,228.696838 579.647583,239.133789 581.246399,249.601135 
	C582.034485,254.760971 583.430664,259.603729 585.784851,264.293915 
	C604.779114,302.136322 620.192078,341.531525 636.233765,380.661285 
	C654.676208,425.647064 672.778137,470.774536 692.967163,515.032715 
	C710.317261,553.067078 727.575073,591.133423 746.393005,628.477173 
	C758.671509,652.843689 770.340576,677.518982 782.741150,701.822021 
	C799.694458,735.047546 817.060059,768.062988 834.295776,801.144104 
	C842.758423,817.386719 851.063721,833.721069 859.981812,849.711853 
	C863.360168,855.769470 862.793457,860.159607 856.762878,866.066284 
	C849.262817,873.412231 839.316528,875.440735 829.445374,877.232910 
	C822.899414,878.421387 816.275574,879.157349 809.858398,881.034180 
	C802.852234,883.083252 798.551514,886.666870 797.995728,894.911743 
	C797.369324,904.204041 790.208069,909.162170 782.352539,912.799316 
	C771.280334,917.925964 759.341553,917.688904 747.544250,918.116272 
	C740.735718,918.362976 733.900635,917.770142 727.239441,919.957214 
	C719.993835,922.336060 715.191345,926.696289 713.814819,934.497681 
	C711.893311,945.388184 708.065063,949.126770 697.136536,951.324219 
	C690.355286,952.687805 683.554871,952.117371 676.728210,951.787354 
	C664.951538,951.217834 653.221802,949.049561 641.357422,951.010498 
	C636.792419,951.765076 632.990051,953.649048 630.401794,957.301086 
	C621.629333,969.679260 608.697449,973.079712 594.692322,974.215881 
	C581.840210,975.258545 569.569641,972.070007 557.325500,968.796143 
	C548.164429,966.346741 539.067444,963.815125 529.525208,962.911682 
	C516.011719,961.632263 503.448639,964.847717 491.022339,969.478699 
	C480.684875,973.331299 470.188202,976.494873 458.976746,976.393494 
	C446.411469,976.279785 435.723236,972.515991 428.750366,961.260498 
	C422.954803,951.905396 413.431366,950.525208 403.816376,950.403015 
	C389.666473,950.223145 375.507446,950.853821 361.350922,951.016113 
	C358.371094,951.050232 355.379425,950.605408 352.403076,950.288940 
	C343.079895,949.297424 336.396149,945.231934 332.748230,935.896790 
	C327.349976,922.082336 314.545227,919.613037 301.853882,917.376831 
	C290.670349,915.406250 279.280640,915.738098 268.058197,914.262451 
	C259.244110,913.103516 250.749710,910.706055 242.852432,906.609863 
	C237.570740,903.870422 234.190552,899.737854 233.630600,893.328552 
	C232.914856,885.136230 227.748215,879.817017 220.822327,876.003906 
	C214.506760,872.526672 207.631790,870.467163 200.867706,868.118958 
	C192.345978,865.160583 183.936722,861.916504 176.833099,856.147766 
	C169.367691,850.085022 168.721207,846.673340 173.212280,838.171875 
	C185.585587,814.749512 198.035065,791.367249 210.351593,767.915161 
	C218.554581,752.295715 226.602036,736.594360 234.681931,720.910461 
	C248.473038,694.140442 262.447296,667.462036 275.964874,640.554321 
	C303.933258,584.881348 331.945557,529.226379 358.275330,472.332336 
M578.226318,607.098999 
	C576.940063,596.881592 575.706116,586.657288 574.356812,576.448181 
	C571.483215,554.706909 568.460632,532.984924 565.664246,511.233795 
	C562.487793,486.526031 559.553162,461.787231 556.400879,437.076324 
	C552.912720,409.732025 549.253845,382.409515 545.749268,355.067291 
	C542.263428,327.871246 538.935364,300.654846 535.412415,273.463684 
	C534.294373,264.834259 534.104797,265.113617 525.409546,264.948517 
	C520.583008,264.856812 519.110657,266.489990 519.213074,271.275543 
	C519.644226,291.426941 519.595032,311.587189 519.791443,331.743164 
	C520.489502,403.380676 520.726990,475.021851 521.928101,546.655762 
	C522.793945,598.293579 523.196472,649.939087 524.013306,701.577881 
	C524.569397,736.728821 524.148560,771.881653 524.859802,807.036316 
	C525.783203,852.675110 525.913940,898.331055 526.147522,943.980835 
	C526.171204,948.603882 527.880554,950.278625 532.032227,950.541626 
	C539.562378,951.018616 546.767883,953.013916 553.918274,955.274414 
	C566.022522,959.100952 578.256592,962.297668 591.110840,961.648438 
	C603.424683,961.026550 614.718201,957.687561 623.722717,948.673279 
	C625.398621,946.995544 626.953064,945.295227 626.528259,942.612244 
	C624.373596,929.002625 622.241943,915.389404 620.112366,901.775818 
	C617.267944,883.592407 614.348206,865.420227 611.617920,847.219666 
	C609.007080,829.815674 606.627625,812.377075 604.091370,794.961731 
	C601.242249,775.397827 598.222900,755.858093 595.478516,736.279663 
	C592.876587,717.718201 590.542114,699.119202 588.076416,680.538513 
	C584.866089,656.347656 581.642395,632.158447 578.226318,607.098999 
M412.466217,420.858948 
	C385.504059,498.738464 359.084900,576.806274 330.981537,654.289001 
	C311.448944,708.141602 291.485443,761.828918 270.464874,815.118408 
	C261.604248,837.581055 252.568207,859.976379 243.366516,882.301147 
	C241.550659,886.706665 242.574417,889.544739 246.033264,892.233765 
	C249.935425,895.267395 254.398300,897.058472 259.073212,898.342957 
	C269.727844,901.270325 280.720795,901.712219 291.647827,902.750610 
	C310.202484,904.513916 329.285400,905.310730 340.511658,924.000610 
	C342.857727,922.443909 342.729065,920.040039 343.229279,918.050110 
	C359.889801,851.776733 374.651215,785.068481 388.712219,718.204163 
	C398.359741,672.327515 407.841370,626.415466 417.251770,580.489502 
	C424.526184,544.987854 431.647797,509.454407 438.707306,473.909241 
	C449.198822,421.083588 459.578064,368.235626 469.999359,315.396057 
	C473.087402,299.738647 476.171265,284.080383 479.215790,268.414490 
	C479.612122,266.375092 480.551025,264.169067 477.669342,262.872375 
	C471.186615,259.955292 467.536743,261.500366 465.261963,268.095703 
	C447.780334,318.780609 430.267822,369.454895 412.466217,420.858948 
M497.359039,289.556824 
	C496.350311,300.654999 495.360016,311.754913 494.328522,322.850983 
	C492.834930,338.918213 491.333374,354.984772 489.795258,371.047760 
	C488.003784,389.756195 486.084930,408.452789 484.377411,427.168762 
	C482.745209,445.059448 481.364746,462.972900 479.778412,480.867920 
	C478.354279,496.932526 476.786163,512.984314 475.308380,529.044250 
	C473.876190,544.608582 472.485229,560.176697 471.063568,575.742004 
	C469.490753,592.961853 467.910034,610.181091 466.320587,627.399414 
	C465.113342,640.477356 463.886658,653.553528 462.669403,666.630554 
	C461.221863,682.181702 459.759003,697.731567 458.333588,713.284729 
	C457.317719,724.369385 456.452454,735.468628 455.341278,746.543457 
	C453.750305,762.400330 451.998047,778.241150 450.311371,794.088440 
	C448.851562,807.804199 447.480011,821.530273 445.900177,835.232239 
	C444.149719,850.413757 442.064789,865.557312 440.385284,880.746155 
	C438.413391,898.579102 436.514984,916.424744 433.555939,934.120667 
	C431.054199,949.081848 433.253357,954.977234 444.475616,960.501587 
	C446.261353,961.380676 448.141266,962.111938 450.041595,962.707336 
	C459.272034,965.599609 468.498077,964.632019 477.582306,962.153809 
	C491.991028,958.222961 505.448364,950.991211 520.656311,949.792358 
	C524.069458,949.523315 523.669189,946.771545 523.636536,944.478088 
	C523.465820,932.484558 523.148621,920.492493 523.053894,908.498596 
	C522.628662,854.677734 522.103210,800.860291 521.115479,747.044189 
	C520.072815,690.231567 519.846558,633.404480 519.019226,576.587219 
	C518.478210,539.428589 519.131042,502.264526 518.073914,465.107391 
	C517.130920,431.958832 517.869568,398.789276 517.129272,365.627930 
	C516.478394,336.473816 516.850159,307.297852 516.642151,278.132446 
	C516.529236,262.293121 519.253235,265.707031 502.952026,264.876648 
	C502.785645,264.868134 502.618134,264.874176 502.452484,264.858856 
	C500.312714,264.661224 499.546173,265.721588 499.370117,267.777222 
	C498.774353,274.733795 498.038940,281.678406 497.359039,289.556824 
M403.182861,663.449036 
	C399.623260,680.027039 395.914032,696.574585 392.535492,713.189392 
	C385.677673,746.914062 378.212158,780.504028 370.615051,814.067139 
	C361.985107,852.193542 353.171234,890.276306 343.236328,928.086670 
	C342.340485,931.496094 343.429993,933.107056 346.161743,934.382507 
	C350.431641,936.376160 354.895813,937.466919 359.629211,937.744446 
	C373.461670,938.555542 387.286987,937.409485 401.112518,937.738159 
	C408.641357,937.917053 416.008057,939.020142 422.965057,942.175110 
	C424.852142,943.030884 426.229401,945.102295 429.146576,944.685547 
	C431.151093,937.736755 431.720673,930.458191 432.641144,923.265259 
	C434.579681,908.116577 436.359192,892.947388 438.166901,877.782227 
	C440.350342,859.465210 442.603729,841.155518 444.623871,822.820374 
	C446.316956,807.453735 447.732697,792.056396 449.244995,776.670044 
	C450.740234,761.456787 452.212860,746.241272 453.676270,731.024902 
	C455.140808,715.796692 456.584534,700.566406 458.032166,685.336609 
	C459.904083,665.643311 461.810974,645.953308 463.627197,626.254883 
	C465.107513,610.199646 466.426544,594.129639 467.908997,578.074646 
	C469.437531,561.520630 471.117798,544.980713 472.656647,528.427612 
	C474.165009,512.202026 475.552277,495.965210 477.041901,479.737823 
	C478.546539,463.346649 480.155853,446.965027 481.637665,430.571869 
	C483.119476,414.178253 484.403992,397.766449 485.950531,381.379181 
	C487.746643,362.347412 489.794159,343.339447 491.620483,324.310394 
	C493.320221,306.600250 494.927856,288.880676 496.431458,271.152985 
	C496.659515,268.463898 498.039398,264.979828 493.189728,264.250275 
	C484.118317,262.885651 482.819977,263.223572 481.730682,268.828461 
	C477.734222,289.391174 473.884521,309.982544 469.853363,330.538361 
	C459.903168,381.276581 450.019073,432.028351 439.856049,482.724091 
	C427.829193,542.716858 415.537476,602.656616 403.182861,663.449036 
M610.924438,823.824463 
	C616.829529,862.965576 622.734619,902.106689 628.814331,942.405457 
	C639.351746,935.033142 650.333801,936.561035 661.045532,936.740784 
	C667.181702,936.843689 673.295654,937.899536 679.434631,938.291504 
	C686.807495,938.762146 694.118103,938.430603 700.754883,934.604919 
	C706.659790,931.201172 708.400085,927.114746 706.861084,920.426208 
	C706.265442,917.837463 705.426697,915.305420 704.790588,912.724915 
	C693.356934,866.345764 680.983398,820.202148 670.062866,773.693726 
	C661.166321,735.805176 651.853577,698.013123 643.149963,660.080872 
	C630.020447,602.859314 617.279541,545.548584 604.338440,488.283722 
	C592.132080,434.270172 579.918335,380.258240 567.628540,326.263611 
	C563.198914,306.802246 558.550354,287.390625 553.963257,267.965363 
	C553.564026,266.274628 553.660522,263.611389 551.287048,263.763153 
	C546.436707,264.073181 541.434998,263.647369 536.719055,265.075470 
	C538.086731,275.389465 539.391174,285.090057 540.656494,294.795776 
	C543.553528,317.017517 546.486267,339.234772 549.300842,361.466980 
	C551.804199,381.240570 554.116577,401.038269 556.609009,420.813293 
	C558.789673,438.114319 561.095764,455.399597 563.360352,472.690002 
	C565.925598,492.276001 568.497986,511.861053 571.082764,531.444519 
	C573.473083,549.555481 575.895508,567.662231 578.282898,585.773621 
	C581.210266,607.980652 584.085327,630.194519 587.040649,652.397766 
	C589.360046,669.823792 592.120056,687.201111 594.330444,704.625366 
	C596.374512,720.738892 598.712952,736.812317 600.831726,752.913513 
	C603.908081,776.291321 607.381958,799.616943 610.924438,823.824463 
M670.658142,764.933655 
	C682.931458,815.605591 695.559265,866.187256 709.036316,918.086060 
	C714.327576,909.062927 722.147766,906.924866 730.320740,905.768433 
	C737.080688,904.812073 743.921509,904.543701 750.757996,904.714050 
	C757.624207,904.885071 764.383911,903.970581 771.072449,902.616577 
	C777.209473,901.374146 782.819641,898.890137 787.246033,894.261414 
	C791.389099,889.929016 792.925903,885.306030 790.215637,879.322021 
	C785.820190,869.617432 781.926636,859.682312 777.934875,849.798584 
	C748.990173,778.130737 721.969910,705.725403 696.080444,632.914185 
	C670.696228,561.524170 646.354980,489.763855 621.411438,418.216431 
	C603.757446,367.578247 585.770935,317.055786 568.198730,266.389496 
	C566.154297,260.494781 562.480957,262.740967 559.029785,263.140167 
	C554.992065,263.607208 556.271973,266.665863 556.813171,268.927338 
	C572.129761,332.934174 586.142883,397.237518 600.694336,461.418457 
	C614.401794,521.877014 628.190247,582.317566 642.097290,642.730530 
	C651.419617,683.227173 661.010986,723.661926 670.658142,764.933655 
M291.216370,618.671387 
	C285.265686,630.407349 279.268707,642.120178 273.372223,653.883240 
	C243.884583,712.709106 213.101013,770.860229 182.225800,828.963196 
	C176.712311,839.338928 176.959381,840.729614 186.980515,847.358276 
	C191.028122,850.035706 195.396301,852.102600 199.931717,853.799133 
	C205.079010,855.724548 210.271454,857.529053 215.420822,859.449036 
	C226.253235,863.488037 236.403091,868.373047 240.627258,881.510742 
	C242.274414,877.878601 243.582336,875.238647 244.689651,872.517151 
	C272.746735,803.558960 299.091400,733.940796 324.605133,664.010803 
	C347.717987,600.661194 369.632141,536.886047 391.630402,473.141907 
	C415.532776,403.880371 439.577454,334.667908 463.534180,265.425140 
	C464.080444,263.846283 465.741516,261.860443 463.170868,260.693268 
	C460.621094,259.535522 458.731903,260.620972 457.556915,263.178131 
	C454.983795,268.778015 452.240784,274.300629 449.712219,279.920044 
	C432.010773,319.259766 414.415619,358.647369 396.655090,397.960327 
	C363.182098,472.052765 327.702087,545.188416 291.216370,618.671387 
M767.233032,679.136108 
	C763.990356,672.562195 760.775269,665.974487 757.500793,659.416504 
	C724.378418,593.079773 692.880554,525.987061 664.300537,457.559784 
	C646.390686,414.679260 629.038757,371.566010 611.245117,328.636536 
	C602.123169,306.628876 592.325134,284.911835 581.667236,263.594574 
	C580.649353,261.558655 580.086182,259.438721 576.708313,259.929993 
	C569.280212,261.010406 568.814148,261.529572 571.336182,268.606964 
	C584.582825,305.780701 598.000305,342.895081 610.989746,380.158569 
	C631.706482,439.589478 651.999573,499.168121 672.721313,558.597290 
	C691.360718,612.054321 710.533569,665.321228 730.243652,718.396729 
	C749.320801,769.768005 769.007507,820.896912 789.686279,871.643555 
	C790.583069,873.844299 791.216003,876.269104 793.299927,878.255920 
	C796.631287,872.864624 801.539978,870.530823 807.045105,869.313843 
	C813.046631,867.987122 819.098206,866.887146 825.125732,865.677490 
	C834.471985,863.801819 843.714722,861.778687 850.913330,854.724487 
	C854.625854,851.086487 855.322937,847.686829 852.706726,842.816284 
	C823.696411,788.809509 795.182312,734.540833 767.233032,679.136108 
M466.514526,165.772888 
	C465.225372,160.209549 465.262695,158.554611 466.920227,155.401733 
	C468.339691,163.524246 469.869873,171.299652 472.203552,178.933182 
	C473.675781,183.748886 476.284271,185.140366 480.942444,184.648117 
	C483.906860,184.334869 486.983917,183.066025 491.180328,184.929169 
	C485.525848,187.485001 480.065155,185.305054 475.364166,187.695129 
	C475.502075,188.948380 475.521912,190.108994 475.768402,191.219299 
	C478.624908,204.085434 479.780121,217.163666 480.176605,230.285263 
	C480.300293,234.378265 481.500000,235.638794 485.530518,235.956985 
	C508.155396,237.742996 530.744629,237.894089 553.360535,235.789078 
	C557.213623,235.430450 557.886414,233.770035 557.937744,230.361572 
	C558.128052,217.723969 558.677002,205.066467 561.025330,192.634659 
	C561.849915,188.269180 560.774292,187.077057 556.703552,186.588211 
	C553.277466,186.176788 549.464905,187.332611 545.804077,184.630676 
	C550.137207,182.775009 553.825073,184.809372 557.523376,184.741028 
	C561.057068,184.675705 563.059143,183.682922 564.027893,180.102417 
	C565.415527,174.973129 566.993408,169.925064 567.996643,164.670227 
	C568.595459,161.533478 567.598267,157.855545 570.822632,154.007965 
	C571.701294,165.225800 567.764343,174.464157 565.572754,184.094391 
	C580.993652,182.960663 585.495911,179.443069 589.769470,165.596970 
	C592.561707,156.550385 593.494629,147.391266 591.655334,138.001770 
	C590.524719,132.229813 590.283081,126.721603 591.230713,120.541122 
	C594.127014,101.652229 596.355774,82.680511 601.591064,64.237404 
	C602.577515,60.762321 601.531250,59.146179 598.141602,58.036613 
	C590.709717,55.603844 583.301453,53.036175 576.078552,50.051777 
	C572.044495,48.384979 569.775085,48.878181 567.955688,53.026070 
	C566.848572,55.550274 564.900574,57.792023 563.014526,59.874783 
	C544.773132,80.019272 514.696899,85.504005 489.785034,73.637199 
	C479.390686,68.685829 471.690613,60.785294 464.438080,52.261406 
	C462.864441,50.411922 461.546051,49.519524 458.955414,50.586628 
	C451.723694,53.565475 444.395599,56.322552 437.034271,58.968937 
	C433.935150,60.083073 432.988037,61.575920 433.886292,64.954033 
	C437.556793,78.758163 440.985596,92.640793 442.915619,106.812531 
	C444.445038,118.042404 447.476288,128.977203 444.730560,140.765671 
	C442.287476,151.254883 444.452454,161.966675 449.565491,171.767395 
	C454.253784,180.753952 461.174316,184.550415 471.189362,183.422577 
	C469.816071,177.761932 467.410156,172.400406 466.514526,165.772888 
M596.608459,204.507538 
	C599.046143,217.049561 601.087402,229.654251 602.847473,242.310776 
	C605.984192,264.866882 613.860962,286.157959 620.552734,307.760651 
	C627.694885,330.817566 634.969604,353.834076 641.969543,376.933960 
	C643.166382,380.883759 645.044861,382.277435 649.096191,381.853180 
	C656.157471,381.113739 662.742310,378.970306 669.148193,376.067413 
	C671.340088,375.074158 671.998840,373.509033 671.415100,371.211792 
	C669.458069,363.510895 667.368225,355.837189 665.665161,348.079376 
	C658.853394,317.050629 652.347229,285.953583 645.344116,254.968582 
	C642.695496,243.250153 637.934204,231.943146 635.994019,220.143112 
	C630.139038,184.533234 626.588867,148.620667 623.561707,112.655716 
	C622.602112,101.255257 621.670837,89.740189 617.628662,78.844215 
	C615.115784,72.070335 611.518372,66.069000 604.902344,61.760849 
	C604.383484,63.169975 603.960327,64.055145 603.728760,64.987877 
	C600.199707,79.200089 597.066895,93.511169 595.467712,108.069672 
	C594.441345,117.413193 591.913391,126.684845 594.283508,136.288162 
	C597.202637,148.116013 595.583923,159.750992 591.504761,171.104614 
	C590.584717,173.665405 590.481934,176.106232 591.150818,178.871048 
	C593.143433,187.107468 594.724060,195.443588 596.608459,204.507538 
M414.650177,102.066101 
	C412.266418,136.241440 410.347595,170.459793 405.313690,204.392487 
	C404.030151,213.044754 403.588776,221.962662 401.106659,230.264038 
	C397.197754,243.337265 393.277161,256.412537 390.468475,269.733612 
	C383.272125,303.864502 377.247192,338.243042 368.741791,372.095825 
	C368.210388,374.210999 369.094025,375.277313 370.731964,376.062347 
	C377.850006,379.473572 385.188385,382.016693 393.241608,381.860107 
	C395.871338,381.808929 397.335144,380.847778 397.079315,377.632782 
	C393.734344,376.942688 390.360352,376.242584 386.984528,375.551361 
	C383.628082,374.864075 380.081543,374.749603 377.320923,372.154907 
	C382.040375,372.766602 386.655914,373.845673 391.311218,374.710876 
	C397.972992,375.949036 398.718109,375.397552 400.548553,369.108002 
	C404.408783,355.843872 408.311157,342.592041 412.208313,329.338684 
	C419.625092,304.115662 428.907867,279.390991 434.013153,253.553299 
	C438.523804,230.725052 441.724091,207.640518 445.804504,184.722839 
	C446.892700,178.611160 446.729858,173.052155 444.297150,167.221878 
	C440.642151,158.462387 439.797729,149.237015 441.401031,139.770096 
	C442.341492,134.217163 443.435303,128.657974 442.748718,122.912987 
	C440.415619,103.389816 436.436218,84.199989 431.361328,65.224136 
	C431.212311,64.666924 430.604675,64.232361 429.989929,63.464729 
	C423.803650,67.573074 420.752716,73.550598 418.628235,80.087036 
	C416.405243,86.926575 415.657928,94.064362 414.650177,102.066101 
M529.712708,261.716644 
	C538.093079,262.498749 545.965027,258.159790 553.980469,258.589691 
	C559.725159,258.897797 565.183105,257.716858 570.809937,257.834076 
	C578.248657,257.989044 578.672729,257.115265 577.769531,249.939789 
	C577.561584,248.288498 577.511108,246.599518 577.119690,244.993332 
	C576.493286,242.422516 577.722290,239.336456 575.819153,237.272781 
	C573.223877,234.458542 571.122070,238.384277 568.641663,238.377167 
	C568.313416,238.376221 567.966187,238.173172 567.659973,238.231873 
	C554.093079,240.831879 540.406860,241.324890 526.625793,240.978470 
	C517.377014,240.745972 508.109619,240.973068 498.854187,241.183868 
	C491.287750,241.356201 483.375702,241.010773 475.777893,238.856125 
	C472.507416,237.928665 468.850861,238.361557 465.369598,238.178589 
	C463.057709,238.057068 462.079712,239.354431 461.834564,241.470718 
	C461.432892,244.937897 461.121246,248.420837 460.561127,251.862869 
	C459.966431,255.517563 461.049774,257.247040 465.006958,257.948792 
	C473.236420,259.408173 481.779968,258.249329 489.680145,259.707977 
	C502.786865,262.127930 515.951416,258.361664 529.712708,261.716644 
M458.597076,234.590851 
	C457.354797,218.323029 453.772217,202.517303 449.288055,185.989944 
	C441.464905,217.827164 440.138000,249.973862 430.660889,280.593109 
	C421.244415,311.016449 411.321564,341.312683 403.756683,372.295715 
	C406.459686,367.790588 408.611633,363.114197 410.709045,358.413422 
	C424.076233,328.454590 436.921661,298.246887 451.058472,268.656006 
	C456.219269,257.853485 458.159912,247.023132 458.597076,234.590851 
M526.979065,75.681465 
	C542.502808,72.950073 555.431763,66.103630 564.044861,52.213554 
	C549.023743,58.022690 533.714050,62.469875 517.547302,62.043495 
	C501.508057,61.620472 485.737091,59.248810 470.933197,52.121792 
	C472.822449,56.770836 475.795227,60.089569 479.251587,62.973396 
	C492.901550,74.362297 508.829041,77.476898 526.979065,75.681465 
M461.882996,231.471298 
	C465.038635,235.609756 469.881073,233.426376 473.838959,234.597000 
	C476.590393,235.410782 477.722137,233.778473 477.690277,231.024780 
	C477.530212,217.203430 476.134277,203.522705 473.166992,190.015686 
	C472.763367,188.178360 472.125641,186.525436 469.753723,186.365921 
	C463.540955,185.948090 457.717285,184.190918 451.648926,180.235123 
	C455.517303,197.561859 460.052338,213.845627 461.882996,231.471298 
M561.172852,212.433502 
	C560.902100,216.246445 560.442200,220.057053 560.394653,223.872772 
	C560.226074,237.390808 559.519714,234.543823 571.695129,233.585144 
	C574.945923,233.329163 576.589844,231.805344 576.880127,228.208511 
	C577.373352,222.098175 578.290649,216.000458 579.405151,209.966782 
	C581.220032,200.141479 583.337463,190.372040 585.477722,179.838089 
	C580.408142,184.001968 575.204956,185.917816 569.704834,186.155960 
	C565.311646,186.346176 563.980225,188.563828 563.349426,192.213486 
	C562.246277,198.596420 561.230591,204.982452 561.172852,212.433502 
M335.503510,932.862244 
	C336.377960,933.932373 336.318420,935.716980 337.989227,936.257019 
	C340.554077,931.751953 339.721436,927.707703 337.099457,923.579529 
	C332.593262,916.484558 326.197906,912.064026 318.357452,909.479675 
	C306.854858,905.688171 294.813507,905.587280 282.943878,904.381226 
	C268.054901,902.868347 253.011002,902.027466 240.961121,891.526184 
	C237.234360,895.830017 237.498276,898.600464 242.116974,901.844727 
	C248.819839,906.552917 256.614624,908.374573 264.525879,909.676758 
	C278.789398,912.024597 293.351624,911.897461 307.553802,914.771423 
	C318.977631,917.083069 329.335175,921.124878 335.503510,932.862244 
M581.902832,963.956421 
	C572.236023,963.068237 562.946350,960.542969 553.716309,957.657410 
	C546.251831,955.323853 538.659058,953.435913 530.871277,952.493103 
	C528.836548,952.246887 526.693298,952.090942 526.329956,954.968567 
	C526.062744,957.085388 526.676147,958.468750 529.143250,958.712341 
	C541.319336,959.914429 552.800293,964.095215 564.573853,967.039124 
	C577.063843,970.162109 589.684631,972.303284 602.580933,969.657349 
	C611.034485,967.922852 618.966309,965.029358 624.836670,958.263367 
	C626.879883,955.908630 628.841309,953.361633 626.684875,949.473694 
	C614.347046,961.889832 599.127502,964.670471 581.902832,963.956421 
M683.554565,948.648071 
	C688.072266,948.878723 692.545471,948.382812 696.971069,947.593811 
	C707.276367,945.756714 711.179443,940.221680 709.040039,930.184204 
	C703.484436,937.908203 695.697205,940.056580 686.843628,940.508789 
	C676.632751,941.030334 666.625183,939.346497 656.526550,938.676208 
	C648.108643,938.117554 639.848755,938.355286 632.532715,943.339966 
	C629.753113,945.233887 628.106750,947.447632 631.582947,950.780396 
	C637.987244,947.071472 645.001404,946.496704 652.252502,946.559875 
	C662.427734,946.648560 672.468933,948.334351 683.554565,948.648071 
M793.285400,890.360962 
	C786.371338,901.907104 775.027039,904.799988 762.782593,906.391479 
	C751.704285,907.831360 740.496033,906.451050 729.471252,908.335205 
	C721.284485,909.734253 713.963074,912.414001 711.000000,921.284729 
	C710.416504,923.031677 709.933838,924.757629 712.333435,926.246216 
	C719.823242,915.840454 730.828003,914.913147 742.203491,914.659180 
	C752.986572,914.418396 763.812988,914.435852 774.396545,911.772827 
	C781.370605,910.017883 787.457092,906.819702 791.916260,901.053162 
	C794.416016,897.820618 796.018616,894.278748 793.285400,890.360962 
M364.569580,940.349976 
	C356.669495,940.607361 349.160889,938.847534 342.128845,935.432861 
	C339.300049,941.121338 339.904846,943.160767 345.349182,944.834106 
	C354.524963,947.654236 363.973450,947.971191 373.523285,947.357239 
	C386.483887,946.524048 399.457062,946.023865 412.421448,947.554016 
	C418.069794,948.220581 422.937073,951.024841 427.983246,953.446594 
	C429.512939,950.015747 428.021667,948.286621 425.744568,946.753235 
	C419.018555,942.223877 411.484253,940.433777 403.526978,940.365540 
	C390.869476,940.256958 378.210266,940.349365 364.569580,940.349976 
M522.497070,952.843140 
	C520.546875,952.050964 518.606323,952.458252 516.623840,952.774292 
	C506.036224,954.462219 496.271027,958.784668 486.165253,962.047424 
	C467.128479,968.193604 448.368896,971.006714 432.501038,954.353638 
	C432.345581,954.190430 431.898956,954.304626 431.539337,954.286865 
	C429.860901,956.253235 430.924713,958.061462 432.024719,959.708618 
	C436.048584,965.733582 441.383606,970.041138 448.582275,971.651428 
	C459.267395,974.041687 469.728241,972.692139 480.010223,969.425903 
	C493.428345,965.163330 506.341736,959.100891 520.776794,958.539612 
	C524.229919,958.405334 523.901794,955.807190 522.497070,952.843140 
M229.606339,877.870178 
	C232.988159,880.858093 234.712067,885.063293 237.329315,889.061401 
	C239.555649,886.253601 238.851624,883.683105 238.037796,881.210571 
	C236.547195,876.681824 233.916000,872.931335 230.189606,869.884338 
	C223.709625,864.586060 215.881729,862.141602 208.205002,859.468262 
	C196.677094,855.453674 185.300934,851.287781 176.739609,841.976318 
	C176.592712,841.816589 176.120148,841.956360 175.766266,841.956360 
	C172.072113,845.474854 173.885696,848.490845 176.787811,851.252380 
	C183.204239,857.358276 191.132248,860.771790 199.312469,863.738892 
	C209.603226,867.471375 220.386322,870.146423 229.606339,877.870178 
M798.683472,882.989685 
	C803.942017,878.001587 810.802917,877.133789 817.444092,875.760071 
	C824.419983,874.317200 831.504822,873.322144 838.390442,871.544250 
	C845.183899,869.790039 851.701904,867.076172 856.179993,861.231445 
	C858.289062,858.478760 860.119690,855.436584 856.867615,852.036987 
	C845.142334,863.375977 840.327942,865.632019 823.491333,868.417358 
	C817.285400,869.443970 811.001160,870.242554 805.035217,872.401123 
	C800.507507,874.039246 796.751953,876.626526 794.895264,881.317993 
	C794.376282,882.629272 794.235107,884.088196 795.539978,884.929138 
	C796.984680,885.860229 797.436707,884.183960 798.683472,882.989685 
z"/>
<path fill="#000000" opacity="1.000000" stroke="none" 
	d="
M118.826584,191.714935 
	C119.087944,197.300751 119.266121,202.461823 119.374481,207.624344 
	C119.415726,209.589096 119.652748,211.235550 122.034294,211.741516 
	C126.699913,212.732742 129.123962,216.495056 131.603622,220.004181 
	C133.732437,223.016769 133.238708,226.065491 130.471771,228.489227 
	C128.939560,229.831375 127.535439,231.099243 126.913887,233.150635 
	C126.277542,235.250885 124.580078,235.809586 122.536804,235.517090 
	C120.526283,235.229263 119.233429,234.294891 118.844002,232.107361 
	C117.991562,227.318985 117.800690,222.499374 117.952736,217.664749 
	C118.051353,214.529022 116.814667,213.072266 113.558434,213.158875 
	C109.396370,213.269577 105.225609,213.184631 101.061989,213.065292 
	C97.432358,212.961243 95.937744,214.662949 96.054497,218.220383 
	C96.191101,222.382904 96.215157,226.552963 96.142456,230.717209 
	C96.090004,233.722366 97.478622,234.866135 100.387878,234.864777 
	C105.049797,234.862595 109.716888,234.965836 114.371719,235.213654 
	C116.840553,235.345093 118.943207,236.190292 119.067421,239.287064 
	C119.433060,248.402588 119.004852,257.565430 120.666428,266.609344 
	C120.773033,267.189606 120.525177,267.921051 119.732712,268.133972 
	C117.658684,260.185364 117.658684,260.185364 108.501808,260.194885 
	C96.024040,260.207855 96.024132,260.207855 96.086456,272.580750 
	C96.091492,273.580719 96.212318,274.596924 96.077766,275.577911 
	C95.414299,280.415070 97.396233,282.820343 102.360123,282.742493 
	C103.469978,282.725067 104.716408,282.641144 105.837799,283.911041 
	C103.532021,287.789215 99.491341,287.905029 95.364128,288.806976 
	C95.277733,283.498657 92.026924,282.931763 87.868118,283.249939 
	C84.055099,283.541687 80.197289,283.217834 76.376945,283.453186 
	C73.243942,283.646179 71.736237,282.769775 71.847137,279.329102 
	C72.024200,273.836121 71.922615,268.330658 71.809662,262.833130 
	C71.739250,259.406036 73.321846,257.950134 76.660431,258.110443 
	C80.652405,258.302094 84.651054,258.371796 88.639572,258.613678 
	C92.923851,258.873444 94.798691,256.849945 94.679390,252.675034 
	C94.584229,249.345032 94.482285,246.012527 94.512131,242.682281 
	C94.553993,238.010818 92.226799,236.123947 87.680984,236.292557 
	C83.854156,236.434479 80.014801,236.203262 76.183716,236.277710 
	C73.519524,236.329453 72.302193,235.504883 72.329666,232.530548 
	C72.380318,227.046936 72.093773,221.552246 71.739731,216.075623 
	C71.493393,212.265244 73.343254,210.990585 76.802940,211.133255 
	C80.961349,211.304749 85.128685,211.327774 89.278847,211.610336 
	C92.731079,211.845413 94.124092,210.083511 94.431496,206.971085 
	C94.464233,206.639648 94.545563,206.309845 94.547485,205.978958 
	C94.651604,188.053833 95.937836,189.447067 78.809868,189.395828 
	C72.110596,189.375793 72.100342,189.592133 71.990685,182.866852 
	C71.911888,178.034714 71.926979,173.200134 71.778275,168.370407 
	C71.679787,165.171310 73.094269,163.781128 76.265862,163.921692 
	C80.592888,164.113449 84.944733,163.993057 89.247307,164.407547 
	C92.487625,164.719696 93.997032,163.611130 94.070137,160.419754 
	C94.073929,160.254120 94.108032,160.088745 94.133530,159.924088 
	C96.542305,144.367813 95.430908,143.019196 80.164139,142.955566 
	C78.664337,142.949310 77.164192,142.880585 75.665001,142.900421 
	C72.934105,142.936539 71.789925,141.613159 71.822258,138.898483 
	C71.889732,133.233017 71.881226,127.564972 71.787811,121.899902 
	C71.731262,118.470345 73.527222,116.985306 76.687988,117.018044 
	C80.848351,117.061119 85.025665,117.114830 89.159874,117.524979 
	C92.596825,117.865959 94.310425,116.474594 94.433273,113.215675 
	C94.602631,108.723419 94.595398,104.221695 94.549667,99.725182 
	C94.522156,97.019730 93.101265,95.519661 90.339928,95.032776 
	C87.551506,94.541122 84.804993,93.985756 81.947617,93.872650 
	C75.717773,93.626053 73.049332,90.486954 73.760620,84.305206 
	C74.088341,81.457062 72.813980,77.629639 76.225937,76.203499 
	C81.499344,73.999306 86.436127,70.398987 92.625404,71.054680 
	C95.287140,71.336655 95.660881,73.490128 95.760147,75.471489 
	C95.985062,79.960899 96.090263,84.465294 95.999611,88.958664 
	C95.927971,92.509628 97.204956,94.126190 100.957214,94.024292 
	C104.436455,93.929810 107.929886,94.570274 111.419716,94.602753 
	C116.487564,94.649910 118.605629,97.560059 118.977997,102.099678 
	C119.263535,105.580803 119.402863,109.099716 119.239273,112.584549 
	C119.079414,115.989914 120.371956,117.536026 123.700935,118.557228 
	C129.712662,120.401413 135.120789,123.386940 136.566208,130.357758 
	C138.081558,137.665802 134.728592,142.014099 127.244102,142.175568 
	C118.735680,142.359100 119.315262,142.145004 119.320045,150.723267 
	C119.321625,153.556442 119.364120,156.390442 119.308685,159.222534 
	C119.258034,161.810242 119.676086,163.742599 122.214806,165.504456 
	C126.068665,168.179016 126.682304,176.794174 123.925529,180.655365 
	C123.101486,181.809525 122.046799,182.672745 120.579201,182.372803 
	C119.168999,182.084579 119.054466,180.769485 118.919319,179.601868 
	C118.632065,177.120193 118.045456,174.618210 118.173691,172.155396 
	C118.406845,167.677551 116.831284,165.724808 112.130699,166.155640 
	C108.161949,166.519394 104.137466,166.308395 100.137917,166.291153 
	C97.436836,166.279495 96.127922,167.607361 96.123741,170.249939 
	C96.116623,174.748810 96.206551,179.248611 96.141373,183.746368 
	C96.098282,186.719833 97.450348,187.924194 100.383858,187.907684 
	C104.547173,187.884247 108.720848,187.951340 112.872154,188.238770 
	C115.150002,188.396515 117.628464,188.639130 118.826584,191.714935 
M96.053894,125.732468 
	C96.115036,129.392914 96.204781,133.053177 96.228256,136.713867 
	C96.247032,139.641846 97.710724,140.874283 100.583740,140.880005 
	C105.241714,140.889282 109.902161,140.970947 114.556053,141.158585 
	C116.889931,141.252686 117.983398,140.307816 117.977921,138.006760 
	C117.966049,133.014969 117.940536,128.023102 117.957626,123.031395 
	C117.966827,120.342384 116.742393,119.096481 113.996742,119.165520 
	C109.838516,119.270073 105.666107,119.422928 101.519272,119.196770 
	C97.320610,118.967781 95.707169,120.821220 96.053894,125.732468 
z"/>
<path fill="#000000" opacity="1.000000" stroke="none" 
	d="
M82.332458,351.614349 
	C80.688599,352.119476 79.424950,352.561981 78.125046,352.826080 
	C74.498650,353.562805 72.159134,352.340637 72.125092,348.357544 
	C72.012726,335.207855 71.964973,322.057465 71.931763,308.907288 
	C71.924911,306.194122 73.544945,304.982544 76.109695,305.093903 
	C81.092575,305.310272 86.074127,305.586945 91.049377,305.936279 
	C93.640800,306.118256 94.662971,307.773560 94.986176,310.256409 
	C96.089439,318.731750 95.862556,327.199158 94.688675,335.615601 
	C93.656433,343.016479 87.718063,346.953552 82.332458,351.614349 
z"/>
<path fill="#000000" opacity="1.000000" stroke="none" 
	d="
M95.009033,56.737495 
	C95.166107,55.343887 95.313103,54.201405 96.511551,54.052155 
	C99.088066,53.731277 101.432228,54.470161 101.607780,57.379768 
	C101.801651,60.593170 103.657913,64.638321 99.414352,66.575386 
	C97.228539,67.573135 95.610313,65.811813 95.288162,63.550457 
	C94.987183,61.437737 95.069077,59.270473 95.009033,56.737495 
z"/>
<path fill="#000000" opacity="1.000000" stroke="none" 
	d="
M76.754562,24.288076 
	C79.150688,24.705820 79.905396,25.935415 79.363441,27.896484 
	C78.716133,30.238785 77.993164,32.560173 77.204155,35.224277 
	C73.770096,34.130051 73.172867,31.512600 72.987083,28.707920 
	C72.828247,26.309971 73.552818,24.447712 76.754562,24.288076 
z"/>
<path fill="#000000" opacity="1.000000" stroke="none" 
	d="
M621.369324,233.360352 
	C625.897034,231.536285 629.321960,228.187073 634.681213,226.962143 
	C632.201721,231.718430 627.624451,232.271790 624.456604,235.053070 
	C628.083984,236.713272 631.617188,233.402679 635.978333,234.992569 
	C631.033508,239.689316 625.926941,242.751450 618.957642,245.260574 
	C620.877502,241.240707 624.271851,241.154694 626.635925,238.378204 
	C622.347717,238.378204 618.595581,238.378204 614.126343,238.378204 
	C615.936279,234.796814 619.091248,235.065384 621.369324,233.360352 
z"/>
<path fill="#000000" opacity="1.000000" stroke="none" 
	d="
M412.577026,234.968964 
	C414.366791,235.165466 415.777252,235.316025 417.846710,235.536911 
	C413.206696,231.687637 407.690948,230.581009 403.970978,226.677444 
	C403.804474,226.502716 403.907471,226.071167 403.797729,224.553131 
	C411.036133,228.694855 418.135925,231.703140 424.988342,236.601578 
	C420.219879,239.560181 415.992401,237.551025 411.522400,237.377823 
	C412.468353,239.345673 415.469635,239.135040 415.197510,242.237473 
	C410.650330,240.966370 406.908234,239.062363 403.852509,234.176880 
	C407.332733,234.488037 409.765198,234.705521 412.577026,234.968964 
z"/>
</svg>