<svg version="1.1" id="Layer_1" xmlns="http://www.w3.org/2000/svg" xmlns:xlink="http://www.w3.org/1999/xlink" x="0px" y="0px"
	 width="1024" height="1024" viewBox="0 0 1024 1024" enable-background="new 0 0 1024 1024" xml:space="preserve">
<path fill="#000000" opacity="1.000000" stroke="none" 
	d="
M379.745422,128.816193 
	C387.432739,117.900833 399.267426,114.150055 410.410217,109.419868 
	C419.298187,105.646866 428.417053,102.420700 437.346985,98.741928 
	C440.407288,97.481194 442.932953,97.698395 445.831116,99.253372 
	C482.810516,119.094215 521.350037,119.096985 560.699829,108.021904 
	C567.641296,106.068207 573.947083,102.589462 580.250122,99.193062 
	C582.960449,97.732635 585.419983,97.534241 588.325745,98.630981 
	C602.040344,103.807297 615.593628,109.357773 629.063354,115.145889 
	C640.687012,120.140724 647.615906,129.284195 653.101746,140.103256 
	C659.329407,152.385345 661.065247,165.814056 663.228943,179.083084 
	C667.696899,206.483383 671.979370,233.918594 675.897095,261.402313 
	C678.454590,279.343842 680.226990,297.397034 682.371033,315.397827 
	C683.058716,321.171204 683.499451,327.031738 687.344238,331.855591 
	C690.074219,335.280579 689.068726,339.547668 689.910400,343.395691 
	C694.281982,363.381348 698.475342,383.405945 702.840149,403.393097 
	C710.538208,438.643463 718.297302,473.880554 726.087891,509.110596 
	C726.855469,512.581360 726.267578,514.592346 722.398926,515.737244 
	C707.713928,520.083191 692.889221,523.889099 678.094177,527.819763 
	C674.009094,528.905090 673.264465,526.588562 672.420776,523.596863 
	C663.249573,491.075256 653.964661,458.585693 644.829712,426.053925 
	C638.441040,403.302124 630.662964,380.822357 626.590637,357.575836 
	C623.126221,337.800354 620.506042,317.846558 616.665710,298.111176 
	C615.173157,290.441498 613.405640,282.825348 611.561157,274.243774 
	C609.002686,281.846436 608.836426,288.949005 607.826050,295.836975 
	C605.750671,309.985809 603.952209,324.188538 604.002441,338.561554 
	C604.056946,354.133392 608.715576,368.778870 612.956848,383.446838 
	C621.596436,413.325836 631.067993,442.964844 636.835999,473.609070 
	C641.635010,499.105438 645.153564,524.778015 648.437500,550.504578 
	C651.091431,571.295471 652.959473,592.157593 655.019653,613.001221 
	C657.064636,633.691101 658.638916,654.428528 660.309875,675.154053 
	C662.248657,699.201172 664.139160,723.252686 665.910156,747.312683 
	C666.850769,760.092468 667.490051,772.894409 668.272766,785.685913 
	C669.848022,811.430847 671.507141,837.171021 672.973206,862.922119 
	C673.701843,875.721069 674.040222,888.541809 674.645508,901.348450 
	C674.789795,904.401367 672.722717,904.792114 670.569397,905.356934 
	C650.760071,910.553162 630.705017,914.473328 610.441040,917.456299 
	C576.419861,922.464294 542.172180,924.234863 507.864746,923.950439 
	C457.805725,923.535461 408.149200,918.978088 359.468170,906.493164 
	C350.525574,904.199768 350.810059,904.239563 351.432465,895.155518 
	C352.410889,880.875671 352.865295,866.560852 353.703003,852.270264 
	C354.891022,832.003357 356.235718,811.745728 357.494690,791.482971 
	C358.578430,774.040588 359.453979,756.583008 360.746307,739.156250 
	C362.874329,710.459656 365.189697,681.776245 367.567505,653.099060 
	C369.532135,629.405151 371.305115,605.685120 373.875702,582.054199 
	C377.416748,549.502014 381.762238,517.049072 387.060333,484.716980 
	C392.678467,450.431793 403.193390,417.457916 412.834534,384.234985 
	C418.602997,364.357117 423.990662,344.391541 421.628967,323.380127 
	C419.831482,307.388550 417.635498,291.441772 414.507355,275.381012 
	C412.426422,285.160065 410.490356,294.972656 408.234222,304.711090 
	C403.572937,324.831299 401.877075,345.490509 397.484680,365.610016 
	C391.841034,391.460968 383.789948,416.726593 376.631958,442.205078 
	C369.069000,469.124725 361.556702,496.058594 354.018951,522.985352 
	C352.273529,529.220459 352.258942,529.248840 345.839325,527.449646 
	C331.900299,523.543152 317.995270,519.512024 304.021942,515.732971 
	C299.961639,514.634827 298.878052,512.837097 299.881287,508.609924 
	C310.556061,463.630096 319.988647,418.373749 329.680511,373.176147 
	C332.326172,360.838257 335.995575,348.685516 336.849213,335.996246 
	C336.881531,335.515778 337.054840,334.979858 337.331818,334.590210 
	C345.052399,323.728943 343.647217,310.722137 345.482574,298.573547 
	C349.007202,275.242828 351.647675,251.779877 354.811584,228.392975 
	C358.020844,204.671005 362.036346,181.071579 366.730011,157.603928 
	C368.803345,147.237564 373.159210,137.659225 379.745422,128.816193 
M312.241669,503.182861 
	C310.540924,503.182861 308.840210,503.182861 307.164337,503.182861 
	C307.266418,505.225616 310.603394,503.846588 310.235107,506.619690 
	C307.988892,506.634033 304.978851,505.463715 304.521729,509.252930 
	C304.232056,511.654388 306.172394,511.968842 307.668579,512.396912 
	C320.469971,516.059448 333.311432,519.582336 346.103180,523.277649 
	C348.827240,524.064575 350.369537,522.662659 350.313568,520.588989 
	C350.187714,515.924683 352.705078,512.162659 353.859406,507.961761 
	C359.944092,485.818665 366.330994,463.758331 372.368958,441.602783 
	C379.849731,414.153229 389.555969,387.194366 394.276184,359.139221 
	C398.939972,331.419434 403.960938,303.790741 409.915222,276.343872 
	C412.116302,266.197937 412.737183,256.612640 410.017761,246.456757 
	C407.645813,237.598572 408.139343,228.320877 409.472351,219.169266 
	C409.875031,216.404892 409.896057,213.459259 409.421875,210.712326 
	C404.777954,183.812042 398.756500,157.213211 391.481049,130.903107 
	C390.984039,129.105774 391.036316,126.842903 388.843781,125.791382 
	C388.363739,126.026596 387.837891,126.149445 387.507904,126.472397 
	C386.677521,127.285027 385.905365,128.162994 385.162659,129.058563 
	C377.322388,138.512604 372.592834,149.454025 370.296753,161.404404 
	C368.006287,173.325882 366.180237,185.335861 364.067627,197.292374 
	C360.246704,218.917328 357.261505,240.667709 354.338776,262.424286 
	C351.548767,283.192871 349.312622,304.040405 346.211060,324.760132 
	C345.101654,332.171387 341.099335,338.844757 339.542145,346.434448 
	C330.346527,391.253510 320.405609,435.919281 310.818451,480.658722 
	C309.442169,487.081421 307.451599,493.425507 307.014557,500.349365 
	C309.443634,500.844727 311.854767,500.702850 313.001831,502.997192 
	C313.001831,502.997192 312.977875,503.033295 312.241669,503.182861 
M540.810974,145.537643 
	C538.094360,146.320953 535.395203,147.171967 532.658508,147.877319 
	C499.159943,156.510986 464.576508,142.824448 446.375885,113.669212 
	C444.244629,110.255188 442.504364,106.597076 440.328400,102.582657 
	C439.785004,105.184845 441.942108,106.714851 441.013885,109.004364 
	C438.772003,107.283821 439.362793,102.122734 434.320190,104.336197 
	C422.275452,109.623260 410.091431,114.597816 397.905151,119.554657 
	C394.254120,121.039726 393.399475,123.058006 394.663055,126.858246 
	C400.448395,144.257935 403.858765,162.269562 407.954193,180.101242 
	C409.581116,187.185043 410.945435,194.329193 412.637909,202.446304 
	C414.176025,199.504395 413.458252,196.920120 415.807587,195.795013 
	C416.706726,196.819458 416.356445,197.853943 416.243439,198.796829 
	C415.095306,208.377426 413.357391,217.924744 412.864014,227.536789 
	C412.265198,239.202423 413.147186,250.821823 419.241821,261.358948 
	C422.836975,267.574738 427.105011,273.322144 431.246399,279.163330 
	C432.094238,280.359192 433.698273,281.352875 432.899445,283.875854 
	C427.218506,278.525299 423.855530,271.921753 418.462097,266.438232 
	C420.595215,282.549286 422.631805,298.286835 424.775818,314.009674 
	C426.446869,326.264252 427.425537,338.541260 425.329590,350.814972 
	C422.494293,367.418579 418.079498,383.677673 412.832153,399.635162 
	C396.895813,448.098358 388.687775,498.063293 381.971863,548.456909 
	C378.746460,572.659302 379.541046,597.063843 374.900024,621.295288 
	C370.263763,645.501831 370.243958,670.600525 368.333466,695.318359 
	C367.089020,711.418762 366.083130,727.537537 364.969147,743.648010 
	C363.408112,766.223145 361.827087,788.796875 360.291199,811.373718 
	C359.342377,825.320496 358.379608,839.267151 357.572876,853.222534 
	C356.737091,867.680725 356.045929,882.147644 355.395233,896.615479 
	C355.316040,898.376892 354.473419,900.826416 357.689972,901.376343 
	C360.406952,898.945068 357.526306,894.710632 360.513245,891.779053 
	C359.518463,904.635986 359.373352,902.172363 369.813385,904.729248 
	C411.905365,915.038208 454.824646,918.580017 497.991119,919.605164 
	C520.972290,920.151001 543.941040,919.468933 566.898315,917.870728 
	C586.507996,916.505554 605.985413,914.293701 625.331787,910.907715 
	C639.224121,908.476257 653.027344,905.794739 666.597412,901.655457 
	C670.727478,900.395691 670.708923,898.965027 670.605408,896.219360 
	C670.398682,890.736328 669.980713,885.261658 669.685242,879.781616 
	C668.627563,860.165955 667.727539,840.540527 666.498779,820.935669 
	C665.062378,798.017944 663.331055,775.118774 661.752014,752.209900 
	C660.333618,731.630432 659.777405,710.949829 657.335876,690.493469 
	C654.351318,665.486633 655.892822,639.983032 648.938416,615.391235 
	C647.611572,610.699646 647.928589,605.493591 647.815186,600.517395 
	C647.409241,582.703613 646.093872,564.983582 643.835144,547.292847 
	C640.381714,520.245117 636.574158,493.269714 631.163086,466.533173 
	C625.640625,439.245941 617.063538,412.797638 609.293518,386.125183 
	C604.033447,368.068695 598.571228,350.053162 599.676331,330.863831 
	C600.451721,317.398895 602.382568,304.074982 604.220276,290.738159 
	C605.317749,282.773560 606.616516,274.836731 608.016296,265.627167 
	C602.773071,271.910217 599.389160,277.965240 593.857788,283.102020 
	C593.337769,279.581757 595.297363,278.185699 596.631897,276.699493 
	C608.840271,263.103546 614.551331,247.313248 613.012817,229.027054 
	C612.203796,219.411057 611.302490,209.802841 610.481812,200.187775 
	C610.450195,199.817474 610.824646,199.412521 611.200623,198.623276 
	C611.847961,199.953751 612.304016,200.891205 613.050049,202.424591 
	C613.454712,201.228027 613.710571,200.664520 613.835693,200.073334 
	C619.141663,175.008560 624.446350,149.941833 631.774353,125.365929 
	C632.661011,122.392395 631.390320,121.194901 628.980347,120.033920 
	C617.860535,114.677094 605.804016,111.273819 595.088989,105.371834 
	C589.054932,102.048225 587.203979,107.933563 583.117004,107.769485 
	C582.710205,107.753151 582.200500,109.044975 581.821533,109.772820 
	C572.964111,126.787003 559.431458,138.495956 540.810974,145.537643 
M667.612976,491.945221 
	C669.173889,497.384064 670.445129,502.929230 672.389709,508.227264 
	C673.876343,512.277527 675.536133,516.170654 675.871948,520.562561 
	C676.040833,522.771729 677.283081,524.025146 680.040344,523.232422 
	C692.674011,519.600464 705.349487,516.111572 718.036072,512.667419 
	C721.008179,511.860596 722.127625,510.384125 721.410217,507.248779 
	C717.778687,491.379395 714.189819,475.499542 710.718689,459.594391 
	C704.231628,429.870239 698.344299,400.003082 691.185974,370.442780 
	C687.655823,355.864960 687.840942,340.266693 679.977844,326.787659 
	C679.588196,326.119751 679.670593,325.166321 679.570251,324.341339 
	C677.564270,307.842407 675.686340,291.326813 673.536133,274.846741 
	C669.278381,242.214493 663.969727,209.740311 658.616516,177.273483 
	C656.336914,163.447693 654.083740,149.635422 646.602722,137.386765 
	C643.954224,133.050323 641.273621,128.739487 636.786743,125.265831 
	C636.096985,126.943146 635.567627,127.958206 635.252930,129.035934 
	C628.854736,150.945572 623.873413,173.201141 619.439880,195.571213 
	C617.960388,203.035858 615.570984,210.570251 616.557068,218.247589 
	C618.170410,230.808762 617.720886,243.126251 614.440735,255.366104 
	C613.586121,258.554840 613.107910,261.716766 613.872498,265.188782 
	C618.983459,288.397644 624.113586,311.607330 627.632935,335.132843 
	C629.402344,346.960327 630.323914,358.910126 633.601685,370.511230 
	C644.957153,410.702576 656.146973,450.940765 667.612976,491.945221 
M459.249146,110.453308 
	C455.345306,109.480621 452.112793,106.563263 447.676727,106.036057 
	C456.857544,127.857788 484.699463,149.725296 522.345337,145.636917 
	C548.750610,142.769287 572.185608,124.026230 577.781982,106.121246 
	C539.111877,122.588432 499.834930,124.115822 459.249146,110.453308 
z"/>
<path fill="#000000" opacity="1.000000" stroke="none" 
	d="
M372.558899,665.631470 
	C372.707642,653.442261 373.372131,641.707458 375.738281,630.107788 
	C375.287140,653.433167 374.350861,676.727966 371.544891,699.923950 
	C370.240662,688.579651 371.371796,677.309998 372.558899,665.631470 
z"/>
<path fill="#000000" opacity="1.000000" stroke="none" 
	d="
M653.225464,689.032715 
	C654.895813,689.533630 654.776855,691.034668 654.855286,692.259094 
	C655.935364,709.128723 656.946899,726.002869 657.945923,742.877625 
	C657.971741,743.313904 657.666382,743.769897 657.020874,744.233215 
	C653.542175,726.065063 654.010132,707.604370 653.225464,689.032715 
z"/>
<path fill="#000000" opacity="1.000000" stroke="none" 
	d="
M367.037720,753.266846 
	C367.421997,749.881104 367.796204,746.958984 368.170410,744.036865 
	C369.683350,758.002991 367.717651,771.773865 366.593658,785.591614 
	C365.167633,774.940796 367.141205,764.351562 367.037720,753.266846 
z"/>
<path fill="#000000" opacity="1.000000" stroke="none" 
	d="
M667.625854,890.921265 
	C667.774963,893.138306 667.267212,894.944092 666.263428,896.972229 
	C661.175293,892.341919 666.463074,887.339905 665.008911,882.793274 
	C667.124634,885.085938 665.727356,888.339600 667.625854,890.921265 
z"/>
<path fill="#000000" opacity="1.000000" stroke="none" 
	d="
M519.761780,152.923706 
	C522.057495,153.515076 521.378845,153.803787 519.995422,154.161392 
	C514.223450,155.653442 508.520050,154.635544 502.771667,152.935684 
	C508.318512,152.935684 513.865356,152.935684 519.761780,152.923706 
z"/>
<path fill="#000000" opacity="1.000000" stroke="none" 
	d="
M654.043884,680.729187 
	C653.985596,682.059387 653.916870,683.026489 653.848145,683.993591 
	C651.286316,679.443298 652.148560,674.600769 652.290710,669.806824 
	C654.400696,673.068726 653.149170,676.904419 654.043884,680.729187 
z"/>
<path fill="#000000" opacity="1.000000" stroke="none" 
	d="
M659.230347,779.791626 
	C657.052124,775.218506 658.409058,770.607300 658.421692,766.050049 
	C658.606018,770.682861 661.067627,775.136047 659.230347,779.791626 
z"/>
<path fill="#000000" opacity="1.000000" stroke="none" 
	d="
M656.721252,751.974915 
	C656.882446,751.020935 657.038208,750.429443 657.193970,749.837891 
	C658.142517,753.473145 659.188660,757.019531 658.532959,761.546326 
	C655.614075,758.347229 657.373352,755.109985 656.721252,751.974915 
z"/>
<path fill="#000000" opacity="1.000000" stroke="none" 
	d="
M656.732483,324.692383 
	C652.620056,333.619354 648.678162,342.212372 644.736328,350.805389 
	C644.083252,350.488922 643.430115,350.172455 642.776978,349.855988 
	C648.635681,335.650848 655.103027,321.729523 661.993408,308.005402 
	C662.697205,308.315796 663.401062,308.626160 664.104919,308.936554 
	C661.704285,314.077148 659.303711,319.217773 656.732483,324.692383 
z"/>
<path fill="#000000" opacity="1.000000" stroke="none" 
	d="
M668.671692,340.683319 
	C663.899658,343.662903 659.029663,345.924805 655.394714,350.999268 
	C662.233765,354.203735 669.717468,352.772736 676.300354,355.303833 
	C669.019592,356.470764 661.926514,355.617706 654.966553,353.757294 
	C652.876038,353.198517 652.119873,351.134216 653.545227,349.366730 
	C659.387390,342.122437 667.399292,338.353302 675.961121,335.539703 
	C674.547974,338.601196 671.317383,338.866272 668.671692,340.683319 
z"/>
<path fill="#000000" opacity="1.000000" stroke="none" 
	d="
M368.959717,354.302063 
	C361.492096,355.291504 354.462036,356.391022 347.248383,355.764893 
	C354.376923,352.445068 362.617889,354.151001 370.484192,350.820404 
	C365.019379,343.725006 356.567078,341.602203 350.212189,336.655609 
	C351.165314,335.510864 352.022461,335.626984 352.764160,335.947418 
	C359.375885,338.803589 365.617096,342.341248 370.956604,347.186707 
	C374.518738,350.419250 373.965057,352.235504 368.959717,354.302063 
z"/>
<path fill="#000000" opacity="1.000000" stroke="none" 
	d="
M379.103455,346.701660 
	C373.476776,333.849335 368.005249,321.326660 362.533722,308.803955 
	C363.005341,308.594543 363.476990,308.385101 363.948639,308.175690 
	C371.377899,321.556213 377.105652,335.718201 383.422852,350.555054 
	C380.023224,350.229614 379.973450,348.321716 379.103455,346.701660 
z"/>
<path fill="#000000" opacity="1.000000" stroke="none" 
	d="
M313.013794,502.979126 
	C318.975555,502.003357 323.775848,505.637756 329.124786,507.158325 
	C323.628235,507.110138 318.342102,506.142670 313.183044,503.328125 
	C312.977875,503.033295 313.001831,502.997192 313.013794,502.979126 
z"/>
<path fill="#000000" opacity="1.000000" stroke="none" 
	d="
M325.057495,510.230743 
	C328.788208,508.696991 331.560944,510.933655 334.508698,512.605896 
	C331.050140,513.395264 327.906586,512.577576 325.057495,510.230743 
z"/>
</svg>