<svg version="1.1" id="Layer_1" xmlns="http://www.w3.org/2000/svg" xmlns:xlink="http://www.w3.org/1999/xlink" x="0px" y="0px"
	 width="1024" height="1024" viewBox="0 0 1024 1024" enable-background="new 0 0 1024 1024" xml:space="preserve">
<path fill="#000000" opacity="1.000000" stroke="none" 
	d="
M630.079224,447.652191 
	C626.616211,413.433594 622.689636,379.706055 620.143188,345.874634 
	C619.187866,333.183014 613.141541,321.915924 612.491455,309.361816 
	C611.877502,319.392303 613.430786,329.252167 614.806885,339.105896 
	C617.978455,361.815979 622.023987,384.400665 624.388672,407.227844 
	C626.084961,423.603180 628.360352,439.925995 629.720093,456.326752 
	C631.355225,476.048004 633.687744,495.701569 634.480591,515.515259 
	C635.131531,531.781494 637.257141,547.989990 638.772766,564.219910 
	C640.597961,583.765015 642.446838,603.307922 644.327087,622.847778 
	C646.175232,642.054260 648.075439,661.255676 649.953247,680.459351 
	C651.976807,701.152832 653.970703,721.849243 656.048645,742.537292 
	C656.483948,746.870361 653.520508,746.943359 650.642944,747.204590 
	C643.921326,747.814697 643.507629,747.840454 644.231018,754.432312 
	C644.860291,760.166138 642.690125,762.922913 637.422913,764.617798 
	C631.878235,766.402100 626.437500,768.532288 620.725952,769.733521 
	C616.878113,770.542908 615.270630,772.445496 615.231323,776.601379 
	C614.966248,804.592773 614.482666,832.582275 614.026917,860.571716 
	C613.424683,897.553589 612.728699,934.534180 612.232300,971.517456 
	C612.174194,975.847168 610.701111,978.367432 606.540283,979.627747 
	C603.363159,980.590027 600.217407,981.806091 597.253662,983.298462 
	C577.886414,993.050903 558.897766,987.803711 540.070190,981.700500 
	C526.289490,977.233398 528.097290,980.657898 527.638672,964.774719 
	C526.552246,927.148926 525.211975,889.530579 524.017456,851.907837 
	C523.525818,836.423523 523.172058,820.934937 522.700989,805.449890 
	C522.498535,798.793030 522.052124,792.142395 521.925110,785.484924 
	C521.864441,782.312500 520.613220,781.184448 517.430298,781.040649 
	C503.998901,780.433716 503.781616,780.329163 502.711243,793.606873 
	C501.922272,803.393860 501.728485,813.232483 501.406860,823.052612 
	C500.627136,846.858459 499.891785,870.665894 499.205566,894.474609 
	C498.476044,919.785461 497.733429,945.096741 497.212433,970.412231 
	C497.106140,975.578369 495.580811,978.544128 490.217621,980.124573 
	C478.381775,983.612366 466.415924,986.466187 454.353546,988.972351 
	C451.724487,989.518616 449.088867,989.393372 446.433746,988.724915 
	C436.885712,986.321167 427.624115,983.116394 418.501251,979.417725 
	C414.357971,977.737915 412.789734,975.152222 412.766571,970.681702 
	C412.690613,956.022705 412.465271,941.364380 412.087067,926.704224 
	C411.292145,895.890869 411.370300,865.054810 410.561523,834.241882 
	C410.054230,814.915771 409.797119,795.592896 409.730743,776.265869 
	C409.718170,772.601379 408.390503,770.910400 404.861969,770.029297 
	C398.248138,768.377869 391.689880,766.502808 385.352142,763.874939 
	C381.973450,762.473999 380.131927,760.590820 380.664032,756.779114 
	C380.869781,755.305420 380.591827,753.766235 380.776917,752.287292 
	C381.227081,748.691101 379.930573,747.279297 376.128204,747.166931 
	C368.339600,746.936768 368.076630,746.205200 368.854370,738.550598 
	C371.241486,715.055725 373.466980,691.544495 375.783905,668.042419 
	C377.988037,645.684570 380.294769,623.336731 382.432373,600.972595 
	C384.284546,581.595093 385.662872,562.168091 387.787506,542.821899 
	C391.075317,512.883850 391.610413,482.721008 395.479279,452.832794 
	C396.587341,444.272675 396.959320,435.617279 396.921722,426.915192 
	C395.732422,437.119720 394.540588,447.323944 393.354706,457.528870 
	C392.299133,466.612061 391.218994,475.692566 390.216125,484.781586 
	C389.888123,487.754272 388.551575,489.235504 385.387207,489.190491 
	C367.873596,488.941284 350.467346,487.730865 333.299347,483.997131 
	C329.918976,483.261902 328.778717,481.664154 329.128662,478.044678 
	C331.465729,453.872498 333.435211,429.664734 335.789856,405.494385 
	C338.192322,380.832611 340.951904,356.205872 343.458130,331.553925 
	C345.896667,307.567444 348.413727,283.592255 351.662048,259.697998 
	C355.556763,231.048752 359.437622,202.400574 364.248291,173.883270 
	C366.825165,158.607895 369.431213,143.378799 375.296417,128.919876 
	C379.509857,118.532768 386.343658,111.116127 397.123871,106.996696 
	C417.344971,99.269638 437.316528,90.891510 457.461304,82.960503 
	C460.474976,81.774010 462.541473,80.181702 463.873505,77.228996 
	C465.995789,72.524406 468.559692,68.017326 470.638580,63.295395 
	C472.425232,59.237240 475.574036,57.101383 479.596313,56.014481 
	C500.306641,50.418144 521.063599,50.906799 541.880615,55.490082 
	C548.757019,57.004066 554.115723,60.459141 556.089355,67.323723 
	C559.269653,78.385231 566.975098,83.523438 577.379578,87.226082 
	C594.936523,93.474068 611.956726,101.213623 629.338623,107.976448 
	C638.576416,111.570625 644.256409,118.331131 648.104370,126.958771 
	C654.961304,142.333023 657.608398,158.814163 660.261475,175.251328 
	C663.696899,196.536118 667.058411,217.835953 670.121460,239.176712 
	C672.458435,255.459259 674.413269,271.800354 676.300537,288.142853 
	C678.665649,308.622681 680.859009,329.123199 682.993530,349.628632 
	C684.870361,367.658691 686.576233,385.706665 688.335083,403.748901 
	C690.174927,422.621979 692.008301,441.495758 693.800903,460.373352 
	C694.367065,466.335510 694.694519,472.321289 695.319092,478.276581 
	C695.706116,481.966919 694.337463,483.692596 690.614380,484.338776 
	C674.015930,487.219696 657.341553,489.077118 640.471130,489.083984 
	C636.679260,489.085510 634.679688,487.908386 634.265869,483.798981 
	C633.065857,471.883148 631.553833,459.998718 630.079224,447.652191 
M385.380005,756.334106 
	C382.700867,759.183105 385.310547,760.191406 387.237793,760.922058 
	C391.902222,762.690491 396.623596,764.360229 401.422028,765.715576 
	C432.933105,774.616394 465.369049,776.502686 497.806946,777.480225 
	C530.625183,778.469299 563.385681,776.813721 595.891785,771.698364 
	C609.569336,769.545959 622.960449,766.258423 636.010132,761.594788 
	C639.155579,760.470642 640.958862,758.964844 640.533875,755.057739 
	C639.905579,749.282166 639.987244,743.427795 639.802124,737.605835 
	C639.055725,714.131531 638.466187,690.651245 637.552673,667.183472 
	C636.036987,628.244080 634.330078,589.312134 632.675171,550.378296 
	C632.010437,534.741089 631.766113,519.065430 630.454407,503.481018 
	C628.180237,476.461914 625.887451,449.442596 622.879272,422.481506 
	C619.448303,391.731445 614.111145,361.262756 610.216553,330.589722 
	C608.708252,318.710907 607.170776,306.784119 608.003540,294.756287 
	C608.773254,283.636841 610.228149,272.545929 610.551758,261.418304 
	C611.292603,235.948395 613.979065,210.565002 613.812500,185.059189 
	C613.801819,183.421570 613.283936,181.454956 615.446838,179.978638 
	C616.849182,184.025772 615.794434,187.940826 616.454407,192.696381 
	C621.777344,168.109116 626.020508,144.323318 633.943115,121.480034 
	C635.596558,116.712761 634.954773,114.302864 630.180908,112.280830 
	C608.398438,103.054642 586.401733,94.369370 564.408691,85.669342 
	C562.250244,84.815483 560.873474,84.955574 559.398132,87.071518 
	C551.648743,98.185692 540.720520,105.037537 528.039368,108.993614 
	C523.704102,110.346092 522.233032,112.295975 522.275696,116.701668 
	C522.462830,136.032288 522.365356,155.365662 522.373901,174.698029 
	C522.388794,208.179413 522.202759,241.663086 522.579895,275.140411 
	C522.662842,282.509216 516.823120,285.120392 513.569397,289.825562 
	C512.964844,290.699829 511.633759,290.561005 510.901459,289.706299 
	C506.827423,284.951599 501.433929,281.645294 501.490356,273.684906 
	C501.858734,221.691833 501.601044,169.694580 501.722565,117.699112 
	C501.733673,112.935677 500.758942,110.337334 495.661621,108.759659 
	C483.804749,105.089836 473.685364,98.369125 466.106140,88.358406 
	C463.988800,85.561836 461.932709,85.086464 458.855469,86.355850 
	C453.160492,88.705025 447.318695,90.700592 441.639313,93.084686 
	C425.669250,99.788620 409.329651,105.587814 393.575623,112.825111 
	C389.859467,114.532288 388.864655,116.607254 390.229950,120.671570 
	C394.894531,134.557617 398.476654,148.754913 401.527283,163.085342 
	C403.354706,171.669952 405.280853,180.233551 407.422974,189.992722 
	C408.435028,185.897858 407.069092,182.830688 408.641907,180.052261 
	C410.740997,180.893478 410.201477,182.442703 410.262726,183.628540 
	C410.957642,197.082779 411.534943,210.543167 412.248871,223.996323 
	C413.245514,242.776718 413.979156,261.574829 415.987305,280.289764 
	C417.357330,293.057678 417.297760,305.790894 415.696167,318.574402 
	C413.525787,335.897675 410.945557,353.155823 408.485718,370.436127 
	C405.157928,393.813812 401.909119,417.212189 399.994995,440.776520 
	C398.365417,460.838165 395.744659,480.828033 394.463043,500.907166 
	C392.660492,529.146851 391.513824,557.432678 390.406738,585.711304 
	C388.810394,626.485474 387.533844,667.272095 386.048615,708.050781 
	C385.636566,719.364563 384.750122,730.664551 384.524445,741.979797 
	C384.431763,746.625000 382.535461,751.640137 386.000458,756.005432 
	C386.000458,756.005432 385.956116,756.059570 385.380005,756.334106 
M362.267151,209.530930 
	C359.588623,228.791977 356.747314,248.032196 354.277527,267.319977 
	C351.829437,286.438538 349.674561,305.595978 347.542450,324.753204 
	C345.685394,341.438812 343.974640,358.141510 342.318726,374.848480 
	C340.744354,390.732971 339.342682,406.634491 337.832428,422.525421 
	C336.086029,440.900757 334.330261,459.275360 332.506256,477.643066 
	C332.261139,480.111542 333.647064,481.047028 335.570496,481.372864 
	C351.337311,484.043518 367.193573,485.784363 383.214081,485.648285 
	C384.558167,485.636871 386.579926,485.510315 386.347137,484.003387 
	C385.909607,481.170410 387.569611,478.976440 387.823608,476.353210 
	C389.714691,456.822357 391.985992,437.328796 393.978668,417.807251 
	C395.988464,398.118439 397.667633,378.395020 399.785004,358.718323 
	C400.814514,349.151184 400.270538,339.296600 403.512634,330.091583 
	C409.341827,313.541351 410.939697,296.367004 411.590302,279.058014 
	C412.103638,265.400177 409.889191,251.842911 409.469391,238.202393 
	C409.137024,227.401260 409.120667,216.459747 407.315369,205.861404 
	C403.379303,182.754196 398.768311,159.739136 392.479218,137.123276 
	C390.779175,131.009949 389.472992,124.697868 386.203552,118.295731 
	C379.833466,125.977547 376.565948,134.264908 374.237823,142.939651 
	C368.449249,164.508453 365.815338,186.662491 362.267151,209.530930 
M614.958557,243.138809 
	C613.871704,248.914795 614.633301,254.786942 614.072998,260.584320 
	C612.463623,277.234924 613.239929,293.797607 616.233337,310.217163 
	C619.173523,326.344391 623.716125,342.056519 624.809387,358.664551 
	C626.719666,387.682129 630.300293,416.592316 633.317566,445.533234 
	C634.541748,457.274841 635.463867,469.053070 637.473022,480.712219 
	C638.131104,484.531281 639.702026,485.896698 643.694580,485.821442 
	C657.354919,485.564117 670.896729,484.257568 684.349976,482.001953 
	C692.388977,480.654083 692.353149,480.535889 691.574829,472.434937 
	C688.570129,441.164948 685.682983,409.883209 682.546997,378.626404 
	C679.710754,350.356689 676.812500,322.090118 673.554321,293.866852 
	C671.116089,272.747101 668.285583,251.665894 665.221802,230.626953 
	C661.943115,208.112564 658.399353,185.631317 654.559937,163.206024 
	C652.174805,149.275406 649.495178,135.324020 641.921509,122.978264 
	C640.937866,121.374878 640.217468,119.420853 637.475464,118.693550 
	C625.306458,159.223160 615.380310,199.818283 614.958557,243.138809 
M528.338623,874.423340 
	C528.648804,882.239746 528.739624,890.072266 529.311157,897.869568 
	C530.894958,919.476929 529.629456,941.152039 531.002258,962.768921 
	C531.257629,966.789490 532.469177,968.701660 536.354187,969.691589 
	C542.407043,971.233826 548.326416,973.300354 554.302307,975.144653 
	C546.474243,975.208130 539.537354,971.754761 532.146545,970.347656 
	C530.318054,974.136780 532.115601,975.628906 535.014954,976.650513 
	C546.503967,980.698730 558.343445,983.386047 570.275574,985.683472 
	C573.035522,986.214905 575.885925,986.521912 578.689575,985.652466 
	C587.429993,982.941956 596.206970,980.353699 604.708618,976.915466 
	C607.537048,975.771545 608.612610,974.213440 608.644104,970.951050 
	C608.915955,942.813843 609.392456,914.678345 609.893616,886.543823 
	C610.537048,850.420532 611.273560,814.298889 611.934753,778.175903 
	C612.044556,772.176880 611.951843,772.176880 606.205933,773.241943 
	C593.605286,775.577576 580.922607,777.279602 568.153687,778.411743 
	C555.879395,779.500122 543.597351,780.335632 531.272339,780.375671 
	C527.036987,780.389465 524.533264,781.856445 525.303406,786.620056 
	C525.487854,787.760925 525.385986,788.947327 525.426514,790.112366 
	C526.393982,817.888855 527.362854,845.665344 528.338623,874.423340 
M420.765564,976.774536 
	C426.877930,978.968567 432.949371,981.286804 439.115509,983.317688 
	C444.170868,984.982727 449.319244,986.737793 454.763031,985.661499 
	C466.689850,983.303589 478.468719,980.341980 490.067596,976.671997 
	C492.689636,975.842407 493.657013,974.293152 493.698883,971.524841 
	C494.011230,950.877197 494.400360,930.230225 494.886322,909.585938 
	C495.188232,896.762146 495.623199,883.940308 496.135834,871.123047 
	C497.267242,842.834900 498.414429,814.546875 499.738708,786.267456 
	C499.958099,781.581421 498.266357,780.296509 493.753693,780.260315 
	C476.092468,780.118530 458.478333,779.052795 440.978668,776.473083 
	C431.977600,775.146179 422.955078,773.964905 414.032867,772.730408 
	C412.557861,774.986816 413.129333,777.215271 413.163452,779.319275 
	C413.811798,819.300476 414.518646,859.280640 415.194580,899.261353 
	C415.569183,921.419067 415.691467,943.585144 416.490509,965.727173 
	C416.616333,969.214417 414.440338,974.466919 420.765564,976.774536 
M519.721252,237.498871 
	C519.731995,211.205139 519.746582,184.911392 519.751648,158.617661 
	C519.754395,144.327850 519.756165,130.037979 519.714966,115.748276 
	C519.709961,114.019279 520.244202,111.599609 517.525146,111.537498 
	C513.975830,111.456406 510.415253,111.867683 506.827454,112.068916 
	C506.667603,115.499458 506.415253,118.467194 506.408173,121.435509 
	C506.306183,164.198853 506.238586,206.962250 506.158875,249.725647 
	C506.142853,258.326721 506.483398,258.547424 515.173584,257.998413 
	C518.276306,257.802429 519.730591,256.664398 519.680237,253.475113 
	C519.601501,248.484406 519.703857,243.490845 519.721252,237.498871 
M483.121948,71.984116 
	C502.432281,67.875664 521.753601,68.470490 541.025146,72.121101 
	C545.706116,73.007812 546.860962,69.781319 548.148010,66.836021 
	C549.599487,63.514519 546.750061,62.497932 544.468140,61.536285 
	C542.640442,60.766071 540.710754,60.165920 538.770996,59.745377 
	C526.492310,57.083302 514.030090,56.709293 501.583038,57.624352 
	C494.510162,58.144321 487.296356,58.460072 480.525543,61.075008 
	C478.132446,61.999252 475.554047,63.085411 476.410980,66.316711 
	C477.202179,69.299934 477.997864,72.702209 483.121948,71.984116 
M537.260376,73.781403 
	C519.424744,71.628716 501.627411,70.607231 482.925690,74.819809 
	C492.776764,84.088341 507.001373,85.942764 512.028015,99.426956 
	C517.157043,85.516647 532.519958,84.727654 540.705139,75.401871 
	C540.013855,74.038879 538.825989,74.371857 537.260376,73.781403 
M373.230469,732.418091 
	C372.936310,734.558289 372.607056,736.694397 372.356750,738.839722 
	C372.035126,741.596069 372.282593,743.757568 376.009491,743.819092 
	C379.214447,743.872009 381.148621,743.180969 381.065826,739.499756 
	C381.017548,737.351196 381.534576,735.196350 381.610168,733.037781 
	C382.745789,700.601440 383.897797,668.165527 384.930573,635.725891 
	C385.209351,626.968445 386.306702,618.217041 385.403931,609.428223 
	C383.388428,627.444275 381.662720,645.475586 379.910675,663.504272 
	C377.707611,686.174438 375.483002,708.842407 373.230469,732.418091 
M648.846375,706.377808 
	C645.733704,672.818970 642.620972,639.260132 639.460938,605.191101 
	C638.827820,605.871399 638.624695,605.989136 638.628479,606.099792 
	C639.858948,642.380798 641.093384,678.661621 642.355896,714.941528 
	C642.651245,723.428772 643.135925,731.910339 643.348328,740.399170 
	C643.448914,744.416199 646.158875,743.755188 648.602478,743.767578 
	C651.081238,743.780151 652.787476,743.200806 652.424377,740.036804 
	C651.172424,729.130981 650.075928,718.207397 648.846375,706.377808 
M551.041016,72.760674 
	C548.618347,76.162575 545.833008,79.186440 542.453613,81.699425 
	C537.362671,85.485023 531.699402,88.276047 526.214661,91.381950 
	C519.711609,95.064568 517.193176,100.648064 518.063416,107.738785 
	C519.191284,108.745110 520.174377,108.512848 521.143066,108.267746 
	C533.654907,105.102119 544.710083,99.325623 553.552979,89.781975 
	C559.990845,82.833885 559.743164,77.698204 552.807373,70.194374 
	C552.314758,70.888161 551.844727,71.550095 551.041016,72.760674 
M483.713074,82.854378 
	C478.858124,79.443901 474.547791,75.478096 471.379425,69.457039 
	C469.910492,72.505219 469.124878,74.725449 467.864594,76.631889 
	C464.940552,81.055077 466.260620,84.645439 469.428162,88.249840 
	C478.297394,98.342133 489.611694,104.377968 502.229187,108.276093 
	C505.554108,109.303314 507.044128,107.781372 506.571381,104.458084 
	C505.766083,98.797409 503.700226,93.942505 498.215851,91.088234 
	C493.499664,88.633774 488.942596,85.873550 483.713074,82.854378 
M404.674469,373.361206 
	C407.218964,352.640259 411.427429,332.128998 412.477600,311.194366 
	C411.184326,316.866882 410.113068,322.600037 407.898102,327.973175 
	C405.371948,334.101196 404.928131,340.558746 404.327789,347.011230 
	C402.726349,364.224243 401.156921,381.440247 399.555786,398.653290 
	C398.855347,406.183289 398.108582,413.708984 397.382843,421.236603 
	C400.749817,405.675354 401.443604,389.764587 404.674469,373.361206 
M516.542175,279.800568 
	C520.246887,276.251160 518.437561,271.647675 518.687073,267.529175 
	C519.124207,260.313843 518.880371,260.558929 511.936981,260.245117 
	C507.376953,260.039032 505.476410,261.536621 505.969727,266.131439 
	C506.215881,268.424408 506.246185,270.769043 506.089020,273.070892 
	C505.753693,277.983124 508.313324,281.056152 511.919098,283.479034 
	C513.970764,282.947571 514.800781,281.393341 516.542175,279.800568 
z"/>
<path fill="#000000" opacity="1.000000" stroke="none" 
	d="
M386.023499,755.979126 
	C392.682007,757.546509 399.266693,759.287903 405.318970,762.599243 
	C398.682495,761.579041 392.168823,760.185791 386.136719,756.362244 
	C385.956116,756.059570 386.000458,756.005432 386.023499,755.979126 
z"/>
<path fill="#000000" opacity="1.000000" stroke="none" 
	d="
M660.340332,481.964752 
	C659.005310,481.933411 658.036072,481.884125 656.154785,481.788452 
	C660.774780,479.410156 664.736328,479.770905 668.795959,480.654938 
	C666.099365,481.085541 663.402710,481.516174 660.340332,481.964752 
z"/>
<path fill="#000000" opacity="1.000000" stroke="none" 
	d="
M451.844757,980.377380 
	C446.591064,981.083069 442.251526,978.817139 437.663483,977.674500 
	C443.123779,978.171692 448.517944,979.112061 454.060974,978.935425 
	C453.860809,980.430603 452.834625,980.049133 451.844757,980.377380 
z"/>
<path fill="#000000" opacity="1.000000" stroke="none" 
	d="
M510.340332,125.493011 
	C508.462036,123.634987 507.294159,121.847023 508.577820,119.528885 
	C509.629547,117.629524 511.354645,116.698357 513.525818,116.860352 
	C515.525208,117.009537 516.815063,118.206062 517.644348,119.994102 
	C518.447449,121.725655 518.065796,123.273674 516.848694,124.567039 
	C515.098083,126.427330 513.035828,127.150688 510.340332,125.493011 
z"/>
<path fill="#000000" opacity="1.000000" stroke="none" 
	d="
M517.577026,188.538727 
	C518.214478,192.356628 516.335632,194.359421 513.250000,194.784225 
	C510.719452,195.132584 508.865051,193.406448 508.224396,190.920303 
	C507.526489,188.212189 509.100128,186.437286 511.386383,185.493042 
	C514.175354,184.341187 516.112366,185.726959 517.577026,188.538727 
z"/>
<path fill="#000000" opacity="1.000000" stroke="none" 
	d="
M514.465454,222.050354 
	C517.880920,224.336060 519.146362,227.051361 516.204895,229.962387 
	C513.814514,232.328094 511.078552,231.711609 508.881927,229.232956 
	C507.676849,227.873138 507.419708,226.269180 508.338562,224.667007 
	C509.601685,222.464478 511.462555,221.341644 514.465454,222.050354 
z"/>
<path fill="#000000" opacity="1.000000" stroke="none" 
	d="
M511.619141,150.582077 
	C515.272827,149.805588 517.088684,151.462631 517.669861,154.467194 
	C518.148254,156.940598 516.654785,158.617661 514.501709,159.470459 
	C511.937103,160.486252 509.886047,159.326889 508.630310,157.118790 
	C506.866699,154.017715 508.861481,152.214279 511.619141,150.582077 
z"/>
</svg>