<svg version="1.1" id="Layer_1" xmlns="http://www.w3.org/2000/svg" xmlns:xlink="http://www.w3.org/1999/xlink" x="0px" y="0px"
	 width="1024" height="1024" viewBox="0 0 1024 1024" enable-background="new 0 0 1024 1024" xml:space="preserve">
<path fill="#000000" opacity="1.000000" stroke="none" 
	d="
M385.750122,594.019531 
	C388.514740,562.558838 390.109833,531.477844 393.529785,500.541382 
	C395.850616,479.547241 397.719116,458.502899 399.760223,437.478119 
	C403.081451,403.266876 411.377960,370.006409 419.043671,336.628723 
	C424.862366,311.293304 430.353333,285.929901 428.659973,259.664398 
	C428.322205,254.425186 427.903015,249.191238 426.648773,243.841049 
	C422.893677,258.942291 419.109375,274.036346 415.392059,289.146881 
	C411.973602,303.042816 408.542206,316.936707 405.306274,330.875549 
	C404.445618,334.582703 402.493958,335.754242 398.929993,335.284088 
	C384.011566,333.315979 369.386505,330.297577 355.782288,323.530243 
	C349.028320,320.170502 348.971588,319.941284 350.936920,312.816986 
	C361.557495,274.318115 371.181122,235.565109 380.142822,196.651932 
	C384.131744,179.331436 385.950012,161.523209 391.757507,144.605148 
	C393.869049,138.454071 396.276825,132.438293 399.599518,126.808601 
	C406.602692,114.942955 417.391144,108.220123 430.104523,103.976761 
	C438.001770,101.340904 445.874054,98.617706 453.674835,95.711693 
	C456.630096,94.610756 459.191711,95.224884 461.869629,96.291695 
	C480.407104,103.676445 499.653381,106.893578 519.566406,105.733246 
	C535.128723,104.826431 550.181641,101.327072 564.836487,96.074600 
	C567.065002,95.275879 569.219849,94.678558 571.620483,95.561096 
	C582.401306,99.524368 593.259888,103.280556 603.997192,107.356949 
	C616.273071,112.017433 623.897583,121.351166 629.343201,132.941071 
	C636.225830,147.589279 639.163452,163.304092 642.140869,178.994492 
	C650.525208,223.177719 662.517578,266.469269 674.290588,309.813385 
	C677.169495,320.412598 677.413330,320.419708 667.200745,324.904510 
	C654.584229,330.445007 641.233093,333.113220 627.703308,335.224518 
	C622.203308,336.082825 620.921631,333.076996 619.822876,328.709442 
	C612.760132,300.635590 607.167236,272.203339 599.239746,244.342148 
	C599.202637,244.211823 599.019470,244.123062 598.568848,243.698990 
	C596.690369,258.452576 596.516785,273.007843 597.834656,287.466187 
	C600.759460,319.555298 610.433716,350.338226 616.925293,381.740540 
	C621.678528,404.733795 625.199158,427.884979 627.370667,451.265381 
	C629.415405,473.280975 631.936401,495.252380 633.971619,517.268799 
	C635.625854,535.164429 636.946350,553.092224 638.278503,571.015930 
	C639.943848,593.421570 641.522522,615.833923 643.029236,638.250732 
	C643.620850,647.052734 643.937927,655.873779 644.326965,664.688477 
	C644.399048,666.320496 644.597107,668.033203 643.424927,669.636902 
	C642.831238,669.666382 642.163452,669.823730 641.544617,669.711426 
	C633.299866,668.214417 633.124207,668.208984 633.317261,676.844238 
	C633.432129,681.981934 630.176392,686.124512 630.560913,691.606812 
	C631.782593,709.024780 631.799133,726.523621 632.530640,743.980774 
	C633.283447,761.946167 634.485718,779.893005 635.213867,797.859192 
	C636.710999,834.802429 637.963806,871.755676 639.444946,908.699646 
	C639.930420,920.809448 640.130981,920.911438 628.407104,923.065308 
	C606.797607,927.035400 585.177673,931.040405 563.047302,930.302856 
	C548.370605,929.813782 533.856873,928.160095 519.630310,924.292908 
	C515.966064,923.296875 514.539307,921.437683 514.609009,917.582825 
	C515.328735,877.770081 515.926208,837.955017 516.524048,798.140137 
	C516.646606,789.974976 516.577393,781.807068 516.686035,773.641541 
	C517.023010,748.317932 517.363037,722.994202 517.812500,697.672485 
	C517.875244,694.135559 517.357361,692.004822 513.030884,692.093567 
	C509.346100,692.169189 508.019043,693.406433 508.111084,697.080078 
	C508.511749,713.067688 508.050629,729.063660 508.931641,745.054871 
	C509.462830,754.696228 509.158020,764.382874 509.257690,774.048828 
	C509.620117,809.205322 509.758545,844.366516 510.489990,879.515381 
	C510.753387,892.170593 511.034607,904.827698 511.291809,917.484924 
	C511.374298,921.544678 509.874786,923.355591 505.911926,924.355225 
	C474.976654,932.158875 443.950500,931.878723 412.812195,925.868042 
	C405.300629,924.418091 397.803589,922.887390 390.273163,921.543640 
	C386.811707,920.925964 385.565521,919.058533 385.721741,915.644958 
	C386.680695,894.687561 387.546692,873.726013 388.452148,852.766174 
	C388.847382,843.616577 389.329285,834.470154 389.657196,825.318176 
	C390.992554,788.046387 392.408203,750.778687 394.558441,713.542419 
	C395.009583,705.729858 395.327240,697.909241 395.647949,690.089905 
	C395.763062,687.282959 395.679565,684.717712 393.605408,682.184082 
	C391.527374,679.645813 392.655975,676.047791 392.761627,672.950806 
	C392.907043,668.689087 391.333069,667.680176 387.355988,668.788513 
	C382.097046,670.254089 381.567780,669.832642 381.700958,664.260742 
	C382.198303,643.456177 383.894684,622.718689 385.374176,601.969727 
	C385.551575,599.481384 385.617706,596.985107 385.750122,594.019531 
M421.024841,131.792572 
	C422.175507,141.860077 423.286285,151.932388 424.495056,161.992905 
	C425.029938,166.444504 425.007294,171.179855 426.648193,175.212494 
	C427.937866,178.382126 428.216217,180.993423 427.613434,184.184448 
	C425.600311,194.842178 424.100769,205.537582 426.517029,216.376221 
	C428.650513,225.946304 430.790161,235.490128 431.720154,245.314438 
	C433.454956,263.640015 433.403931,281.907715 430.752136,300.103729 
	C427.749176,320.709625 422.322784,340.827301 417.626160,361.076935 
	C411.376007,388.024841 405.799286,414.996857 405.248627,442.820557 
	C404.863190,462.296509 403.757050,481.758057 402.979095,501.226318 
	C401.409729,540.498962 399.798523,579.770020 398.297943,619.045349 
	C397.585876,637.682617 397.158691,656.330872 396.433899,674.967590 
	C396.291077,678.639832 397.555176,680.237671 401.140533,681.205505 
	C419.480011,686.155518 438.302734,687.261169 457.074005,687.523560 
	C494.232910,688.043030 531.408875,688.031067 568.568298,687.531372 
	C586.846436,687.285583 605.142883,685.906738 623.070129,681.615906 
	C627.321472,680.598267 628.952148,678.652039 629.010376,674.095642 
	C629.313049,650.422424 628.032288,626.787170 627.467712,603.140076 
	C627.026672,584.666077 626.218933,566.189697 625.505493,547.718872 
	C624.213867,514.279541 622.248596,480.866821 620.745483,447.434875 
	C619.772888,425.803070 617.665100,404.366486 613.152405,383.124237 
	C607.247620,355.328827 599.312073,327.964539 595.241882,299.782928 
	C591.862122,276.382538 592.179260,252.996597 596.440247,229.736557 
	C598.653564,217.654572 602.424805,205.754898 599.664246,193.258987 
	C597.870789,185.140839 598.862305,177.373047 600.082825,169.084229 
	C602.572083,152.178696 604.381714,135.127686 607.024780,118.217262 
	C607.594177,114.574646 606.524597,112.971306 603.445557,111.828682 
	C593.303040,108.064827 583.196533,104.203423 573.032898,100.498245 
	C572.075623,100.149254 570.812805,99.652275 569.516235,100.540810 
	C565.823669,107.884338 561.134460,114.686523 554.845276,120.356079 
	C531.821533,141.111465 477.502899,141.944443 458.601105,104.094963 
	C457.286438,101.462410 455.715179,99.462303 452.481293,100.702751 
	C442.226105,104.636391 431.615173,107.607323 421.588837,112.159935 
	C418.901733,113.380051 417.977783,115.301262 418.549438,118.197311 
	C419.384857,122.429611 420.037201,126.698044 421.024841,131.792572 
M519.314941,875.500244 
	C519.201294,888.663818 519.310303,901.835327 518.837769,914.986023 
	C518.696533,918.916016 519.475403,920.429321 523.449951,921.333862 
	C560.037842,929.661011 596.209656,926.083130 632.290100,918.085999 
	C635.321289,917.414124 635.846497,915.744080 635.715576,913.098389 
	C635.371338,906.141174 635.155396,899.177490 634.900635,892.215942 
	C634.108765,870.582153 633.427551,848.943726 632.507935,827.315369 
	C631.326904,799.538574 629.973389,771.768982 628.660583,743.997864 
	C627.811523,726.037109 626.814026,708.082886 626.085632,690.117432 
	C625.915710,685.928162 624.564209,685.207825 620.560425,686.119629 
	C604.104309,689.867310 587.313904,690.645996 570.505920,691.407898 
	C556.015930,692.064697 541.532227,692.282776 527.039795,692.113098 
	C523.340027,692.069824 522.131409,693.438477 522.168396,697.107483 
	C522.280762,708.266663 521.676941,719.422424 521.464478,730.575317 
	C520.550659,778.546509 520.000916,826.524658 519.314941,875.500244 
M399.404877,690.886841 
	C398.372803,714.511230 397.308075,738.134338 396.318604,761.760498 
	C395.461426,782.228271 394.709137,802.700378 393.875519,823.169189 
	C392.662628,852.950378 391.473816,882.732849 390.118256,912.507629 
	C389.946014,916.291626 391.306244,917.972107 394.885101,918.563538 
	C401.777039,919.702454 408.636383,921.037537 415.513062,922.269775 
	C444.003876,927.374939 472.435120,927.522888 500.853027,921.548218 
	C505.332733,920.606384 507.239197,918.953003 507.042358,913.994812 
	C506.335358,896.184998 506.447174,878.348267 506.227234,860.526855 
	C505.559021,806.381409 504.866943,752.238098 503.806671,698.098511 
	C503.717407,693.541992 502.528198,692.076477 497.909698,692.062927 
	C481.419556,692.014526 464.919922,691.823547 448.444489,691.168274 
	C433.649597,690.579895 418.823242,689.656128 404.388062,685.998413 
	C400.309998,684.965027 399.134674,686.252380 399.404877,690.886841 
M628.607239,141.873917 
	C624.744446,132.094223 620.189087,122.806252 611.318970,116.663734 
	C609.633057,117.497200 609.540527,118.675858 609.379395,119.830734 
	C607.405579,133.980133 605.210571,148.103348 603.536926,162.288101 
	C602.625183,170.014526 600.892273,177.863144 602.505005,185.622772 
	C605.266541,198.910141 605.147217,211.978592 601.528870,225.087570 
	C600.625732,228.359543 599.776550,231.709793 600.836609,235.372986 
	C606.333923,254.368713 611.095276,273.555481 615.453430,292.848541 
	C618.334595,305.603485 621.632263,318.264343 624.795532,331.180267 
	C638.013184,330.299988 650.190552,327.180115 662.009277,322.580170 
	C672.358093,318.552338 672.216614,318.500488 669.317688,307.662445 
	C659.439636,270.732391 649.466614,233.821396 641.263184,196.472855 
	C637.309937,178.474380 635.354919,160.022156 628.607239,141.873917 
M387.297760,182.588654 
	C378.931824,224.031525 367.921478,264.828766 357.157074,305.683807 
	C356.143402,309.531036 354.702911,313.114075 360.017426,315.436523 
	C357.824249,315.968536 356.531250,314.191833 355.023071,315.272919 
	C354.996704,318.531433 355.077911,318.710419 358.723297,320.404297 
	C369.829224,325.564850 381.563232,328.640930 393.601379,330.558472 
	C400.356445,331.634491 400.877930,331.080109 402.619476,324.061523 
	C409.746521,295.338806 416.196686,266.445648 424.145782,237.931381 
	C425.441284,233.284286 425.522766,228.931396 424.307495,224.259689 
	C422.041504,215.548630 420.892212,206.712891 421.564056,197.604141 
	C422.052795,190.977890 424.416809,184.581879 423.651520,177.822266 
	C422.006378,163.290787 421.014557,148.677780 418.541779,134.251343 
	C417.522400,128.304169 417.767639,122.107071 415.472931,115.905693 
	C407.675659,121.775719 402.729858,129.082321 399.187500,137.484726 
	C393.199585,151.688049 389.810120,166.578705 387.297760,182.588654 
M468.669678,111.814491 
	C491.650970,140.356659 549.391907,134.076294 561.374939,104.733597 
	C545.662720,110.843353 530.814941,113.457397 524.200989,111.191002 
	C535.555054,109.901352 546.590149,107.914520 557.139648,103.865913 
	C509.369720,112.784950 508.260406,112.764282 463.899048,101.888908 
	C464.013092,105.503258 465.852692,108.514320 468.669678,111.814491 
M394.088104,613.812744 
	C394.607849,604.510193 395.454071,595.212280 395.584930,585.904297 
	C395.947845,560.095581 397.606537,534.342834 398.522888,508.559692 
	C398.857544,499.143433 398.576752,489.705261 398.576752,480.277100 
	C393.656952,541.425842 388.507751,602.635742 385.546783,664.733887 
	C388.366211,663.806396 390.582245,664.253113 391.696655,662.684753 
	C395.086456,646.742676 393.094238,630.698303 394.088104,613.812744 
M638.633972,631.857605 
	C636.661377,605.479797 634.772949,579.095276 632.688904,552.726257 
	C631.099365,532.614563 629.261780,512.522461 627.534607,492.421661 
	C628.211426,521.047058 628.891418,549.667419 630.526184,578.233154 
	C632.143677,606.495850 631.323364,634.845337 634.348450,663.302490 
	C635.907349,663.696045 637.747864,665.073364 640.400330,663.993164 
	C639.824097,653.618591 639.245728,643.205994 638.633972,631.857605 
z"/>
<path fill="#000000" opacity="1.000000" stroke="none" 
	d="
M497.991150,731.703125 
	C497.046021,740.994263 496.047180,749.992676 495.048340,758.991028 
	C493.006317,754.814880 494.412781,750.807556 494.947449,746.800781 
	C495.626251,741.713623 495.472839,736.515198 496.950623,731.535583 
	C496.994629,731.387268 497.135803,731.136108 497.193970,731.146362 
	C497.449371,731.191467 497.690887,731.315186 497.991150,731.703125 
z"/>
<path fill="#000000" opacity="1.000000" stroke="none" 
	d="
M610.614380,221.709503 
	C609.796997,224.378937 609.888733,226.914795 608.071960,229.791031 
	C608.456543,224.394989 609.049683,219.927231 611.910522,215.902328 
	C611.519958,217.715012 611.129333,219.527695 610.614380,221.709503 
z"/>
<path fill="#000000" opacity="1.000000" stroke="none" 
	d="
M417.296387,231.473297 
	C415.863647,225.103027 414.581421,219.015259 413.299194,212.927475 
	C416.779480,218.767670 418.156158,225.171066 418.864655,231.754532 
	C418.881866,231.914032 418.438599,232.284058 418.234406,232.266907 
	C417.959503,232.243790 417.708282,231.939453 417.296387,231.473297 
z"/>
<path fill="#000000" opacity="1.000000" stroke="none" 
	d="
M472.744324,107.577690 
	C471.169037,107.087097 469.657227,107.221130 468.900635,104.889236 
	C477.949280,106.881065 486.603912,108.786156 495.258545,110.691254 
	C495.174957,111.125237 495.091370,111.559219 495.007812,111.993202 
	C487.487030,111.879333 480.240753,110.102722 472.744324,107.577690 
z"/>
</svg>