<svg version="1.1" id="Layer_1" xmlns="http://www.w3.org/2000/svg" xmlns:xlink="http://www.w3.org/1999/xlink" x="0px" y="0px"
	 width="1024" height="1024" viewBox="0 0 1024 1024" enable-background="new 0 0 1024 1024" xml:space="preserve">
<path fill="#000000" opacity="1.000000" stroke="none" 
	d="
M740.253296,455.966614 
	C742.884705,476.350708 744.987244,496.347565 747.374817,516.305908 
	C749.427917,533.467590 751.344910,550.662781 753.230103,567.853271 
	C753.554932,570.814758 752.562561,572.602112 749.511414,573.268921 
	C729.012329,577.748962 708.479614,581.802795 687.318481,581.341797 
	C682.805359,581.243408 680.833740,579.861145 680.344788,575.176941 
	C678.292053,555.512024 676.151062,535.849915 673.579285,516.247437 
	C671.093018,497.296204 667.862000,478.443512 665.287659,459.502747 
	C663.072144,443.202423 659.286438,427.112427 658.655823,410.600433 
	C658.596191,409.038849 658.248596,407.502319 657.282776,406.392853 
	C653.548584,402.103546 653.452026,397.031921 653.699463,391.786133 
	C654.215637,380.846069 651.956848,370.263153 649.318115,359.748779 
	C649.063660,358.734650 649.097595,357.392975 647.360901,356.730408 
	C647.360901,365.173706 647.005188,373.449554 647.424805,381.685913 
	C648.932251,411.276428 652.357239,440.689941 655.853638,470.100433 
	C658.288025,490.578735 659.922302,511.152893 662.409058,531.624084 
	C666.504150,565.334106 667.749329,599.271729 670.940308,633.055847 
	C673.365051,658.727661 674.532043,684.517029 676.365479,710.246399 
	C678.541687,740.784912 680.923401,771.308960 683.039124,801.851501 
	C684.304443,820.118042 685.182434,838.411133 686.324585,856.686646 
	C687.289978,872.134705 688.234436,887.587158 689.518677,903.010193 
	C689.880005,907.349426 689.273804,909.558105 684.379822,908.486572 
	C680.867065,907.717529 679.644897,909.716919 680.264160,912.715149 
	C681.854736,920.415894 677.869141,924.088806 671.408752,927.073303 
	C651.458984,936.289734 630.514709,942.251099 609.028076,946.188049 
	C568.737305,953.570374 528.001709,955.982544 487.157166,953.917542 
	C451.239624,952.101501 415.453766,948.392578 380.919525,937.304504 
	C370.776825,934.048035 360.631409,930.781677 351.193726,925.659058 
	C346.424042,923.070129 343.688995,919.871460 345.358765,914.052917 
	C346.533844,909.958313 345.191101,907.560303 340.396942,908.295105 
	C336.270660,908.927612 335.304077,906.922913 335.592407,903.068054 
	C337.019928,883.983398 338.280640,864.885864 339.521790,845.787720 
	C340.633667,828.679321 341.534027,811.556580 342.726105,794.454041 
	C344.218658,773.040283 345.951660,751.643433 347.508911,730.234070 
	C348.619812,714.961060 349.542572,699.674194 350.674988,684.402893 
	C352.089661,665.325867 353.657349,646.260193 355.112518,627.186096 
	C356.023743,615.241699 356.749084,603.282471 357.735413,591.344604 
	C359.515411,569.800781 360.800903,548.218201 363.400024,526.738647 
	C365.456238,509.745575 366.949615,492.684662 368.715820,475.656219 
	C370.481445,458.633301 372.353790,441.620972 374.028198,424.589172 
	C375.052307,414.171936 376.064056,403.740356 376.588165,393.290497 
	C377.204742,380.996460 378.477203,368.708588 377.582977,356.022217 
	C372.771606,367.580811 371.391510,379.388641 372.004822,391.470551 
	C372.269287,396.680786 371.151062,401.366821 368.216705,405.652374 
	C367.269501,407.035736 366.545044,408.503540 366.352814,410.225677 
	C362.053680,448.745575 355.376038,486.937927 350.480103,525.375305 
	C348.337402,542.197510 346.276581,559.031494 344.387939,575.883667 
	C343.970123,579.611694 342.453705,581.146729 338.745667,581.242188 
	C317.431702,581.790833 296.630035,578.468567 276.049622,573.275269 
	C272.380371,572.349304 271.489899,570.252930 271.936218,566.648315 
	C274.612152,545.037598 277.128937,523.406982 279.675232,501.780243 
	C282.629120,476.691925 285.651917,451.611176 288.465759,426.507111 
	C290.353912,409.661682 291.573303,392.734680 293.768616,375.932587 
	C295.316589,364.085022 298.226349,352.422455 300.136932,340.613983 
	C307.681824,293.982117 317.148804,247.736023 327.894104,201.750000 
	C332.557526,181.792175 337.578400,161.933746 349.196259,144.497284 
	C352.344238,139.772690 356.081085,136.159943 361.167969,133.580627 
	C383.915985,122.046097 407.311005,111.940147 430.656494,101.717682 
	C437.362640,98.781227 443.997742,95.681900 450.715698,92.773361 
	C453.054657,91.760704 454.422577,89.953011 455.401337,87.820297 
	C457.135620,84.041298 459.034241,80.286964 460.252472,76.333824 
	C462.075745,70.417168 466.056305,67.375893 471.777924,65.809105 
	C479.371765,63.729614 487.115723,62.655594 494.925598,62.218204 
	C514.082764,61.145317 533.181396,61.102272 552.066711,65.481796 
	C558.324768,66.933044 562.612305,70.090790 564.711060,76.172081 
	C565.035828,77.113174 565.580444,77.978996 565.898682,78.921745 
	C568.609375,86.952736 573.528687,91.420761 581.764648,95.474617 
	C601.325500,105.102692 621.682434,112.917305 641.108093,122.768227 
	C648.827637,126.682884 656.710815,130.279129 664.565430,133.921432 
	C670.244446,136.554901 674.000916,140.918213 677.216858,146.204102 
	C687.882812,163.735245 692.328674,183.377182 697.321472,202.906143 
	C704.138855,229.572006 709.091553,256.632507 714.607483,283.563812 
	C720.406677,311.877960 725.612488,340.337189 730.121094,368.884125 
	C733.330994,389.207855 734.952332,409.782196 737.293213,430.243530 
	C738.257141,438.669403 739.248962,447.092163 740.253296,455.966614 
M523.314453,207.500412 
	C523.286926,248.163589 523.262024,288.826782 523.227844,329.489960 
	C523.224121,333.930267 517.239258,342.852844 513.426086,344.064789 
	C512.848938,344.248260 512.090027,344.223633 511.521454,344.011108 
	C507.685333,342.576996 501.637817,333.679077 501.703705,329.421906 
	C502.095490,304.114105 501.059692,278.819336 501.456512,253.498810 
	C502.054443,215.346802 501.584137,177.178772 501.764252,139.018494 
	C501.785736,134.463715 500.594391,132.390945 495.908539,131.032883 
	C478.546600,126.000992 463.867188,117.020134 455.368713,100.228706 
	C453.657898,96.848457 451.641357,97.261421 448.869568,98.469521 
	C423.368103,109.584396 397.782928,120.515839 372.808624,132.793274 
	C358.383240,139.884842 360.894806,136.168472 362.794342,152.428009 
	C363.673431,159.952728 366.650574,167.390106 364.424072,175.195129 
	C364.116730,176.272461 363.653320,178.309921 366.489624,177.855820 
	C366.989929,177.775696 367.689575,182.440659 367.134338,182.507614 
	C363.568695,182.937515 366.211700,184.825577 366.040771,185.982422 
	C365.498535,189.652740 368.950378,191.658707 369.735291,194.886215 
	C370.280426,197.127884 367.916656,198.909592 368.999390,200.419098 
	C372.453888,205.235260 372.316681,210.189453 370.333557,215.241150 
	C371.256805,216.123291 372.038483,214.793945 372.120728,215.074112 
	C376.988770,231.654236 374.417847,249.202225 378.947968,266.054443 
	C380.306183,259.564453 379.988892,252.864166 382.647064,246.734818 
	C383.510498,250.362045 383.197479,253.949570 382.783752,257.560120 
	C381.552948,268.301605 379.287262,279.022156 380.468750,289.876617 
	C381.842896,302.501404 381.867157,315.217773 381.776062,327.802216 
	C381.584534,354.261627 385.835907,380.212494 388.563934,406.346313 
	C390.757263,427.357452 393.122467,448.351471 395.167206,469.376801 
	C395.669678,474.543610 397.113831,479.749023 394.786102,485.110413 
	C390.676636,447.147522 386.567169,409.184662 382.457672,371.221802 
	C381.905182,373.483215 381.605652,375.763672 381.496796,378.053192 
	C380.089111,407.659607 377.259766,437.160065 373.868835,466.578979 
	C370.439789,496.328064 367.245270,526.098083 364.461578,555.906860 
	C361.303802,589.720764 359.292114,623.623352 358.163971,657.571838 
	C357.455963,678.876465 356.804169,700.183105 356.031464,721.485413 
	C354.860260,753.773438 353.566895,786.057068 352.399872,818.345276 
	C351.569611,841.316101 350.893768,864.292480 350.082886,887.264038 
	C349.778290,895.893188 350.384064,904.758301 349.321014,913.074707 
	C348.373901,920.484253 352.101654,921.659302 356.312408,923.813660 
	C364.492981,927.999023 373.236084,930.811218 381.963074,933.587891 
	C421.072845,946.031799 461.565491,948.958923 502.190216,950.604675 
	C523.518066,951.468689 544.779419,949.660522 566.033447,947.812744 
	C591.297668,945.616333 616.266968,941.991333 640.527954,934.401306 
	C651.496216,930.969910 662.401733,927.311890 672.552063,921.781433 
	C675.483276,920.184448 677.866028,918.261841 676.239746,914.512024 
	C675.190979,913.835083 674.218994,915.360718 673.280823,914.183228 
	C674.664124,912.450806 676.910950,911.248474 676.552429,908.439392 
	C675.452148,899.819702 675.920593,891.132385 675.571228,882.479126 
	C673.945190,842.206116 672.214661,801.937134 670.703125,761.659912 
	C669.828552,738.356934 669.668701,715.021484 668.440857,691.740051 
	C667.908508,681.646362 668.412537,671.440552 666.493774,660.474304 
	C665.990479,664.636047 666.586975,668.084412 664.047180,671.535706 
	C663.915100,669.682251 663.768860,668.535706 663.768555,667.389160 
	C663.768188,666.058838 663.747314,664.700745 663.990295,663.402405 
	C667.871521,642.665100 665.643127,621.859253 664.407349,601.113159 
	C663.280334,582.192810 661.432739,563.311340 659.678162,544.433594 
	C658.063110,527.056885 656.234863,509.698578 654.343689,492.349274 
	C652.217590,472.843567 649.847473,453.364471 647.709167,433.860046 
	C645.534851,414.027954 643.809998,394.153778 642.286743,374.197266 
	C640.018372,394.179443 637.749939,414.161621 635.481567,434.143799 
	C635.012817,434.094604 634.544128,434.045410 634.075439,433.996216 
	C633.325500,425.227203 635.077454,416.551270 635.980530,407.908203 
	C638.900330,379.963837 643.297668,352.211731 643.190613,323.942749 
	C643.100037,300.020905 646.341248,276.080200 641.799316,252.218643 
	C641.014587,248.096344 639.696106,243.868195 640.734192,239.498978 
	C644.337463,247.943405 644.289246,257.147858 646.634094,267.344421 
	C647.544434,257.157593 649.404541,248.670883 649.483887,239.750793 
	C649.624390,223.951401 653.172852,208.396561 655.292358,192.738663 
	C655.638977,190.178162 656.445312,187.966568 659.259216,186.346848 
	C657.796753,185.195160 656.204651,184.204834 656.992676,182.588623 
	C659.160522,178.143021 659.243530,173.572708 659.408203,168.669693 
	C659.668091,160.929703 661.111755,153.093292 663.145874,145.593719 
	C664.667419,139.984024 662.891113,137.620178 658.117554,135.339661 
	C635.265320,124.422333 612.087952,114.235100 588.930908,103.997658 
	C583.372925,101.540527 577.834961,99.038132 572.273499,96.550179 
	C563.169250,115.355103 547.976501,125.709373 529.158813,131.169922 
	C524.605774,132.491135 523.045654,134.296707 523.100403,139.004822 
	C523.361877,161.501129 523.279663,184.001434 523.314453,207.500412 
M376.883118,321.659088 
	C375.121216,315.415527 373.316925,309.183533 371.609497,302.925110 
	C369.945709,296.826569 368.279053,290.725494 366.801178,284.580414 
	C365.285461,278.278046 364.004242,271.919434 362.606964,265.588409 
	C361.269562,259.528503 359.422729,253.533936 360.143341,247.182953 
	C365.284119,269.632751 371.129944,291.847382 377.408478,313.990906 
	C377.804840,257.483673 363.514801,202.822784 356.555969,147.250946 
	C356.451050,146.413391 356.243439,145.625076 355.271851,145.212097 
	C353.385376,145.535858 352.901794,147.328766 352.039917,148.655457 
	C345.271729,159.073639 340.366180,170.322556 337.194458,182.331345 
	C327.252838,219.972687 319.360321,258.070984 312.123718,296.301849 
	C307.208527,322.268738 302.075378,348.231964 298.418915,374.389618 
	C294.184509,404.681244 291.564667,435.196106 288.054626,465.592163 
	C284.278015,498.296509 280.333771,530.981873 276.320099,563.658020 
	C275.780609,568.050171 277.266022,569.873535 281.532837,570.796265 
	C290.643219,572.766357 299.868713,574.026550 309.001953,575.784119 
	C317.846741,577.486267 326.727692,575.573792 335.533600,576.871094 
	C338.909607,577.368530 340.447662,575.907532 340.888916,572.178894 
	C343.641541,548.917969 346.683533,525.691345 349.630280,502.453369 
	C350.006561,499.486176 350.495819,496.528107 350.732605,493.549896 
	C350.950378,490.811005 352.350433,488.131195 351.201630,484.414032 
	C346.403473,513.749268 340.515717,541.942383 332.429810,569.656189 
	C331.336639,567.289185 332.100372,565.122070 332.648163,562.943848 
	C339.789429,534.548645 345.951294,505.948090 350.727936,477.054382 
	C351.105438,474.771027 351.038696,471.741913 352.451202,470.435486 
	C355.885529,467.258942 354.988831,463.398224 355.004791,459.814972 
	C355.019806,456.437683 355.322784,453.179718 356.088684,449.938354 
	C358.117310,441.353180 359.578278,432.675568 360.860718,423.946625 
	C362.076599,415.670746 361.329956,406.891418 366.696075,399.538513 
	C367.493195,398.446228 367.712494,396.644318 367.598145,395.218933 
	C366.294525,378.967224 371.057892,363.596222 374.153778,347.960541 
	C375.814209,339.574768 379.516327,331.357269 376.883118,321.659088 
M681.713379,164.775757 
	C678.341492,157.750565 675.314758,150.503876 669.145264,144.960571 
	C661.093018,201.324066 648.505920,256.821198 647.443787,313.821594 
	C653.735779,291.590149 659.574280,269.280396 664.436157,245.866043 
	C666.664124,248.194275 665.858093,249.789490 665.574280,251.315918 
	C661.981567,270.639771 657.001160,289.632477 652.011719,308.627930 
	C649.549438,318.001892 644.882996,327.114319 648.448059,337.317413 
	C649.648376,340.752594 650.347046,344.382111 651.055664,347.966156 
	C652.671082,356.135925 655.542419,364.045105 656.981934,372.175720 
	C659.045898,383.833191 655.189880,396.370514 662.110046,407.384430 
	C662.272400,407.642792 662.237244,408.031799 662.273010,408.362152 
	C663.831848,422.748688 666.166504,437.000763 668.712280,451.252350 
	C670.070007,458.852783 673.763000,466.340485 671.526367,474.504059 
	C671.142029,475.906982 671.793579,478.826904 672.636475,479.120056 
	C676.348083,480.410919 675.604187,483.692719 676.080811,486.108551 
	C681.746277,514.824646 687.588684,543.494568 694.880676,571.857727 
	C695.875854,575.728882 697.538879,577.019592 701.379700,576.787109 
	C715.527344,575.930908 729.423828,573.546570 743.278015,570.670410 
	C747.833008,569.724792 749.239136,567.630432 748.686890,563.134644 
	C746.114502,542.190186 743.729736,521.222595 741.295959,500.261169 
	C738.746948,478.306366 736.160706,456.355621 733.698669,434.390991 
	C731.532776,415.068817 730.144287,395.635956 727.270386,376.422791 
	C723.855835,353.594971 719.297119,330.935638 715.096069,308.228851 
	C709.228027,276.511719 702.703308,244.924088 695.450317,213.496979 
	C691.711792,197.297684 688.381165,180.950333 681.713379,164.775757 
M506.259064,220.500916 
	C506.246338,246.817703 506.336578,273.135315 506.127502,299.450562 
	C506.089111,304.280548 508.282776,304.890839 512.216187,304.759003 
	C516.041748,304.630737 519.054626,304.607666 518.862427,299.283844 
	C518.532043,290.134277 518.821045,280.963501 518.747498,271.802460 
	C518.733704,270.087494 519.291321,268.062622 517.017334,266.629303 
	C513.940002,269.343079 510.850555,269.268402 508.525177,265.539185 
	C506.941650,262.999695 507.149506,260.292145 509.499634,258.312836 
	C514.584351,254.030411 516.319336,259.663483 519.307495,262.419769 
	C520.193359,257.981781 518.748047,254.288467 518.625366,250.520706 
	C518.166077,236.409836 519.597046,222.328445 518.840088,208.197678 
	C518.334290,198.755142 519.349915,189.213120 519.233521,179.785202 
	C519.081543,167.477539 518.726868,155.166916 519.003784,142.853470 
	C519.204163,133.941010 519.092346,133.800690 510.258209,133.474411 
	C507.488739,133.372131 506.306061,134.291412 506.434509,137.203049 
	C506.712280,143.499985 506.919464,149.807983 506.877533,156.109619 
	C506.736908,177.240784 506.474243,198.371140 506.259064,220.500916 
M491.795502,102.647552 
	C503.908020,107.523949 511.193726,116.107559 511.570221,129.624588 
	C513.191162,129.158966 513.066162,128.442413 513.156311,127.800972 
	C514.587219,117.627190 519.311401,109.712860 528.657288,104.835747 
	C533.514648,102.300957 538.320129,99.645264 542.996765,96.794456 
	C545.428650,95.312050 548.295044,94.045380 549.273254,90.925522 
	C539.428040,84.562561 482.785767,84.790581 475.296509,91.443817 
	C479.695587,96.414253 485.605408,99.103653 491.795502,102.647552 
M524.092590,82.295830 
	C533.150391,81.220367 542.021606,82.560432 550.731140,84.803322 
	C554.340515,85.732796 556.415222,85.179993 557.549255,81.515144 
	C558.606323,78.099159 559.260010,75.142754 554.938171,73.300392 
	C551.689819,71.915665 548.362610,71.009079 544.947449,70.330368 
	C527.035645,66.770676 508.976624,66.649704 490.904388,68.515068 
	C484.331085,69.193550 477.730774,70.247017 471.455475,72.560478 
	C467.375031,74.064804 466.622162,77.045631 467.675629,80.996025 
	C468.758514,85.056610 471.410614,84.837852 474.665100,84.214798 
	C482.997345,82.619659 491.355957,81.466087 499.922119,81.970276 
	C507.670074,82.426292 515.452393,82.299660 524.092590,82.295830 
M483.006500,120.469376 
	C488.913849,123.975288 495.348267,126.145599 501.898499,128.076126 
	C505.088837,129.016403 506.080200,127.608383 505.476898,124.871094 
	C504.114624,118.690468 501.625793,113.436569 495.268585,110.482407 
	C482.210327,104.414299 469.542175,97.687851 463.227509,83.497704 
	C457.965881,87.970078 456.890839,93.411324 459.417480,98.887329 
	C464.167236,109.181450 472.985687,114.902695 483.006500,120.469376 
M548.894348,116.411369 
	C556.216614,111.706322 561.585571,105.224724 565.758423,97.697098 
	C568.471924,92.802147 567.306580,87.382500 562.819763,83.422661 
	C561.847412,85.159058 561.200684,87.209572 559.851074,88.554977 
	C555.924072,92.469673 552.382507,96.490959 547.384094,99.673340 
	C541.777710,103.242905 536.419861,107.472275 530.320984,110.302650 
	C525.214844,112.672325 522.080017,116.365395 520.485840,121.546661 
	C519.928894,123.356773 518.291992,125.389191 520.060242,127.139816 
	C521.665833,128.729385 523.953735,127.879181 525.770569,127.311287 
	C533.735229,124.821732 541.331055,121.481575 548.894348,116.411369 
M347.712585,864.363647 
	C349.192413,820.341736 350.672241,776.319763 352.152069,732.297852 
	C346.611115,789.194397 343.592041,846.238342 339.662750,903.174866 
	C344.069977,904.547668 345.979004,903.125305 346.157104,899.210999 
	C346.671112,887.915894 347.181549,876.620544 347.712585,864.363647 
M684.676697,891.719177 
	C681.322144,842.655090 677.967529,793.591003 674.612976,744.526978 
	C674.098999,748.044006 673.995728,751.533447 674.115295,755.015320 
	C675.113647,784.090454 676.108032,813.165833 677.196167,842.237671 
	C677.905640,861.192139 678.830933,880.138672 679.512634,899.093994 
	C679.650940,902.939087 681.016357,904.558777 684.700623,903.749451 
	C684.700623,899.913513 684.700623,896.281921 684.676697,891.719177 
M684.858826,574.501099 
	C687.205505,578.404480 690.258423,576.911621 693.654846,575.876770 
	C686.822815,550.104797 681.395203,524.369080 675.466125,498.716736 
	C678.510254,523.714478 681.554382,548.712280 684.858826,574.501099 
M517.738647,308.684937 
	C514.996033,307.667938 512.143738,308.380341 509.348175,308.176819 
	C507.316284,308.028839 506.220276,309.198029 506.249664,311.200409 
	C506.356689,318.499512 505.715332,325.818207 506.651672,333.093994 
	C507.075226,336.385193 509.353943,339.207794 512.249878,339.160645 
	C515.577271,339.106445 518.539062,336.398712 518.686279,332.656891 
	C518.992188,324.884247 519.540405,317.078461 517.738647,308.684937 
z"/>
<path fill="#000000" opacity="1.000000" stroke="none" 
	d="
M659.528992,727.441711 
	C657.442017,747.296143 655.422424,766.704102 653.402832,786.112122 
	C652.749878,786.041138 652.096863,785.970093 651.443909,785.899109 
	C654.462769,751.715637 657.961060,717.581787 662.857910,683.587341 
	C663.121704,698.175964 661.410156,712.589844 659.528992,727.441711 
z"/>
<path fill="#000000" opacity="1.000000" stroke="none" 
	d="
M373.838196,785.359192 
	C373.904266,788.438293 373.904266,791.074280 373.904266,793.710327 
	C373.585815,793.737000 373.267365,793.763672 372.948914,793.790344 
	C370.184814,768.935120 367.420746,744.079895 364.656677,719.224670 
	C365.263855,719.150269 365.871033,719.075928 366.478210,719.001526 
	C370.081818,740.822388 370.400574,763.065491 373.838196,785.359192 
z"/>
<path fill="#000000" opacity="1.000000" stroke="none" 
	d="
M338.834900,345.041260 
	C335.337646,335.970215 331.897095,327.270447 334.183563,316.272583 
	C336.921173,319.829407 335.402435,322.563324 335.711029,324.994080 
	C337.371460,338.072937 343.424957,349.355499 349.672913,360.563507 
	C353.321503,367.108582 357.349915,373.441010 361.134613,379.911682 
	C362.020355,381.426056 363.435852,382.806793 362.736786,386.536255 
	C353.570068,372.561920 345.180969,359.645081 338.834900,345.041260 
z"/>
<path fill="#000000" opacity="1.000000" stroke="none" 
	d="
M344.056396,390.681885 
	C349.562988,390.711151 354.508057,391.101257 358.745789,394.321106 
	C353.268402,394.382202 348.000671,392.856293 342.542450,393.120667 
	C334.971802,393.487366 333.577209,395.895020 337.481171,402.359131 
	C338.300018,403.714996 339.592621,404.871582 339.602173,407.668549 
	C335.459045,404.527893 333.128357,401.184021 332.842041,396.738708 
	C332.639252,393.590454 334.822662,391.909546 337.673920,391.300751 
	C339.603424,390.888763 341.616669,390.868988 344.056396,390.681885 
z"/>
<path fill="#000000" opacity="1.000000" stroke="none" 
	d="
M676.250183,359.276917 
	C683.358826,346.063263 690.090454,333.103912 689.665771,317.007538 
	C692.641174,319.761993 692.204041,322.485504 691.871277,325.124237 
	C690.041260,339.634155 683.677979,352.394592 676.232849,364.657562 
	C671.712158,372.103607 666.700867,379.251862 661.581055,387.033875 
	C660.005493,384.121124 661.384216,382.658020 662.429626,381.032074 
	C667.009827,373.908478 671.527222,366.744568 676.250183,359.276917 
z"/>
<path fill="#000000" opacity="1.000000" stroke="none" 
	d="
M687.317810,391.024231 
	C693.392151,393.572571 694.059326,396.597534 690.043945,401.711121 
	C688.994690,400.812378 689.812256,399.856781 690.081055,399.061890 
	C691.441284,395.040710 689.516235,393.492249 685.832642,393.164825 
	C679.358154,392.589355 673.013733,393.607178 666.622253,394.574707 
	C672.835388,390.367249 679.849365,390.560303 687.317810,391.024231 
z"/>
<path fill="#000000" opacity="1.000000" stroke="none" 
	d="
M508.669617,218.114929 
	C511.139465,215.556183 513.639343,214.403549 516.204590,217.055786 
	C518.186218,219.104645 518.879944,221.759613 517.095032,224.298935 
	C515.681274,226.310181 513.534668,227.586044 511.077606,226.312469 
	C507.822998,224.625458 506.782928,221.900299 508.669617,218.114929 
z"/>
<path fill="#000000" opacity="1.000000" stroke="none" 
	d="
M514.444946,185.309555 
	C510.563019,185.815552 508.311005,184.305847 507.787506,180.793930 
	C507.390656,178.131729 509.010803,176.396530 511.333435,175.516998 
	C513.853271,174.562820 515.956604,175.686432 517.218140,177.811218 
	C519.124756,181.022461 517.639893,183.404343 514.444946,185.309555 
z"/>
<path fill="#000000" opacity="1.000000" stroke="none" 
	d="
M508.264252,138.779449 
	C510.022644,136.644501 511.726013,134.894684 514.362000,135.933487 
	C516.501953,136.776764 517.752563,138.554657 517.831970,140.931198 
	C517.907410,143.185043 516.606018,144.656738 514.716797,145.587448 
	C510.877960,147.478653 507.834229,144.491440 508.264252,138.779449 
z"/>
</svg>