<svg version="1.1" id="Layer_1" xmlns="http://www.w3.org/2000/svg" xmlns:xlink="http://www.w3.org/1999/xlink" x="0px" y="0px"
	 width="1024" height="1024" viewBox="0 0 1024 1024" enable-background="new 0 0 1024 1024" xml:space="preserve">
<path fill="#000000" opacity="1.000000" stroke="none" 
	d="
M701.509399,505.540466 
	C725.092651,553.388000 749.285339,600.501465 774.322083,647.176819 
	C802.269592,699.278870 830.467590,751.246643 858.408325,803.352295 
	C870.136475,825.223816 881.515137,847.283264 892.984863,869.292542 
	C896.340332,875.731445 896.257080,875.862061 889.885803,879.786743 
	C887.054016,881.531006 884.085876,883.058411 881.147095,884.623230 
	C878.822815,885.860840 876.631592,886.621460 876.819031,890.327576 
	C876.977783,893.465759 873.188049,894.350159 870.848572,895.703003 
	C856.251343,904.144348 840.908142,911.073059 825.216248,917.163086 
	C799.580017,927.112549 773.115417,934.562561 746.886047,942.734070 
	C725.874023,949.280090 704.488770,954.467407 682.951904,958.492004 
	C668.004883,961.285095 652.612732,962.265808 637.443726,964.234558 
	C607.395630,968.134399 577.276123,971.372437 547.047668,973.363098 
	C522.096130,975.006226 497.135284,974.074951 472.182617,972.525696 
	C448.570404,971.059692 425.084442,968.414673 401.672607,965.232544 
	C377.457397,961.941345 353.121857,959.438965 329.200409,954.059570 
	C292.266663,945.753967 256.251312,934.424805 220.528519,922.057007 
	C200.806274,915.228882 181.678177,907.048035 163.667923,896.454041 
	C159.970398,894.278992 154.393570,893.411316 154.979462,886.969666 
	C155.034134,886.368469 153.320374,885.524902 152.346268,884.926453 
	C148.798508,882.746948 145.265152,880.536255 141.633804,878.502625 
	C137.640839,876.266357 136.978638,873.534424 139.169876,869.435181 
	C152.597778,844.314026 165.829330,819.088074 179.214935,793.944214 
	C199.178543,756.444031 219.000473,718.866150 239.279984,681.537109 
	C260.834320,641.861511 281.465363,601.706055 302.256836,561.634888 
	C311.152100,544.491150 319.055786,526.835876 327.650269,509.532410 
	C346.405884,471.771423 362.951782,433.007080 380.029846,394.487122 
	C394.341003,362.207916 408.244446,329.748108 422.381805,297.391571 
	C424.706543,292.070923 423.513336,286.148712 425.532013,280.782959 
	C426.167419,279.094055 426.248779,277.201935 426.640656,275.415314 
	C428.689667,266.073242 428.675507,266.154266 438.096252,268.576538 
	C474.136353,277.843201 510.658295,279.743835 547.637451,276.237610 
	C563.947693,274.691132 579.899536,271.582428 595.695190,267.512482 
	C599.836792,266.445343 601.671326,267.832489 602.502686,271.579437 
	C603.511108,276.124054 604.998230,280.631439 605.383850,285.229950 
	C606.055786,293.242737 609.300415,300.307587 612.445801,307.444824 
	C632.055542,351.941742 651.564941,396.483795 671.405762,440.877625 
	C681.054626,462.466949 691.348816,483.767792 701.509399,505.540466 
M515.253418,773.500000 
	C515.244385,823.982605 515.248535,874.465271 515.196411,924.947815 
	C515.192993,928.283386 515.329590,930.922668 519.858154,930.613098 
	C527.664307,930.079285 535.508545,930.065002 543.305664,929.442322 
	C571.330322,927.204102 599.249390,923.935791 627.152344,920.531311 
	C636.681519,919.368652 646.319397,919.033997 655.763550,917.076416 
	C656.237976,914.265320 655.581787,911.853394 655.111267,909.424927 
	C651.061462,888.522156 646.915955,867.637329 642.986755,846.711914 
	C635.376831,806.184143 627.900757,765.631287 620.345886,725.093201 
	C616.417297,704.013855 612.498413,682.932495 608.468872,661.872314 
	C602.155945,628.877563 596.027039,595.852600 590.352966,562.738831 
	C584.879700,530.796387 578.716736,498.972626 573.158386,467.044189 
	C567.741760,435.929810 562.624207,404.762482 557.533813,373.592499 
	C554.131836,352.761017 550.954529,331.892181 547.818848,311.018677 
	C547.380676,308.101837 546.294434,307.002899 543.330872,307.177551 
	C535.189270,307.657318 527.037537,307.993866 518.885437,308.249115 
	C516.168213,308.334167 514.877197,309.436584 514.953247,312.161194 
	C514.995117,313.659271 514.945984,315.159760 514.947021,316.659149 
	C515.050659,468.606110 515.155090,620.553040 515.253418,773.500000 
M512.077332,507.500000 
	C512.077393,494.833740 512.084656,482.167511 512.076172,469.501251 
	C512.041321,417.837372 511.950623,366.173401 512.050354,314.509766 
	C512.059326,309.850769 510.861969,308.059418 505.931854,308.089966 
	C498.457245,308.136322 490.966125,307.477356 483.505707,306.840546 
	C480.745697,306.604950 479.638153,307.259155 479.264435,310.111786 
	C477.623871,322.633789 475.947937,335.156006 473.967041,347.627686 
	C468.723572,380.640228 463.525299,413.662354 457.917603,446.614044 
	C451.419434,484.798157 444.584686,522.925720 437.744995,561.050781 
	C431.872833,593.782776 425.810730,626.480713 419.790710,659.186035 
	C413.865326,691.377075 407.991119,723.578003 401.908539,755.739441 
	C392.207336,807.034729 382.355682,858.301453 372.557587,909.578369 
	C371.295105,916.185364 371.977539,917.111389 378.549500,917.731995 
	C380.701355,917.935181 382.828033,918.393127 384.977234,918.638306 
	C410.603638,921.562439 436.210815,924.676086 461.868164,927.298950 
	C476.606140,928.805481 491.430725,929.451111 506.206512,930.609680 
	C510.506195,930.946838 512.523560,929.393066 512.062744,924.976501 
	C511.959534,923.987366 512.049072,922.978210 512.049133,921.978271 
	C512.058899,784.152161 512.068665,646.326111 512.077332,507.500000 
M638.101135,803.470703 
	C638.291748,804.949829 638.405396,806.443665 638.684204,807.905945 
	C644.899963,840.501648 651.058472,873.108459 657.400574,905.679626 
	C660.011353,919.087708 656.991028,917.194458 671.570068,915.069153 
	C704.622864,910.250854 736.163818,899.334534 768.169983,890.307190 
	C772.171936,889.178467 772.982727,887.538086 771.575073,883.524597 
	C753.330505,831.507812 735.209656,779.447510 717.137634,727.370422 
	C693.502319,659.261658 669.943604,591.126343 646.341553,523.006042 
	C629.274231,473.746216 613.220642,424.163422 599.015381,373.996399 
	C592.799927,352.045807 586.641479,330.074554 581.427429,307.859436 
	C580.366272,303.338135 578.502686,301.887665 573.737915,303.059570 
	C567.784302,304.523865 561.627319,305.381805 555.507507,305.880707 
	C550.578308,306.282593 549.912476,308.569946 550.645752,312.802002 
	C552.687805,324.586609 554.424255,336.423767 556.348206,348.229309 
	C561.159546,377.752472 565.813171,407.303192 570.893494,436.780182 
	C576.508423,469.359070 582.552612,501.863800 588.363525,534.409058 
	C593.298279,562.047363 598.081055,589.712952 603.091980,617.337280 
	C607.199707,639.981750 611.637939,662.566284 615.755859,685.208923 
	C619.431702,705.421143 623.799194,725.497192 627.178589,745.771729 
	C630.361084,764.864746 634.259033,783.838379 638.101135,803.470703 
M431.559845,365.958557 
	C424.428528,392.138428 416.691620,418.141754 408.632965,444.048126 
	C396.367798,483.477112 382.768585,522.464294 369.288544,561.485229 
	C344.555237,633.080872 319.527252,704.574707 294.649780,776.120605 
	C282.291260,811.662842 270.059570,847.249451 257.582306,882.749756 
	C256.105011,886.952942 256.845856,888.847473 261.168213,889.793823 
	C264.733215,890.574463 268.189178,891.857788 271.686951,892.939453 
	C300.636902,901.892212 329.660034,910.596313 359.687531,915.247131 
	C370.268768,916.886047 368.140747,917.168457 370.048737,908.550293 
	C370.479187,906.606018 370.757233,904.628418 371.126984,902.670227 
	C376.985809,871.643250 382.892456,840.625244 388.697754,809.588257 
	C395.201019,774.819458 401.612274,740.033447 408.065430,705.255310 
	C414.890991,668.470581 421.842896,631.708801 428.513947,594.896118 
	C436.874054,548.762573 445.087677,502.602142 453.201813,456.424713 
	C457.832397,430.072083 462.295349,403.687653 466.543121,377.270782 
	C470.078735,355.282776 473.133728,333.217865 476.541412,311.208649 
	C477.164825,307.182312 475.475769,305.840118 471.839478,305.422882 
	C465.893890,304.740631 459.889252,304.187500 454.076904,302.851654 
	C449.437592,301.785431 447.450592,302.957458 446.418488,307.608276 
	C442.127594,326.943085 437.172943,346.117676 431.559845,365.958557 
M739.190247,781.446350 
	C743.220581,793.087708 747.263184,804.724854 751.278748,816.371338 
	C758.930603,838.564514 766.644043,860.737061 774.135864,882.984192 
	C775.426392,886.816406 777.009521,887.938660 780.947571,886.480103 
	C786.245483,884.517944 791.779541,883.203369 797.173279,881.488159 
	C816.273376,875.413940 834.644104,867.598938 852.295227,858.110596 
	C858.173950,854.950500 858.107117,854.880127 855.110413,848.662720 
	C851.421997,841.009827 847.743530,833.351746 844.117981,825.669006 
	C805.156250,743.105896 763.379944,661.936646 722.369507,580.392456 
	C683.025330,502.161285 648.257080,422.032440 619.465515,339.320007 
	C615.031921,326.583191 610.251648,313.966492 605.563171,301.319641 
	C604.905273,299.544922 604.473145,296.873505 601.802917,297.453461 
	C595.540405,298.813721 589.114746,299.635590 583.247070,301.805847 
	C583.157288,302.670105 583.029785,303.019287 583.103455,303.318970 
	C584.413086,308.644684 585.692993,313.978546 587.084167,319.283173 
	C606.901917,394.853210 630.458008,469.254944 656.632507,542.853516 
	C667.952026,574.682129 678.666260,606.725830 689.710876,638.652527 
	C706.093506,686.009827 722.525452,733.350098 739.190247,781.446350 
M424.059845,381.680145 
	C431.203339,356.707489 437.872192,331.610626 444.031769,306.375427 
	C444.939148,302.658020 444.496490,300.684204 440.308838,300.181854 
	C437.522278,299.847595 434.713531,299.115662 432.095398,298.097168 
	C428.220154,296.589630 426.229004,297.898743 424.899780,301.604645 
	C421.470184,311.166565 417.665955,320.596436 414.344055,330.194214 
	C389.967712,400.623596 362.492371,469.794037 330.156464,536.973206 
	C300.461365,598.666077 268.872650,659.418457 238.524948,720.788269 
	C217.257629,763.795532 195.957611,806.785461 175.844986,850.352112 
	C174.460556,853.351013 173.975769,855.130005 177.501907,857.131042 
	C200.116043,869.964417 224.309189,878.786194 249.142273,886.104126 
	C252.351349,887.049744 253.640076,886.072754 254.644577,883.154114 
	C276.540131,819.537720 298.476288,755.935303 320.441650,692.342957 
	C337.621918,642.604004 354.803955,592.865601 372.073425,543.157593 
	C390.547394,489.982361 408.485718,436.637238 424.059845,381.680145 
M393.790466,960.592896 
	C409.182922,962.062622 424.475525,964.359924 439.852875,966.014038 
	C477.545532,970.068481 515.244568,971.143188 553.080322,968.833435 
	C580.489197,967.160217 607.755859,964.211670 634.960938,960.594666 
	C652.746460,958.230042 670.622620,956.365967 688.281494,953.270203 
	C718.664307,947.943665 748.067261,938.692688 777.483154,929.577820 
	C807.115112,920.395996 836.345215,910.223572 863.818115,895.578552 
	C873.670105,890.326721 873.706421,890.279907 869.319763,880.000427 
	C866.802612,874.101746 864.092102,868.285461 861.581909,862.684875 
	C857.811157,863.090698 855.765381,866.062378 852.165466,865.592102 
	C854.106140,862.619324 858.515625,862.841736 859.481750,859.142761 
	C857.309570,858.315857 856.062378,859.751038 854.726318,860.512024 
	C833.177185,872.786011 810.171082,881.473511 786.449829,888.431946 
	C761.549988,895.736206 736.687439,903.168945 711.760742,910.380005 
	C698.157104,914.315308 684.355896,917.793579 670.294250,919.274841 
	C630.407898,923.476685 590.687134,929.050781 550.726990,932.715393 
	C515.276672,935.966431 480.148254,933.734253 445.099091,929.364441 
	C419.331390,926.151794 393.498444,923.534851 367.745361,920.222656 
	C352.352234,918.242859 337.203003,915.067078 322.224762,911.120850 
	C298.556671,904.885315 275.211578,897.525452 251.743805,890.588623 
	C226.267105,883.057922 201.271866,874.573547 178.157532,861.235046 
	C176.520966,860.290649 174.847397,859.410278 173.191055,858.500061 
	C172.980194,858.886475 172.769333,859.272827 172.558487,859.659241 
	C178.574142,865.241943 187.195145,866.777222 193.200333,872.480591 
	C185.131485,870.567505 178.502945,865.580994 170.703125,861.566833 
	C167.236313,869.208984 164.121658,876.713745 160.443909,883.931580 
	C158.388885,887.964661 159.215576,889.959167 163.013138,892.202454 
	C181.317368,903.015381 200.680771,911.418152 220.723022,918.360046 
	C260.854797,932.260254 301.193817,945.490479 343.107239,953.024414 
	C359.618927,955.992310 376.297028,958.034424 393.790466,960.592896 
M668.845886,443.560791 
	C656.045105,414.490143 643.244324,385.419464 630.443542,356.348816 
	C631.708313,363.176361 633.743347,369.655579 636.090271,376.019806 
	C653.619019,423.551453 673.265137,470.212036 694.817749,516.043213 
	C720.042847,569.684021 747.201538,622.378723 773.890747,675.298645 
	C799.168152,725.419006 824.076660,775.716858 848.130066,826.436890 
	C852.104431,834.817444 856.163513,843.157776 860.370728,851.906250 
	C865.902466,849.250122 870.895203,846.834167 875.709595,843.555542 
	C874.766052,841.671509 874.063599,840.181885 873.287292,838.731934 
	C862.594055,818.759583 851.895874,798.789917 841.188721,778.825073 
	C811.901794,724.215759 782.433716,669.702820 753.369324,614.975342 
	C723.596741,558.914429 695.075134,502.221954 668.845886,443.560791 
M367.998871,443.583160 
	C380.258881,413.928741 391.801971,384.003571 402.016693,353.568634 
	C399.124573,359.525909 396.397797,365.551239 393.765350,371.617493 
	C367.445038,432.270111 340.795135,492.775635 310.981934,551.818237 
	C283.580048,606.085449 255.208496,659.848022 226.387695,713.375977 
	C205.306793,752.528931 184.551453,791.857178 163.535339,831.045227 
	C156.067520,844.970337 155.911621,844.887451 170.488937,851.126892 
	C170.621735,851.183838 170.814011,851.101868 171.113068,851.070740 
	C172.902313,849.801819 173.483978,847.639343 174.388474,845.725647 
	C179.583344,834.734375 184.687500,823.700256 189.879852,812.707703 
	C225.233902,737.861145 262.937744,664.174500 300.074615,590.212646 
	C324.150330,542.263550 347.165833,493.859680 367.998871,443.583160 
M558.494446,301.771149 
	C572.150513,299.798157 585.695190,297.266235 599.120239,294.050415 
	C602.413879,293.261475 603.054016,291.420166 602.491516,288.608551 
	C601.611206,284.208710 600.488708,279.850800 599.778687,275.425446 
	C599.176270,271.671082 597.513733,270.971649 593.900513,271.879608 
	C544.311584,284.340881 494.517761,284.710602 444.575592,274.083496 
	C429.678589,270.913635 429.691895,271.034271 428.211456,286.853851 
	C427.771484,291.555573 428.991760,293.696930 433.768433,294.871521 
	C453.860504,299.812378 474.224518,302.538361 494.849060,303.885315 
	C515.856323,305.257233 536.742371,304.314240 558.494446,301.771149 
M891.005066,872.945679 
	C887.751526,866.599854 884.502991,860.251526 881.241516,853.909790 
	C880.247437,851.976990 879.267456,849.990479 876.038818,851.271973 
	C876.635437,850.150879 876.865662,849.729065 877.085876,849.302124 
	C877.429321,848.636292 877.478333,848.046326 876.053162,847.454712 
	C871.730957,849.856934 867.066101,852.449585 862.344421,855.073853 
	C863.605774,857.002441 865.145874,855.083252 865.985840,856.762024 
	C865.745728,858.319092 863.058228,859.069702 864.354187,861.674683 
	C867.527405,868.052856 870.249634,874.654785 873.186218,881.151794 
	C873.737427,882.371338 874.574097,883.960205 876.077759,883.182190 
	C881.395203,880.430420 887.512756,878.875061 891.005066,872.945679 
M152.245209,852.196655 
	C149.041031,858.217041 145.808563,864.222656 142.653885,870.268921 
	C141.927170,871.661743 140.500717,873.342163 142.431381,874.701111 
	C147.119370,878.001038 151.934723,881.124939 157.741379,883.421936 
	C161.272949,873.303711 166.946381,864.786194 169.584290,854.552429 
	C164.776520,852.028931 160.247665,849.651794 154.978149,846.885925 
	C156.038116,850.976624 160.083862,850.627930 161.063034,853.752808 
	C157.724915,853.938965 155.900940,849.773804 152.245209,852.196655 
z"/>
<path fill="#000000" opacity="1.000000" stroke="none" 
	d="
M551.088257,77.096901 
	C562.498718,67.862770 569.383545,56.077190 573.576599,42.590923 
	C574.376221,40.018745 575.546265,38.262951 578.429382,38.774113 
	C594.322754,41.591888 610.621643,43.711155 624.176758,53.269299 
	C635.586243,61.314499 646.152954,70.556465 657.074219,79.291893 
	C663.575378,84.491859 669.968750,89.829559 676.550842,94.924088 
	C680.102234,97.672859 680.667603,100.402077 678.110657,104.216217 
	C665.678894,122.760452 652.673340,140.885361 639.050598,158.572296 
	C636.961060,161.285187 634.741089,161.555664 631.655823,160.235901 
	C625.234680,157.489166 619.399658,153.627594 613.076477,150.426422 
	C610.450867,153.184265 611.040039,156.588623 610.471008,159.525589 
	C606.454285,180.256744 602.627869,201.025055 598.812134,221.794632 
	C598.152039,225.387619 597.773987,229.036469 597.365356,232.670715 
	C596.618958,239.308533 596.650024,239.317596 589.735291,239.297897 
	C554.920227,239.198746 520.105286,239.050323 485.290161,239.015823 
	C469.299774,238.999985 453.309204,239.215668 437.318604,239.306152 
	C429.984009,239.347656 429.832214,239.328033 428.881104,232.067780 
	C426.181580,211.461136 421.897064,191.148911 417.752258,170.807281 
	C416.430115,164.318558 415.307678,157.789169 414.037598,150.976685 
	C409.432983,151.494324 406.122314,154.490036 402.305939,156.267258 
	C389.212097,162.364868 392.021301,164.128540 382.427612,152.028976 
	C371.243866,137.924026 361.063049,123.092545 350.781952,108.333855 
	C350.401642,107.787888 350.052032,107.219299 349.709930,106.648186 
	C345.108521,98.966927 345.299194,98.534309 352.359894,92.858292 
	C365.339020,82.424538 378.570251,72.262611 391.025726,61.230194 
	C405.418793,48.481518 422.926544,43.828632 440.913239,39.971493 
	C450.560944,37.902603 450.477203,38.031994 454.044098,47.240173 
	C463.033356,70.446396 479.044922,85.622986 504.242920,89.111610 
	C521.136658,91.450523 537.106750,88.419762 551.088257,77.096901 
 
M573.660950,186.220886 
	C571.192383,186.994965 568.865295,187.979523 568.530212,190.987411 
	C567.295715,202.070435 566.343323,213.172272 566.275940,224.337570 
	C566.261841,226.677704 567.159973,227.610764 569.526917,227.587921 
	C577.652832,227.509521 585.780090,227.557816 594.004333,227.557816 
	C594.194702,227.145706 594.510925,226.724060 594.584839,226.263519 
	C598.644836,200.979553 603.525635,175.847778 608.496765,150.731491 
	C609.067383,147.848511 609.623047,145.022430 608.667908,141.911072 
	C599.726318,112.784904 598.787842,83.368340 606.139465,53.773994 
	C606.979187,50.393982 606.119202,48.716682 602.880859,47.917549 
	C598.520386,46.841492 594.231201,45.374443 589.817505,44.638275 
	C581.588440,43.265743 582.741211,41.274685 579.427490,50.511822 
	C572.123047,70.872925 559.190369,85.666260 538.234192,93.047516 
	C527.825745,96.713600 517.243347,96.343895 506.626129,96.282196 
	C497.019623,96.226357 487.824707,93.902870 479.340027,89.278786 
	C462.539734,80.122772 451.716766,66.096626 446.300507,47.880539 
	C445.173065,44.088696 443.481995,42.620068 439.493958,43.752365 
	C434.536072,45.160042 429.486694,46.260693 424.449158,47.368080 
	C420.472687,48.242214 419.164215,49.930519 420.212891,54.383614 
	C426.899261,82.777252 426.545685,111.114395 418.402039,139.215714 
	C417.078308,143.783554 416.935486,148.139420 417.884918,152.843674 
	C422.654297,176.474594 427.668182,200.064713 431.299408,223.908478 
	C431.710571,226.608215 432.750763,227.737686 435.404999,227.714417 
	C441.898834,227.657486 448.397369,227.546173 454.886292,227.729630 
	C458.924988,227.843796 459.937561,226.087967 459.884308,222.291489 
	C459.736969,211.786331 458.545471,201.374741 457.691986,190.929306 
	C457.478607,188.317856 456.234467,187.045471 453.891113,186.392487 
	C449.343048,185.125198 445.125641,183.139313 441.594940,179.971252 
	C439.686249,178.258606 437.111847,176.863174 436.880035,172.773117 
	C442.893921,177.575287 447.997498,182.325027 455.569519,183.182938 
	C454.947937,176.064728 451.842377,169.883255 452.818146,163.124161 
	C454.696228,167.353378 455.873474,171.727158 457.028198,176.106873 
	C459.468933,185.363968 459.864594,185.556915 469.558563,185.731842 
	C472.298187,185.781265 475.244110,184.491913 478.623535,186.482010 
	C472.213776,189.055878 466.231384,188.039581 459.965576,188.017014 
	C460.816528,199.550491 462.729706,210.729721 462.304260,222.016632 
	C462.138947,226.401077 463.805023,227.865814 468.098785,227.802414 
	C481.087067,227.610519 494.079742,227.708572 507.070709,227.703339 
	C524.060425,227.696487 541.050110,227.704376 558.039795,227.691910 
	C560.778809,227.689896 563.615112,227.780701 563.641846,223.806473 
	C563.721130,212.001938 564.872070,200.271210 566.352783,188.340759 
	C560.861694,187.351349 555.137756,189.674103 549.716370,186.854019 
	C550.976257,185.509277 552.020020,185.640259 552.998840,185.631012 
	C569.625000,185.473999 566.475220,186.114288 570.825317,171.210663 
	C571.601318,168.552017 570.920410,165.270187 573.938232,162.664001 
	C575.057190,170.198685 571.225342,176.362061 570.591003,183.434372 
	C578.919861,182.432053 584.136108,176.405838 590.602295,172.753540 
	C587.153442,179.722580 581.056519,183.207504 573.660950,186.220886 
M607.475037,123.943054 
	C607.825928,125.896378 608.262085,127.838806 608.513428,129.804855 
	C609.829102,140.094513 613.646851,148.430542 624.174927,152.622910 
	C627.577820,153.977982 629.294922,154.004410 631.562317,151.002182 
	C644.482361,133.895264 657.166138,116.621513 669.474487,99.068558 
	C671.468933,96.224251 670.294189,94.598633 668.089294,92.824265 
	C661.861572,87.812561 655.835693,82.541130 649.485413,77.692726 
	C638.907043,69.616135 629.216736,60.334476 617.671021,53.577690 
	C611.178040,49.777885 610.023438,50.527779 608.449036,57.853191 
	C603.776917,79.591324 603.527588,101.391930 607.475037,123.943054 
M394.650604,149.873260 
	C396.274780,151.312744 397.173248,154.628876 400.018768,153.272781 
	C406.811096,150.035736 413.661987,147.450211 415.827454,138.322235 
	C420.949280,116.732224 422.845612,95.038155 420.455841,73.036469 
	C419.642242,65.546097 418.641663,57.960152 415.896240,50.344971 
	C409.945587,51.998875 405.129700,54.822399 400.733246,58.365623 
	C386.876251,69.533394 373.135040,80.845673 359.213043,91.931282 
	C356.029297,94.466400 355.839020,96.633232 358.048462,99.883781 
	C369.532410,116.779205 381.674347,133.188248 394.650604,149.873260 
M540.499939,234.984756 
	C546.993347,234.957092 553.487000,234.957214 559.979919,234.883301 
	C561.718018,234.863525 563.486511,234.543884 563.339478,232.195984 
	C563.210022,230.128494 561.765137,229.419861 559.883667,229.405869 
	C558.886230,229.398438 557.888367,229.445236 556.890747,229.472961 
	C531.434204,230.180756 505.977142,229.975662 480.519226,229.549011 
	C476.060944,229.474304 471.594360,229.443573 467.142853,229.643036 
	C465.422943,229.720093 463.179474,229.921509 463.348633,232.584976 
	C463.496429,234.911438 465.401733,234.846970 467.071991,234.920822 
	C468.401917,234.979630 469.735504,234.966949 471.067444,234.967346 
	C493.878296,234.974060 516.689148,234.977859 540.499939,234.984756 
M361.298309,117.233902 
	C370.351379,129.589157 379.416992,141.935211 388.448456,154.306213 
	C390.657288,157.331757 392.837067,158.849762 395.575073,154.763321 
	C393.208191,151.729218 390.955933,148.872833 388.736206,145.991379 
	C377.474304,131.372269 366.628967,116.450951 356.189636,101.232529 
	C355.318359,99.962372 354.373230,97.766571 352.416260,98.865311 
	C350.156677,100.133934 351.580017,102.143631 352.502991,103.630623 
	C355.223785,108.014015 358.090454,112.306862 361.298309,117.233902 
M634.357117,157.329025 
	C634.914917,156.988068 635.625732,156.768951 636.008484,156.288528 
	C649.783142,138.999542 662.704468,121.094017 674.715454,102.534386 
	C675.572021,101.210869 676.320068,99.687576 674.463989,98.706650 
	C672.580383,97.711205 671.872559,99.478951 671.050232,100.668190 
	C658.786133,118.404861 646.076477,135.814865 632.816772,152.821274 
	C631.344849,154.709122 630.730103,156.349197 634.357117,157.329025 
M591.634888,235.551331 
	C593.686401,234.898941 594.155090,233.281586 593.457031,231.597855 
	C592.612488,229.560867 590.327637,229.775345 588.663452,229.722366 
	C582.401062,229.522980 576.127869,229.691956 569.860901,229.591080 
	C568.003113,229.561172 566.437134,229.629730 566.277954,231.919266 
	C566.098328,234.503021 567.870667,234.844681 569.872498,234.911972 
	C576.851990,235.146500 583.830688,235.405014 591.634888,235.551331 
M435.881073,230.244308 
	C434.157562,230.306839 432.342621,230.381119 432.486877,232.784729 
	C432.632538,235.210938 434.535614,235.652374 436.428253,235.611649 
	C443.216492,235.465637 450.002686,235.212189 456.788422,234.966095 
	C458.445435,234.905991 460.394379,234.945999 460.473846,232.625977 
	C460.567169,229.900940 458.357422,230.040451 456.574432,230.043716 
	C449.954285,230.055801 443.334290,230.167068 435.881073,230.244308 
M453.308258,59.169369 
	C459.632996,71.079933 468.400177,80.617409 480.324768,87.131020 
	C485.589325,90.006706 494.702087,92.629044 498.944122,92.296089 
	C472.635620,85.690414 456.501709,68.484352 447.757843,43.411362 
	C448.114471,49.091766 450.976105,53.646210 453.308258,59.169369 
z"/>
<path fill="#000000" opacity="1.000000" stroke="none" 
	d="
M715.041626,913.044983 
	C713.864258,914.687561 712.037415,914.937988 710.251953,915.407654 
	C680.392578,923.262939 649.777527,926.449707 619.252930,930.207153 
	C597.972229,932.826782 576.698181,935.771423 555.273010,936.629700 
	C532.210815,937.553467 509.122803,939.928589 486.022827,937.098511 
	C485.384003,937.020264 484.692322,937.081055 484.207581,935.920959 
	C487.513794,934.901550 490.845459,934.831543 494.168274,935.109131 
	C516.911377,937.009155 539.545349,935.776123 562.220703,933.557617 
	C579.201416,931.896362 596.235962,930.717163 613.173096,928.620056 
	C645.302063,924.642029 677.506348,921.089233 709.018921,913.261230 
	C710.799011,912.819092 712.498962,912.098389 714.684326,912.846069 
	C715.001160,912.997131 715.041626,913.044983 715.041626,913.044983 
z"/>
<path fill="#000000" opacity="1.000000" stroke="none" 
	d="
M251.259506,893.751892 
	C253.917938,892.293518 256.146637,894.225159 258.370483,894.929199 
	C283.765808,902.969299 309.356873,910.304321 335.271729,916.465637 
	C339.947144,917.577271 344.895111,917.569092 349.407990,919.774231 
	C348.434296,921.584656 347.256134,920.999268 346.172394,920.783264 
	C324.195862,916.402100 302.559662,910.707703 281.160156,904.070374 
	C271.221527,900.987671 261.048737,898.651001 251.216309,894.320679 
	C251.033356,893.987000 251.259506,893.751892 251.259506,893.751892 
z"/>
<path fill="#000000" opacity="1.000000" stroke="none" 
	d="
M714.981689,912.972595 
	C716.176208,910.766235 718.639587,910.581543 720.548035,910.032837 
	C743.794983,903.349365 767.107605,896.894897 790.139526,889.479553 
	C791.250977,889.121765 792.574829,888.099792 794.640137,890.329041 
	C767.973694,897.878235 742.500244,907.428345 715.442017,913.057007 
	C715.041626,913.044983 715.001160,912.997131 714.981689,912.972595 
z"/>
<path fill="#000000" opacity="1.000000" stroke="none" 
	d="
M468.247620,936.069824 
	C444.449341,934.026550 421.086548,931.571533 397.881226,927.974487 
	C397.904297,926.008850 398.996033,926.299194 399.968719,926.435486 
	C421.776581,929.490234 443.737976,931.094788 465.624664,933.404663 
	C466.935883,933.543030 468.475372,933.514709 469.465485,934.202209 
	C470.755371,935.097839 469.790436,935.795898 468.247620,936.069824 
z"/>
<path fill="#000000" opacity="1.000000" stroke="none" 
	d="
M250.922043,894.106201 
	C240.962158,892.530029 231.816284,888.523071 222.363922,885.530396 
	C218.095749,884.179077 213.885529,882.600281 209.764175,880.853027 
	C208.251526,880.211731 206.063187,880.216980 205.424774,877.885437 
	C205.904205,877.655457 206.416748,877.191162 206.703262,877.303406 
	C220.745132,882.807007 235.031677,887.587463 249.468552,891.935730 
	C250.044952,892.109375 250.477249,892.761475 251.118103,893.471252 
	C251.259506,893.751892 251.033356,893.987000 250.922043,894.106201 
z"/>
<path fill="#000000" opacity="1.000000" stroke="none" 
	d="
M383.298218,923.946045 
	C386.839355,924.651733 390.243591,924.363892 393.957855,927.089233 
	C382.349091,926.678650 371.933685,925.279846 361.648834,922.927307 
	C361.701324,922.419189 361.753815,921.911133 361.806305,921.403015 
	C368.842041,922.223083 375.877808,923.043091 383.298218,923.946045 
z"/>
<path fill="#000000" opacity="1.000000" stroke="none" 
	d="
M801.530396,885.826416 
	C805.312622,885.151917 808.334778,882.856201 813.201782,882.852234 
	C808.956177,885.947205 805.159546,887.376343 801.278931,887.947632 
	C799.189209,888.255249 800.209290,886.701294 801.530396,885.826416 
z"/>
<path fill="#000000" opacity="1.000000" stroke="none" 
	d="
M354.577087,919.999634 
	C356.264221,920.805176 358.286133,919.767822 359.457031,922.062622 
	C356.277527,923.607117 353.859192,921.913818 351.057037,921.254639 
	C352.034393,918.982910 353.221405,919.709839 354.577087,919.999634 
z"/>
</svg>