<svg version="1.1" id="Layer_1" xmlns="http://www.w3.org/2000/svg" xmlns:xlink="http://www.w3.org/1999/xlink" x="0px" y="0px"
	 width="1024" height="1024" viewBox="0 0 1024 1024" enable-background="new 0 0 1024 1024" xml:space="preserve">
<path fill="#000000" opacity="1.000000" stroke="none" 
	d="
M616.805786,534.698730 
	C613.793701,541.811707 615.393005,548.755554 617.019104,555.413452 
	C623.492554,581.919006 630.266418,608.352783 637.119385,634.763672 
	C646.399048,670.527405 656.408264,706.070435 667.520752,741.330994 
	C679.740662,780.105469 693.401306,818.348694 707.466309,856.463562 
	C714.096375,874.430176 721.074890,892.268127 727.886780,910.167664 
	C730.301086,916.511597 729.825806,917.971252 723.874451,921.494995 
	C715.032104,926.730469 705.294983,929.628052 695.412292,932.068848 
	C691.145630,933.122681 687.358093,933.899414 688.680359,940.086243 
	C689.427673,943.583374 685.724060,944.992249 682.999146,946.149170 
	C673.731323,950.084412 663.971741,952.187134 654.005615,953.287231 
	C646.566528,954.108398 639.104980,954.769714 631.638000,955.273438 
	C628.080444,955.513367 628.181946,957.643066 628.501526,960.129883 
	C629.395630,967.086975 628.892822,968.316895 622.210876,970.103943 
	C592.441895,978.065674 562.587891,980.797485 532.744324,970.467590 
	C519.111084,965.748596 505.019958,968.482239 491.173523,967.421997 
	C476.112946,966.268860 463.093048,973.798523 448.836121,975.749329 
	C424.415100,979.090942 400.360565,977.710754 376.756561,970.283142 
	C372.195984,968.848083 368.800751,966.902283 370.568909,961.042725 
	C371.515839,957.904785 370.059692,956.306641 366.442383,956.062134 
	C352.505188,955.120239 338.484314,954.577087 325.027771,950.208862 
	C321.863068,949.181519 318.723511,948.061951 315.623535,946.853577 
	C312.002716,945.442017 309.741669,943.084229 310.621979,938.814941 
	C311.211823,935.954346 309.923798,934.688354 307.166962,933.882324 
	C299.830017,931.737122 292.225037,930.424683 285.250061,927.116577 
	C282.542023,925.832214 279.785858,924.616577 277.198853,923.115784 
	C269.606049,918.710999 269.208618,917.194702 272.315521,909.215027 
	C297.029968,845.739807 320.886230,781.952881 340.029907,716.529236 
	C353.722321,669.735352 365.923218,622.533508 377.809723,575.249451 
	C381.136841,562.014221 385.092316,548.942993 383.957214,534.978210 
	C382.243378,533.690063 380.163666,534.196777 378.223267,534.056702 
	C372.222534,533.623718 371.537659,532.675232 371.988678,526.594666 
	C373.637482,504.365814 375.199829,482.125305 377.811005,459.987427 
	C380.187286,439.841095 383.339539,419.792755 386.113831,399.698547 
	C389.863770,372.537720 397.025909,346.270569 405.055939,320.171478 
	C405.492462,318.752594 406.116760,317.352020 405.485840,315.469666 
	C396.999329,314.998962 388.348969,315.745941 379.780457,314.357880 
	C363.145264,311.663116 348.203278,305.273468 334.995728,294.767883 
	C331.407959,291.914093 330.409943,288.817078 331.960083,284.336182 
	C338.003082,266.868225 343.372314,249.158386 349.746552,231.815765 
	C360.980011,201.252380 369.086365,169.924500 374.758423,137.891586 
	C377.019714,125.121132 379.799896,112.439270 384.505798,100.245224 
	C390.303497,85.222038 399.942841,74.356567 415.790863,69.701454 
	C419.143860,68.716560 422.510345,67.675545 425.710297,66.290009 
	C437.419678,61.219975 448.690277,60.367199 461.791138,63.146088 
	C490.527863,69.241562 519.708801,68.505043 548.357056,60.691322 
	C551.346985,59.875824 554.153015,59.645298 557.154480,60.564812 
	C568.146362,63.932262 578.965698,67.742218 589.631165,72.055717 
	C604.308167,77.991661 611.291077,90.275307 616.173401,104.062614 
	C621.405640,118.838081 624.630432,134.214096 627.078125,149.650101 
	C631.032043,174.584702 638.122681,198.602768 646.373291,222.368225 
	C653.199341,242.030426 659.792725,261.774170 666.372498,281.520752 
	C669.415710,290.653748 669.309326,291.265564 661.504272,296.930389 
	C642.276062,310.885864 620.719177,316.837189 597.026245,315.041504 
	C596.201111,314.978943 595.376160,314.910248 594.549927,314.869537 
	C594.402527,314.862244 594.248962,314.978638 594.009766,315.072754 
	C592.800537,316.443207 593.702087,317.849426 594.157288,319.205078 
	C606.658813,356.435852 613.911133,394.825928 619.022339,433.643127 
	C622.823303,462.509857 626.234192,491.435638 627.365662,520.568726 
	C627.378601,520.901672 627.395630,521.234985 627.426025,521.566650 
	C628.475647,533.037903 628.475891,533.037903 616.805786,534.698730 
M422.481934,270.843170 
	C421.857819,273.942932 421.319427,277.062805 420.596100,280.139252 
	C414.113373,307.712006 404.966675,334.538635 397.687897,361.895996 
	C391.806183,384.002441 390.987335,406.618378 389.380341,429.181915 
	C388.422089,442.636322 389.189240,456.159332 388.656952,469.592316 
	C387.972748,486.859955 386.089661,504.100220 385.155518,521.385681 
	C384.973572,524.751892 385.583496,526.407166 389.478912,526.944214 
	C413.782379,530.295349 438.255859,531.148621 462.706024,531.532227 
	C492.355347,531.997437 522.018311,532.038452 551.679199,530.965637 
	C571.319214,530.255249 590.900696,529.226868 610.414429,526.865784 
	C613.817383,526.454102 614.833618,525.132324 614.662109,521.709351 
	C613.704895,502.600159 611.959717,483.529785 611.820557,464.378754 
	C611.768555,457.231598 609.493958,449.904572 609.958008,443.200775 
	C610.549805,434.652679 610.030273,426.302155 609.557800,417.915405 
	C608.865356,405.623718 608.415344,393.243988 606.095032,381.136444 
	C600.881897,353.934662 592.362732,327.598450 584.089294,301.231018 
	C572.989685,265.856567 570.149719,230.164124 578.378540,193.805740 
	C582.334717,176.325775 584.251953,158.758835 580.915710,140.871094 
	C580.257385,137.341614 578.613403,133.609146 580.284241,129.330887 
	C583.603333,132.064941 582.242981,136.360107 584.737183,139.753799 
	C587.180115,120.848686 590.642578,102.890266 594.960999,85.117104 
	C595.946594,81.060669 594.619141,79.388451 591.309448,77.808044 
	C581.962219,73.344658 572.119873,70.223625 562.463989,66.580299 
	C556.602966,64.368843 553.222229,64.963890 548.569702,69.933441 
	C523.100403,97.138374 471.597229,95.325966 447.262573,66.916000 
	C446.054016,65.505066 445.108002,63.970173 442.767975,64.825470 
	C430.887878,69.167740 418.653259,72.543068 407.173553,77.979576 
	C404.241211,79.368286 403.048126,80.983246 404.024323,84.610611 
	C407.697571,98.259346 410.342163,112.137840 412.644257,126.091965 
	C413.277649,129.931168 412.580261,134.208466 415.092560,137.814163 
	C417.504242,135.589828 415.675720,131.944519 418.508179,129.739532 
	C419.860199,132.315262 419.327271,134.599762 418.933502,136.794525 
	C415.503723,155.910431 416.736237,174.745178 420.800293,193.723068 
	C426.200623,218.941147 428.298920,244.434052 422.481934,270.843170 
M320.369019,908.940002 
	C325.386078,890.291870 330.503784,871.670166 335.400757,852.990601 
	C348.615784,802.581543 359.426605,751.667786 367.270905,700.135376 
	C369.301270,686.797180 371.474762,673.480713 373.614136,660.159302 
	C373.847809,658.704468 373.565247,656.855225 376.052795,656.146240 
	C376.052795,658.614868 376.300659,660.772583 376.012726,662.856262 
	C374.078857,676.852417 372.241608,690.866943 369.981903,704.812073 
	C362.316742,752.116333 352.985596,799.080139 340.744995,845.437561 
	C332.754364,875.699707 324.666443,905.935974 315.193451,935.774475 
	C313.826721,940.079529 314.806061,942.458801 318.964905,943.769470 
	C319.756531,944.018982 320.503510,944.406921 321.288086,944.682678 
	C336.898621,950.168945 353.194061,950.920959 369.493561,951.707581 
	C373.077026,951.880554 373.002777,949.209229 373.322052,947.036316 
	C375.159851,934.528259 376.943542,922.011597 378.631592,909.482422 
	C383.518250,873.212463 388.321991,836.931335 393.214630,800.662170 
	C396.412994,776.952515 399.615540,753.242737 403.006287,729.560181 
	C404.443054,719.525208 404.968018,709.404053 406.216003,699.372070 
	C408.741333,679.072388 411.849854,658.844788 414.784821,638.597229 
	C415.064941,636.664673 415.066742,634.440308 416.976349,633.102234 
	C417.996460,633.954102 418.050568,634.772949 417.953125,635.618652 
	C416.944244,644.373291 416.018066,653.138550 414.896179,661.878784 
	C412.103394,683.636719 409.208466,705.381531 406.377075,727.134583 
	C403.158478,751.862610 400.086151,776.610535 396.724976,801.319092 
	C393.408630,825.698120 389.787048,850.035461 386.342621,874.397217 
	C382.386719,902.376465 378.547668,930.372437 374.481995,958.335632 
	C373.793304,963.072021 374.822693,965.840088 379.784943,967.158691 
	C406.453735,974.245117 433.362488,976.499023 460.118927,968.809204 
	C471.307129,965.593689 482.211029,962.807068 493.853424,963.709778 
	C497.624847,964.002197 498.776428,962.256409 498.643890,958.639832 
	C498.308990,949.499512 498.063019,940.347778 498.120361,931.202759 
	C498.339874,896.209656 498.183350,861.216248 498.396576,826.221863 
	C498.752777,767.755981 499.731842,709.272522 495.992065,650.836243 
	C494.408142,626.086365 493.163513,601.306152 491.693939,576.543457 
	C491.466339,572.708435 490.107635,571.134216 485.977173,570.822205 
	C476.674835,570.119629 467.350739,570.297791 458.041687,569.525208 
	C447.941071,568.686890 437.960358,567.070129 427.528107,565.652649 
	C423.624908,581.166077 423.509918,597.083008 420.124634,613.548218 
	C418.265839,610.580017 418.649292,608.685547 418.843048,606.931213 
	C419.957153,596.845520 420.941498,586.734619 422.469604,576.708435 
	C424.238342,565.103943 424.493378,564.991272 412.961731,562.598633 
	C404.506226,560.844238 396.470154,557.656189 388.292877,555.389282 
	C386.220978,557.885437 386.010376,560.620544 385.350281,563.160095 
	C376.640442,596.667664 368.008514,630.195496 359.277802,663.697632 
	C337.277496,748.118713 307.982239,830.093506 276.024323,911.162964 
	C274.440887,915.179749 275.316772,917.323181 278.693298,919.328796 
	C289.474792,925.732666 301.620758,927.838257 313.952759,931.051025 
	C316.068634,923.713318 318.087738,916.711182 320.369019,908.940002 
M680.045715,924.218140 
	C679.715515,922.928040 679.414062,921.629822 679.050903,920.349121 
	C668.695740,883.825623 658.526306,847.248596 649.916138,810.268250 
	C639.344849,764.865479 631.784607,718.898804 624.899536,672.820801 
	C624.346008,669.115784 622.801025,665.228210 624.365295,661.299316 
	C625.987061,661.715027 626.067688,662.802551 626.215942,663.750366 
	C628.093933,675.756775 630.507751,687.687378 632.284912,699.690002 
	C635.818604,723.556274 640.069519,747.287720 644.829956,770.917053 
	C651.040039,801.742310 658.377930,832.324585 666.332336,862.750549 
	C671.967529,884.305237 677.381653,905.921448 683.860596,927.246826 
	C684.385742,928.975281 684.732056,931.015747 687.470093,930.122070 
	C698.206421,926.617981 709.535095,924.850952 719.518127,919.139587 
	C725.269836,915.848999 725.411987,915.412231 723.072327,909.379089 
	C708.318481,871.334045 694.161621,833.068481 680.609131,794.578430 
	C654.365540,720.044617 634.277588,643.755493 615.629822,567.052979 
	C614.628479,562.934082 613.871216,558.694885 611.503540,554.712830 
	C600.636353,558.762634 589.702332,561.623108 578.600891,563.837463 
	C575.934143,564.369385 575.047485,565.576843 575.659180,568.377197 
	C576.651306,572.919189 577.601440,577.526367 577.899292,582.149170 
	C578.229309,587.269836 579.649536,592.416809 578.266418,597.663147 
	C576.350952,595.704041 576.134460,593.236023 575.977112,590.860779 
	C575.524597,584.030273 573.960449,577.360718 573.197388,570.591797 
	C572.714966,566.312744 571.596130,565.141235 566.979980,566.030151 
	C548.962280,569.500061 530.720093,570.982239 512.358459,570.336548 
	C508.741699,570.209351 508.360199,572.049255 508.192017,574.915649 
	C507.402283,588.379028 506.593903,601.841797 505.804932,615.304260 
	C503.622223,652.547791 501.270844,689.776917 501.403961,727.105530 
	C501.486572,750.267029 501.600952,773.429199 501.749176,796.590027 
	C502.093689,850.412659 502.339294,904.241943 501.273041,958.061829 
	C501.185394,962.484680 502.605194,963.991333 506.977600,963.748352 
	C517.333557,963.172913 527.349304,964.283203 537.439026,967.550415 
	C564.814758,976.414856 592.327881,973.417603 619.700012,966.755432 
	C623.906982,965.731506 625.326172,963.349731 624.671753,959.122375 
	C623.222290,949.759460 622.001038,940.361206 620.688049,930.977173 
	C616.630493,901.976562 612.512024,872.984253 608.531982,843.973022 
	C603.536804,807.561707 598.568237,771.146362 593.752808,734.710938 
	C590.005066,706.354065 586.420593,677.974670 582.989136,649.578003 
	C582.421326,644.878967 580.733582,640.061646 582.374329,634.994629 
	C584.622375,636.241882 584.110779,638.091980 584.362427,639.644592 
	C590.884094,679.882385 594.894348,720.456055 600.557800,760.809753 
	C604.303467,787.498962 607.748230,814.230591 611.306763,840.945923 
	C616.028015,876.390869 620.734741,911.837769 625.426636,947.286560 
	C625.792480,950.050415 626.892273,951.290344 630.009460,950.970947 
	C636.459106,950.309937 642.969360,950.249817 649.423889,949.624451 
	C659.885132,948.611023 670.162292,946.631897 680.057007,942.938049 
	C683.425537,941.680542 685.568115,940.060547 683.853821,935.901855 
	C682.399170,932.373108 681.467468,928.628845 680.045715,924.218140 
M592.200928,258.608398 
	C591.703247,262.738800 591.109314,266.860321 590.727478,271.001404 
	C589.871826,280.282837 588.915527,289.562500 588.397766,298.865021 
	C588.022888,305.601440 590.829773,310.339264 594.801819,310.648071 
	C615.227661,312.235901 634.591003,309.084351 652.380493,298.192749 
	C664.693909,290.653931 664.986206,290.154205 660.391907,276.697845 
	C652.053284,252.274918 643.958435,227.768127 635.510132,203.383545 
	C627.786560,181.090515 624.839111,157.729904 619.688843,134.862503 
	C616.619629,121.235062 614.363403,107.361092 607.449463,94.909042 
	C605.200256,90.858261 602.822571,86.920349 599.190063,83.916710 
	C597.503540,85.008972 597.617371,86.597710 597.328003,88.017532 
	C595.435608,97.299919 593.462097,106.566650 591.670532,115.868446 
	C590.286438,123.055145 589.641541,130.424973 587.727905,137.457565 
	C585.789612,144.580322 586.689636,151.761185 586.833679,158.741196 
	C587.014526,167.500366 587.145142,176.156464 584.555420,184.436600 
	C581.561462,194.009232 581.541138,203.224091 584.325867,212.781799 
	C586.679443,220.859451 588.340210,229.138947 590.307678,237.329117 
	C594.995789,223.411407 594.632263,208.795410 598.134644,194.797714 
	C598.565430,216.022171 595.028015,236.850845 592.200928,258.608398 
M403.102539,201.733139 
	C404.460175,214.871185 405.356445,228.072235 408.309875,241.028152 
	C411.351501,228.509827 413.950531,215.983124 416.776611,203.507858 
	C417.762726,199.154846 417.327576,195.138306 416.378357,190.785049 
	C414.477142,182.065781 411.161652,173.475388 412.291656,164.298828 
	C412.810608,160.084518 413.173981,156.002502 409.788269,152.086182 
	C412.072601,151.761444 413.990570,151.813110 413.539276,148.838425 
	C410.271057,127.296173 405.983063,105.956909 401.149597,84.720848 
	C401.012695,84.119263 400.762207,83.404251 399.536407,83.511452 
	C394.519653,88.908600 390.978058,95.437416 388.205414,102.448532 
	C383.896149,113.345207 381.856323,124.840340 379.320374,136.198700 
	C374.793854,156.472305 372.039825,177.167618 365.595215,196.981003 
	C356.074402,226.251968 346.251801,255.425919 336.346161,284.569275 
	C335.078827,288.297729 335.937836,290.447021 338.817078,292.655792 
	C358.474670,307.735809 380.874451,312.618286 405.143158,310.748566 
	C407.446350,310.571106 408.892853,309.494781 409.414246,307.273438 
	C410.631256,302.088074 411.123047,296.865021 410.490265,291.530029 
	C406.962555,261.786560 403.459778,232.040054 400.044373,202.283585 
	C399.764496,199.845139 399.010712,197.132401 401.653534,193.750473 
	C402.249969,196.815445 402.644135,198.840973 403.102539,201.733139 
M455.510193,535.165527 
	C433.451111,534.389709 411.382629,533.792297 389.527161,530.971130 
	C387.631256,536.166321 388.838654,540.909119 388.249176,545.486572 
	C387.623474,550.344971 389.582794,552.561462 394.212402,554.034363 
	C424.810364,563.769287 456.279449,567.137146 488.199646,567.549744 
	C490.945892,567.585205 491.529327,566.156006 491.702393,563.847656 
	C492.274231,556.219971 492.863159,548.590820 493.645508,540.982849 
	C494.059906,536.952881 492.816833,535.248779 488.494415,535.315247 
	C477.834778,535.479065 467.169250,535.255615 455.510193,535.165527 
M584.581055,533.345947 
	C572.282166,533.936951 559.988708,534.732239 547.682800,535.061890 
	C535.197876,535.396362 522.700745,535.268372 510.208954,535.349304 
	C507.823120,535.364807 505.147400,535.202759 505.484222,538.772827 
	C506.233734,546.716614 507.228851,554.638062 507.916901,562.586487 
	C508.209869,565.970703 509.752533,567.010620 513.043579,567.067200 
	C522.876038,567.236206 532.651550,566.769409 542.448059,565.884888 
	C563.399231,563.993164 583.887512,559.969482 604.084534,554.091614 
	C609.743408,552.444824 612.275513,550.054688 610.986389,544.040894 
	C610.438416,541.484436 610.611755,538.713806 610.818298,536.068726 
	C611.146484,531.865295 609.126953,530.880249 605.391113,531.321228 
	C598.784424,532.101074 592.153992,532.678955 584.581055,533.345947 
M469.429840,79.088600 
	C499.127747,92.704216 533.401611,83.321358 546.825867,65.809433 
	C515.842407,72.875542 484.948425,72.140778 453.857544,67.143326 
	C457.716797,72.813370 463.190277,75.849495 469.429840,79.088600 
M498.322510,618.255920 
	C499.253754,624.695251 499.396515,631.195496 499.670563,637.710938 
	C500.220612,636.590698 500.574402,635.475647 500.607208,634.351196 
	C501.159943,615.412537 502.121857,596.494263 503.755310,577.619263 
	C504.867737,564.764648 501.403656,552.203613 501.614471,539.419556 
	C501.637177,538.043091 501.330811,536.720581 499.132690,536.477722 
	C497.427887,538.092834 497.516968,540.461426 497.359711,542.710571 
	C496.942444,548.679993 496.812195,554.681091 496.107574,560.614990 
	C495.536316,565.425476 494.961151,570.216675 495.485229,575.025940 
	C497.017181,589.083984 497.412079,603.212769 498.322510,618.255920 
M420.621094,217.153702 
	C420.323853,215.476074 420.026642,213.798447 419.621796,211.513489 
	C411.815918,238.725449 409.909576,269.718842 415.246155,283.540741 
	C415.814087,281.235504 416.289551,279.319855 416.757874,277.402496 
	C421.537506,257.833130 422.664856,238.023483 420.621094,217.153702 
M583.253662,280.954834 
	C583.570496,282.022980 583.403381,283.299286 584.112427,283.757294 
	C590.649414,259.785156 586.654602,236.290863 579.476807,212.055237 
	C576.027527,235.682388 578.114502,258.040741 583.253662,280.954834 
M619.595947,473.837921 
	C617.945435,460.999420 616.294983,448.160919 614.644470,435.322418 
	C614.532959,435.339111 614.421448,435.355804 614.309998,435.372498 
	C615.739136,466.549194 617.168274,497.725861 618.609497,529.165405 
	C622.147827,530.259827 624.045410,529.124084 623.670105,524.900696 
	C623.537903,523.412598 623.603455,521.907166 623.479858,520.417847 
	C622.215881,505.190277 620.931458,489.964447 619.595947,473.837921 
M382.023468,511.795776 
	C383.472778,490.312714 384.890930,468.828461 384.543793,447.267029 
	C381.869965,459.127899 380.829651,471.203888 379.646332,483.236572 
	C378.247192,497.463470 377.373779,511.742554 376.328979,526.003113 
	C376.208496,527.647339 376.139252,529.567932 378.684814,529.494263 
	C380.764648,529.434082 381.517548,528.221497 381.545715,526.217712 
	C381.608795,521.722046 381.795929,517.228210 382.023468,511.795776 
z"/>
<path fill="#000000" opacity="1.000000" stroke="none" 
	d="
M347.535583,290.622803 
	C353.655518,293.431458 359.487640,296.238434 365.319733,299.045410 
	C365.074646,299.520050 364.829559,299.994690 364.584473,300.469299 
	C358.579620,297.631104 351.566528,296.776215 347.535583,290.622803 
z"/>
</svg>