<svg version="1.1" id="Layer_1" xmlns="http://www.w3.org/2000/svg" xmlns:xlink="http://www.w3.org/1999/xlink" x="0px" y="0px"
	 width="1024" height="1024" viewBox="0 0 1024 1024" enable-background="new 0 0 1024 1024" xml:space="preserve">
<path fill="#000000" opacity="1.000000" stroke="none" 
	d="
M648.290649,403.880402 
	C649.642395,424.606476 650.641724,444.861206 653.029785,465.038452 
	C656.625366,495.418549 662.181885,525.510620 666.006836,555.839172 
	C669.895752,586.674744 673.704163,617.531067 676.474487,648.504395 
	C679.525818,682.620483 683.079041,716.691589 686.148926,750.806152 
	C688.444641,776.317993 690.300232,801.869263 692.388428,827.400024 
	C694.612671,854.594238 696.879639,881.784912 699.129028,908.977112 
	C699.499268,913.453064 699.700745,917.952026 700.297913,922.397644 
	C700.866577,926.630554 699.211792,929.278687 695.601074,931.335510 
	C661.587036,950.712036 625.689880,964.708252 586.745483,970.449890 
	C561.342712,974.195190 535.855042,976.368103 510.180145,976.319519 
	C507.723297,976.314880 505.316162,976.558350 503.360382,974.208313 
	C501.853241,972.397400 499.288544,973.191040 497.171753,973.125977 
	C477.031799,972.507385 456.891174,971.816162 436.893097,969.163147 
	C405.768555,965.034058 376.100647,956.117310 348.109253,941.772400 
	C341.139038,938.200317 334.154053,934.673889 327.502289,930.516418 
	C324.438049,928.601135 323.077545,926.524963 323.451904,922.418884 
	C325.807159,896.585510 327.721710,870.712036 329.799561,844.853271 
	C332.130096,815.849121 334.210663,786.821594 336.898346,757.850464 
	C339.416504,730.706543 341.644806,703.537109 344.430511,676.412964 
	C346.943878,651.940613 348.964569,627.412170 351.727478,602.961548 
	C355.404602,570.420471 359.972382,538.007996 365.260864,505.681885 
	C368.693634,484.698700 371.269287,463.576721 372.808990,442.334442 
	C374.157043,423.735809 376.250549,405.145264 375.610046,386.501556 
	C375.199219,374.543121 376.658508,362.552521 374.876984,350.639465 
	C374.636932,349.034119 374.243561,347.451721 373.563782,345.875824 
	C373.097656,349.934479 370.397186,353.597961 372.933044,358.146698 
	C373.996246,360.053864 372.393341,363.584442 371.478973,365.601837 
	C367.573822,374.218018 367.695770,383.438873 366.496552,392.403595 
	C363.696991,413.331604 361.265961,434.314484 359.057220,455.314209 
	C357.184601,473.118439 354.056122,490.885437 356.223480,508.914581 
	C356.302582,509.572723 356.653412,510.476349 356.355408,510.860626 
	C350.223633,518.767639 352.424530,528.342163 351.631226,537.092712 
	C349.784027,557.468079 349.043030,577.950562 348.176636,598.403320 
	C347.966644,603.360535 346.495605,605.994690 341.335693,606.895264 
	C320.929840,610.456726 300.479706,612.957336 279.760956,610.355225 
	C272.425171,609.433899 269.669647,604.027405 270.197662,596.822998 
	C270.557251,591.916382 270.967560,586.778137 270.269775,581.787598 
	C269.931305,579.366760 270.167419,577.023132 272.451996,576.292114 
	C275.639343,575.272156 275.696777,573.167725 275.832275,570.553528 
	C277.443665,539.471069 279.091858,508.390350 280.803833,477.313202 
	C282.075958,454.219879 283.065643,431.101410 284.902344,408.051605 
	C286.565735,387.176880 288.005127,366.163940 291.706970,345.601471 
	C296.734894,317.673218 300.245605,289.476532 307.066467,261.815125 
	C310.538544,247.734650 311.413727,232.926575 313.630768,218.468613 
	C317.164764,195.422348 321.514160,172.607666 329.623962,150.632675 
	C333.147461,141.085129 338.748962,134.530823 348.632202,130.396591 
	C378.450653,117.923347 408.628448,106.381485 438.756927,94.721405 
	C446.562256,91.700630 451.844330,87.368805 454.218658,79.369156 
	C455.019043,76.672417 456.795288,74.237335 457.417267,71.520523 
	C459.961945,60.405327 467.972351,55.723328 478.144989,54.066254 
	C501.496765,50.262348 524.867615,50.252285 548.150818,54.839535 
	C557.211121,56.624603 563.884216,61.332760 566.055420,70.748291 
	C569.389160,85.204933 578.110535,93.440636 592.464905,97.807121 
	C609.469666,102.979774 625.716614,110.527939 642.421814,116.729324 
	C655.978577,121.761940 669.095276,128.002014 682.309143,133.925049 
	C686.973145,136.015625 689.288208,140.426376 691.301270,144.896774 
	C698.807007,161.564117 702.928223,179.202576 706.261353,197.065643 
	C710.223511,218.300064 712.059448,239.954391 716.604492,260.990387 
	C723.561890,293.191162 727.901855,325.764282 733.438660,358.165314 
	C736.977051,378.871582 738.147095,399.775238 739.365173,420.688873 
	C740.894043,446.938782 742.559509,473.181030 744.004272,499.435486 
	C744.928284,516.226440 745.544922,533.034119 746.329773,549.832947 
	C746.648376,556.651123 747.014099,563.467529 747.428528,570.280457 
	C747.581238,572.790588 747.862671,575.219360 750.783997,576.395569 
	C751.706665,576.767212 752.965515,578.269897 752.820557,579.010071 
	C751.842102,584.006165 755.872925,588.972595 752.824280,593.925598 
	C752.168396,594.991028 752.411438,596.080200 752.813354,597.265503 
	C754.950562,603.568542 752.091064,609.039001 745.638916,609.889404 
	C723.780273,612.770264 702.133789,611.647705 680.799316,605.740540 
	C677.549500,604.840759 676.148743,602.954773 675.961975,599.715881 
	C675.272217,587.749695 674.413147,575.792847 673.784973,563.823730 
	C672.485413,539.065552 670.146667,514.394531 668.011719,489.700714 
	C665.562439,461.370697 661.706726,433.209808 658.560913,404.965210 
	C656.888367,389.948639 655.424988,374.891266 652.602478,360.013947 
	C651.874084,356.174683 652.303833,352.123077 650.050110,348.415649 
	C646.874390,366.654633 647.921570,385.039368 648.290649,403.880402 
M505.323029,712.499939 
	C505.323029,719.910645 505.323029,727.321350 505.323029,735.192383 
	C506.526764,733.926880 505.822723,732.347900 508.323578,731.554993 
	C506.947571,780.095215 505.231903,828.274719 507.123169,876.468994 
	C507.123169,861.045715 507.123169,845.622437 507.123169,830.199158 
	C507.665131,830.195740 508.207092,830.192322 508.749054,830.188904 
	C508.749054,875.087463 508.749054,919.986023 508.749054,965.223328 
	C507.288300,955.506653 508.424866,945.914978 507.399567,936.456177 
	C507.282806,946.780945 507.451141,957.109192 507.201477,967.427307 
	C507.099060,971.660034 508.656677,972.924072 512.705811,972.804199 
	C524.692322,972.449280 536.644287,971.659973 548.599609,970.765381 
	C569.359314,969.211914 589.955811,966.673218 610.228577,961.784729 
	C639.272888,954.781189 666.453552,943.242981 692.237976,928.283569 
	C694.193298,927.149048 696.561035,926.238220 696.314575,923.214966 
	C695.004028,907.136230 693.748352,891.053040 692.422119,874.975647 
	C690.877747,856.254028 689.247375,837.539490 687.715088,818.816895 
	C686.277527,801.251892 685.039429,783.669739 683.494812,766.114380 
	C681.688599,745.586365 679.597778,725.083618 677.718811,704.561768 
	C675.929565,685.019165 674.518127,665.438477 672.462952,645.924744 
	C669.800842,620.647766 666.642334,595.423340 663.740112,570.171387 
	C660.894836,545.414490 656.660522,520.861389 652.999451,496.223755 
	C650.214294,477.480743 648.152771,458.655304 646.609070,439.763367 
	C645.660522,428.153992 644.939148,416.540161 644.324219,404.911469 
	C643.232849,384.271729 642.991638,363.650879 645.340820,343.079803 
	C646.301514,334.667145 647.844360,326.315948 648.649902,317.891632 
	C650.169189,302.002747 650.141724,285.981506 652.595459,270.167816 
	C656.826050,242.902634 660.809143,215.594879 665.436707,188.396988 
	C668.389099,171.044785 672.004089,153.781631 678.373352,137.275299 
	C675.114746,134.716751 671.624146,133.543213 668.257324,132.195068 
	C640.738342,121.175926 613.197510,110.211281 585.659241,99.240364 
	C582.419617,97.949715 579.054871,95.511726 575.927490,95.770752 
	C572.029175,96.093643 571.697266,101.165733 569.684509,104.056694 
	C560.971008,116.571945 548.394592,123.621307 534.567017,128.460602 
	C525.230835,131.728043 515.429688,133.695175 505.782349,136.019257 
	C504.043304,136.438202 502.850555,137.138367 502.636078,138.661392 
	C501.702332,145.293076 501.359283,152.131302 501.367249,158.663589 
	C501.375519,165.437347 503.192108,172.419983 503.126801,179.422562 
	C502.822174,212.080261 503.751862,244.724854 504.174866,277.374695 
	C504.195435,278.961700 503.747620,280.648926 504.652374,282.196411 
	C510.573944,277.380432 514.173706,276.445465 517.889832,279.240082 
	C520.914124,281.514404 522.359070,285.769897 527.460022,286.294952 
	C522.529846,287.627960 520.616821,291.853638 517.131714,293.995789 
	C513.776184,296.058258 510.447968,295.192749 507.433868,292.725342 
	C506.394226,291.874298 506.155609,290.135437 504.518921,289.808594 
	C504.518921,309.269958 504.518921,328.484589 504.518921,347.769531 
	C506.646240,347.613892 507.192352,345.914948 508.441284,345.174835 
	C512.129333,342.989319 516.007019,342.707703 519.055786,345.723328 
	C521.576416,348.216492 523.854370,350.810608 527.729004,351.731445 
	C525.862549,354.975159 522.248108,354.154388 520.329102,356.935883 
	C516.031250,363.165497 508.606079,361.989319 505.229980,355.117584 
	C504.808044,354.258759 505.098328,352.809387 503.752716,352.612610 
	C506.852081,372.609100 504.398438,392.705353 505.641876,413.248840 
	C510.196014,409.675385 514.752808,407.873871 519.109863,411.758453 
	C521.739197,414.102600 523.855469,416.969269 527.506775,417.670776 
	C526.844666,421.087799 523.447144,419.396912 522.281921,421.258484 
	C520.439148,424.202667 518.077332,426.405914 514.524231,427.037842 
	C510.854462,427.690582 508.482697,425.050507 505.107697,422.695465 
	C505.748474,441.767670 506.416351,459.970520 506.012329,479.147766 
	C510.562866,475.331024 514.989380,474.100555 518.966675,477.435822 
	C521.743408,479.764343 523.885193,482.846069 527.618530,483.666809 
	C526.686096,486.973022 523.419434,485.427856 522.192383,487.354675 
	C520.448730,490.092651 518.407593,492.521912 514.909607,492.890533 
	C511.443298,493.255859 508.778381,491.317596 506.188690,489.121460 
	C506.188690,499.855927 506.064850,510.180573 506.223877,520.500793 
	C506.379333,530.588989 506.039093,540.634949 504.258636,550.619751 
	C505.811646,543.501953 512.431641,539.460510 517.967346,542.894470 
	C521.340027,544.986572 523.618591,548.685974 528.230896,549.922485 
	C523.755920,551.443481 521.540222,555.020508 518.387512,557.414612 
	C515.432251,559.658752 512.152405,559.268982 509.064697,557.206299 
	C507.773499,556.343689 506.850372,554.498230 504.280884,555.629333 
	C505.285675,607.448669 505.253326,659.474487 505.323029,712.499939 
M500.947723,660.500000 
	C500.544525,619.345093 501.026703,578.187012 500.150787,537.031494 
	C499.374359,500.551239 499.803864,464.056763 499.123291,427.567444 
	C498.330994,385.087555 498.400970,342.591766 498.062134,300.103149 
	C497.638245,246.950180 497.172882,193.797531 496.750732,140.644547 
	C496.725037,137.407242 496.005829,133.890579 499.710968,131.862656 
	C499.205963,131.455505 498.980682,131.146194 498.690277,131.062378 
	C497.577454,130.741089 496.433075,130.529404 495.319336,130.210785 
	C476.486938,124.823196 460.045654,116.062645 450.517273,97.859108 
	C449.072845,95.099564 447.517426,95.515984 445.285553,96.405037 
	C413.414917,109.100540 381.326630,121.250259 349.718781,134.606049 
	C346.431885,135.994949 345.188141,137.389236 346.628113,141.312424 
	C353.658844,160.467514 356.565521,180.620804 360.150452,200.580185 
	C362.762970,215.125443 364.716583,229.787918 367.080780,244.379196 
	C369.949982,262.087067 372.942291,279.737488 373.592224,297.758575 
	C373.956177,307.850098 374.097382,318.004028 376.122009,328.074005 
	C378.977020,342.274017 380.080719,356.739227 380.215118,371.250061 
	C380.451324,396.751648 378.669556,422.136139 376.508362,447.536407 
	C373.428925,483.729218 366.767334,519.399902 361.828094,555.320007 
	C359.109192,575.092712 356.595795,594.899414 354.387665,614.735046 
	C352.289124,633.586853 350.672852,652.492981 348.909485,671.381348 
	C346.667328,695.398010 344.425812,719.415039 342.306366,743.442749 
	C340.639069,762.344299 339.156952,781.262268 337.592804,800.172913 
	C335.836945,821.400696 334.080627,842.628418 332.325775,863.856262 
	C330.762695,882.764404 329.316681,901.683533 327.540375,920.571594 
	C327.192078,924.274841 328.085815,926.464539 331.284637,928.300659 
	C354.218964,941.465027 378.263458,951.953125 403.866180,958.722778 
	C434.047638,966.702942 464.925903,968.293518 495.936249,968.856873 
	C500.844879,968.946045 500.837952,966.292725 500.775513,962.859863 
	C499.784912,908.387939 502.446167,853.926208 501.066010,799.446411 
	C499.901337,753.471497 502.278442,707.482117 500.947723,660.500000 
M715.917480,277.402802 
	C715.309509,271.028442 712.971680,265.887329 707.598694,261.720276 
	C701.556030,257.033813 696.663940,250.997223 692.577820,244.453079 
	C691.603394,242.892471 689.976379,241.303711 691.483948,238.369675 
	C697.202454,246.916519 702.676392,255.214157 711.490051,261.672577 
	C711.490051,258.847504 711.700317,257.168365 711.458313,255.557144 
	C708.130005,233.398193 705.013550,211.199463 700.572449,189.228088 
	C697.668213,174.859726 693.993469,160.675537 687.915588,147.260468 
	C686.470947,144.071808 685.330688,140.420074 681.267456,138.749893 
	C680.777832,139.843506 680.331482,140.701065 680.000305,141.600998 
	C675.557251,153.674484 672.667969,166.197754 670.453491,178.796844 
	C665.475952,207.116653 660.988647,235.524506 656.551392,263.935486 
	C655.842285,268.476074 654.686829,273.070801 655.524597,277.816132 
	C658.499512,294.666779 661.271057,311.553619 664.299561,328.394379 
	C668.738953,353.080353 672.172791,377.979858 679.707275,402.025604 
	C680.288513,403.880432 680.535706,406.019684 680.265930,407.931885 
	C678.642700,419.435669 680.243896,430.815155 681.217102,442.235168 
	C682.403809,456.159912 683.100891,470.132507 684.564941,484.025909 
	C686.535950,502.729401 688.018616,521.467407 689.241455,540.224365 
	C690.376587,557.635742 691.236023,575.068604 691.909607,592.503845 
	C692.073730,596.752747 693.660583,597.939575 697.617859,597.755676 
	C709.510132,597.202881 721.157043,599.074280 732.775452,601.450928 
	C736.745667,602.263000 740.527710,604.261902 744.941528,603.987732 
	C744.941528,602.404236 744.991638,601.098206 744.933960,599.796875 
	C744.182068,582.835327 743.454834,565.872437 742.638550,548.913940 
	C742.006592,535.785095 741.320984,522.658142 740.548401,509.536896 
	C738.993469,483.127563 737.268127,456.727905 735.797546,430.313995 
	C734.836609,413.054291 733.971924,395.807892 731.894348,378.619904 
	C727.825623,344.959717 722.188477,311.557892 715.917480,277.402802 
M299.386505,324.765137 
	C283.948517,417.240204 285.328400,510.932098 277.898224,603.618042 
	C280.364166,604.680115 281.429718,604.046448 282.516754,603.732727 
	C296.340332,599.742737 310.407532,597.485718 324.832245,597.612488 
	C331.043518,597.667053 331.388580,597.185486 331.660522,590.757141 
	C332.096741,580.446960 332.460876,570.130371 333.122162,559.833679 
	C334.198120,543.079285 335.454163,526.336182 336.700439,509.593201 
	C337.761627,495.336609 338.886749,481.084625 340.037567,466.834930 
	C341.228577,452.087677 343.218719,437.358612 343.480164,422.597168 
	C343.689850,410.760101 344.507355,399.360992 347.445740,387.743103 
	C355.478119,355.984283 360.026459,323.499542 365.647980,291.247009 
	C366.948029,283.788269 369.480927,276.508270 368.066742,268.628479 
	C365.015564,251.627289 362.137085,234.587830 359.610596,217.501526 
	C356.129456,193.959351 351.870697,170.588852 345.599670,147.619675 
	C344.767059,144.570129 344.559998,141.109848 341.908203,138.783752 
	C327.015900,148.541397 312.858887,240.278091 312.349243,262.005249 
	C320.054749,255.256973 326.538300,247.587585 332.435120,238.163849 
	C333.112976,241.911041 331.679047,243.632278 330.570038,245.428452 
	C326.406097,252.172348 320.958282,257.941010 314.815735,262.703003 
	C310.667145,265.919159 309.119354,269.709229 308.298218,274.317963 
	C305.353455,290.845520 302.437347,307.378174 299.386505,324.765137 
M678.264587,570.468140 
	C679.090332,580.203674 678.904968,590.028931 680.415588,599.587646 
	C682.932556,600.166077 684.730286,598.938354 686.687256,598.722412 
	C690.187012,598.336182 690.801086,596.310791 690.555786,593.107788 
	C688.180481,562.093811 685.946899,531.069031 683.636230,500.050110 
	C682.622437,486.440582 681.378784,472.846680 680.501892,459.228821 
	C679.479065,443.345184 675.821533,427.624023 677.625916,411.555176 
	C677.975464,408.442047 678.290527,405.211029 677.332336,402.114960 
	C669.192444,375.815247 665.610718,348.572144 660.675415,321.611847 
	C658.529053,309.887207 656.637756,298.115906 654.630676,286.365784 
	C653.980103,288.262085 653.771057,290.079590 653.635925,291.902618 
	C652.885437,302.023895 651.674500,312.140656 651.551025,322.270325 
	C651.431335,332.086121 654.259521,341.652710 655.740967,351.330841 
	C659.639404,376.797760 662.101135,402.435364 665.257141,427.988434 
	C668.048035,450.584656 670.392517,473.235413 672.570190,495.906525 
	C674.924316,520.414124 676.537537,544.966064 678.264587,570.468140 
M342.987854,465.192322 
	C341.628815,481.440399 340.245056,497.686432 338.916321,513.936951 
	C336.718536,540.816162 334.922607,567.720947 333.745483,594.666687 
	C333.658112,596.666870 334.067780,598.031616 336.037079,598.390320 
	C338.429077,598.826050 340.615692,600.361755 343.416382,599.855530 
	C343.608307,598.500671 343.884460,597.207886 343.961670,595.903442 
	C344.689331,583.609009 345.256836,571.303772 346.114990,559.018738 
	C347.540161,538.617065 349.008240,518.216553 350.720367,497.837555 
	C352.014099,482.438599 353.586761,467.059692 355.274841,451.698212 
	C356.907898,436.837646 358.956970,422.023041 360.624725,407.165955 
	C362.792725,387.851990 364.666199,368.456085 368.427856,349.413025 
	C372.547302,328.558655 371.555756,307.881805 369.539734,285.584747 
	C368.879608,287.560760 368.605103,288.128693 368.502502,288.726135 
	C363.748047,316.400513 358.933929,344.060516 353.788300,371.669342 
	C350.747711,387.983612 344.501740,403.580414 345.896820,421.019623 
	C347.037018,435.272034 344.184357,449.843872 342.987854,465.192322 
M513.494141,77.681931 
	C524.852783,77.583244 536.075195,78.902855 547.200989,81.067833 
	C548.814148,81.381744 550.097900,81.443016 551.304871,80.222542 
	C554.552979,76.938164 557.384888,73.384659 556.641052,68.412170 
	C555.931396,63.668560 551.929504,62.341450 548.105713,61.026783 
	C546.536011,60.487095 544.921936,60.035046 543.294617,59.710659 
	C527.324158,56.527138 511.174347,56.435913 495.043945,57.576504 
	C487.623383,58.101208 480.112946,59.042812 473.073059,61.843838 
	C467.830811,63.929619 465.854462,67.631310 467.222229,72.348679 
	C469.072357,78.729759 472.683044,81.504486 478.226074,80.429802 
	C489.555145,78.233315 500.970123,77.313751 513.494141,77.681931 
M501.446136,128.734985 
	C503.279236,129.179092 505.132965,130.558823 506.980103,128.637039 
	C505.291199,114.687691 499.106995,104.109261 486.088409,97.512077 
	C476.854095,92.832550 468.270111,86.875435 464.550598,76.283142 
	C464.191467,75.260559 463.833557,73.945442 462.260162,74.081474 
	C460.857239,74.202759 460.415680,75.299820 459.947815,76.393600 
	C458.772217,79.142006 458.028717,82.223251 456.287231,84.555138 
	C449.866638,93.152550 453.749664,99.936775 459.630463,106.499062 
	C460.957123,107.979454 462.402374,109.367981 463.895294,110.682671 
	C474.506653,120.027214 486.964752,125.591217 501.446136,128.734985 
M560.527466,78.062256 
	C558.443115,82.114616 555.694336,85.707207 552.000000,88.326172 
	C545.770386,92.742500 539.462585,97.078392 532.949036,101.057556 
	C522.312317,107.555542 518.196594,117.446213 516.975403,129.012665 
	C518.670227,130.102997 520.020203,129.747925 521.266052,129.440811 
	C530.165283,127.247139 538.818359,124.371468 546.850220,119.855843 
	C556.426208,114.472122 564.741516,107.757996 569.921814,97.787086 
	C570.669617,96.347748 571.935181,94.882690 571.212891,93.150345 
	C568.400024,86.404335 565.464966,79.709244 562.379944,72.541107 
	C561.718628,74.636604 561.275208,76.041756 560.527466,78.062256 
M522.536987,81.113510 
	C507.581390,79.745331 492.755432,80.236641 477.242401,83.874542 
	C483.580841,90.708031 491.408264,93.952057 497.997955,98.864120 
	C504.836487,103.961731 507.990662,111.559868 511.886261,120.269440 
	C516.231506,106.018990 525.050842,97.878693 536.485718,92.076141 
	C540.065979,90.259323 543.534302,88.153839 546.453186,84.333260 
	C538.378601,82.095749 530.964905,81.422813 522.536987,81.113510 
M690.609192,601.660034 
	C689.475464,601.919922 688.341736,602.179810 686.233887,602.662964 
	C703.222717,607.287598 719.424622,607.547974 735.739136,606.142517 
	C721.050049,603.477661 706.400513,600.552246 690.609192,601.660034 
M300.555573,607.088257 
	C310.471466,606.945801 320.369781,606.659119 330.283081,603.601074 
	C318.289856,600.605957 298.315216,602.109253 290.629425,606.528870 
	C293.643250,607.446655 296.644440,606.837097 300.555573,607.088257 
M512.846985,423.818939 
	C518.485352,423.172638 521.242249,419.179108 518.614746,415.365356 
	C517.226746,413.350739 515.324463,411.957947 512.707703,412.506775 
	C510.217224,413.029144 508.494812,414.678162 508.057892,417.163361 
	C507.490540,420.390259 509.051849,422.565857 512.846985,423.818939 
M514.381531,555.778625 
	C519.460327,554.018677 521.317017,549.889648 518.440430,546.622742 
	C516.797668,544.757080 514.707642,543.807495 512.240051,544.751770 
	C509.713715,545.718567 508.136444,547.591675 508.256226,550.405823 
	C508.398102,553.739075 510.433716,555.386414 514.381531,555.778625 
M514.293152,478.403473 
	C512.519775,478.278198 511.037659,478.987701 509.817261,480.169708 
	C507.762329,482.159912 507.499603,484.567932 508.907593,486.949677 
	C510.572357,489.765686 513.256470,490.532013 516.196838,489.343323 
	C518.747559,488.312103 519.963379,486.096832 519.536621,483.336884 
	C519.144470,480.800873 517.246277,479.441711 514.293152,478.403473 
M516.307922,290.933807 
	C518.584229,289.302704 519.432068,287.127411 518.530029,284.460541 
	C517.908813,282.624023 516.559570,281.452972 514.582397,281.138397 
	C512.102417,280.743744 510.017090,281.371490 508.516724,283.506012 
	C507.250031,285.308136 507.114838,287.100128 508.338135,289.018158 
	C510.150848,291.860260 512.642151,292.330414 516.307922,290.933807 
M513.668640,346.729614 
	C510.081573,347.100800 507.403595,348.851440 507.639740,352.631409 
	C507.814270,355.425232 509.910217,357.449524 512.975098,357.669312 
	C516.077576,357.891815 518.138733,356.262939 518.737305,353.296692 
	C519.435486,349.836975 517.976257,347.488312 513.668640,346.729614 
M503.595245,946.043213 
	C503.455017,944.391052 503.844696,942.616455 502.767944,940.979004 
	C502.767944,949.915466 502.767944,958.578003 502.767944,967.240479 
	C503.046661,967.231934 503.325348,967.223328 503.604065,967.214722 
	C503.604065,960.449524 503.604065,953.684265 503.595245,946.043213 
z"/>
<path fill="#000000" opacity="1.000000" stroke="none" 
	d="
M567.624084,259.607178 
	C567.632935,257.844360 567.651123,256.513519 567.635437,255.183075 
	C567.555481,248.394226 567.545593,248.314804 574.347656,247.730148 
	C576.609863,247.535721 578.133057,246.745834 578.878723,244.569565 
	C580.339050,240.307678 583.328918,237.232849 586.741760,234.484528 
	C593.217224,229.269852 599.632935,223.979416 606.168945,218.841919 
	C611.174866,214.907135 612.992493,215.219040 616.531738,220.632523 
	C620.446472,226.620514 624.220215,232.741241 626.526123,239.547256 
	C627.681885,242.958725 629.529480,244.449234 633.074219,244.131210 
	C637.401733,243.742950 638.782288,245.855972 637.812317,249.927307 
	C637.507019,251.208801 637.390808,252.561401 637.380493,253.882965 
	C637.305725,263.463165 637.990723,262.171661 629.085938,262.916138 
	C610.714966,264.452087 592.285095,265.313293 573.870605,266.283569 
	C567.563904,266.615906 567.551758,266.385925 567.624084,259.607178 
M604.633240,261.809906 
	C611.599731,261.434875 618.563660,261.001892 625.533264,260.699615 
	C634.181152,260.324554 634.123108,260.274475 635.301331,251.889572 
	C635.800842,248.334579 634.976990,247.059799 631.219971,247.300613 
	C618.469482,248.117813 605.702393,248.673065 592.943359,249.361099 
	C587.140198,249.674042 581.333435,249.969406 575.542664,250.447418 
	C570.665100,250.850037 570.257812,252.135147 570.278564,259.556793 
	C570.291016,264.005890 572.895813,263.862335 575.846985,263.677917 
	C585.127869,263.097931 594.406006,262.473541 604.633240,261.809906 
M604.916565,226.447876 
	C597.624695,232.872986 588.247803,237.156494 582.968872,247.209198 
	C596.821167,245.909576 609.717102,246.572083 622.739746,244.376389 
	C620.966736,237.832199 618.139099,232.774979 615.195190,227.776535 
	C611.337769,221.227264 611.322021,221.236542 604.916565,226.447876 
z"/>
<path fill="#000000" opacity="1.000000" stroke="none" 
	d="
M519.526733,215.490570 
	C520.960693,219.056488 524.979614,218.229095 527.785400,221.415512 
	C522.702698,221.625580 520.969177,225.305328 518.222412,227.906418 
	C515.075439,230.886414 511.128876,230.394806 507.706970,227.752228 
	C504.389099,225.190063 503.350037,220.520798 505.407318,216.968597 
	C507.540253,213.285828 510.777924,211.607819 515.095764,212.634842 
	C516.754211,213.029312 518.176636,213.879852 519.526733,215.490570 
M515.455933,226.043839 
	C519.293701,222.458344 519.657043,218.899200 516.302734,216.622574 
	C514.065125,215.103897 511.694458,214.909836 509.382202,216.637619 
	C507.214935,218.256989 506.669556,220.546494 507.560364,222.837097 
	C508.800964,226.027130 511.374146,227.249756 515.455933,226.043839 
z"/>
<path fill="#000000" opacity="1.000000" stroke="none" 
	d="
M512.046875,165.540619 
	C506.613586,165.182648 504.416016,161.806824 503.792328,157.396622 
	C503.236298,153.464905 505.440948,150.626709 509.017609,149.268982 
	C513.179993,147.688904 517.130188,148.578934 519.502502,152.448044 
	C521.199097,155.215088 524.016541,155.210999 526.695374,156.842804 
	C520.267029,157.345215 519.455200,166.214523 512.046875,165.540619 
M511.005249,162.557190 
	C516.694702,162.427322 519.846069,158.819366 517.726013,154.824951 
	C516.456726,152.433426 514.477661,151.117844 511.698120,151.416824 
	C509.145721,151.691376 507.476105,153.147507 506.786316,155.620651 
	C505.863617,158.928726 507.498932,160.949036 511.005249,162.557190 
z"/>
<path fill="#000000" opacity="1.000000" stroke="none" 
	d="
M699.672729,382.186981 
	C703.353760,384.788452 707.852417,387.050262 706.342590,391.977692 
	C704.377686,398.389984 699.144775,402.156433 693.193420,404.796844 
	C693.973022,401.169037 697.303711,399.975067 699.513550,397.747467 
	C705.584412,391.627655 705.365784,388.972260 698.208557,384.229187 
	C693.117737,380.855530 687.191833,379.113098 682.137207,375.524475 
	C688.572510,375.808167 693.863220,379.188080 699.672729,382.186981 
z"/>
<path fill="#000000" opacity="1.000000" stroke="none" 
	d="
M321.562012,398.374878 
	C315.186829,390.513947 315.610229,387.416199 323.877319,382.266663 
	C330.319824,378.253662 337.229767,375.309601 345.072021,373.629272 
	C344.581482,376.812805 342.302551,376.599487 340.811737,377.227509 
	C335.597626,379.424316 330.192261,381.189331 325.369843,384.240234 
	C318.618195,388.511597 318.380035,391.116638 323.730255,397.107208 
	C326.106995,399.768402 329.866669,401.066284 331.942261,405.828766 
	C327.107300,404.153625 324.628845,401.136078 321.562012,398.374878 
z"/>
</svg>